/* XPM */
static char *ee1759db36694fc3a2c28c38d5eb30ccbG6EJQcly7pDzArv[] = {
/* columns rows colors chars-per-pixel */
"64 64 111 2 ",
"   c #05090C",
".  c #0C0A0C",
"X  c #130C0D",
"o  c #1B0D0E",
"O  c #070F14",
"+  c #0B0E13",
"@  c #150D11",
"#  c #1C0D11",
"$  c #071014",
"%  c #091014",
"&  c #131113",
"*  c #1D1314",
"=  c #151719",
"-  c #1E1919",
";  c #220E0F",
":  c #2D0E0F",
">  c #330E0F",
",  c #3A0E0E",
"<  c #230D10",
"1  c #290D10",
"2  c #231213",
"3  c #2D1112",
"4  c #231817",
"5  c #241B1B",
"6  c #291D1D",
"7  c #341212",
"8  c #3B1413",
"9  c #371817",
"0  c #311F1E",
"q  c #3E1D1C",
"w  c #2E201F",
"e  c #33201F",
"r  c #261F21",
"t  c #262020",
"y  c #2C2424",
"u  c #2E2829",
"i  c #332423",
"p  c #3B2423",
"a  c #362827",
"s  c #392827",
"d  c #342B2B",
"f  c #352D2C",
"g  c #392B2B",
"h  c #392C2B",
"j  c #3A2C2B",
"k  c #3B2C2C",
"l  c #3B2E2D",
"z  c #3C2F2F",
"x  c #3C302F",
"c  c #3D302F",
"v  c #342F30",
"b  c #373030",
"n  c #3A3333",
"m  c #3F3232",
"M  c #3F3433",
"N  c #3C3334",
"B  c #3B3535",
"V  c #3E3636",
"C  c #3F3939",
"Z  c #440F0E",
"A  c #4A0F0E",
"S  c #4C100E",
"D  c #53110E",
"F  c #5C120F",
"G  c #421514",
"H  c #4A1615",
"J  c #461817",
"K  c #4E1817",
"L  c #541917",
"P  c #5C1916",
"I  c #541A18",
"U  c #5C1A18",
"Y  c #65130F",
"T  c #6C150F",
"R  c #621B17",
"E  c #691B17",
"W  c #641C18",
"Q  c #6D1E1A",
"!  c #731610",
"~  c #791610",
"^  c #7E1810",
"/  c #761F19",
"(  c #791F1A",
")  c #7C201A",
"_  c #432524",
"`  c #472827",
"'  c #492827",
"]  c #4C2928",
"[  c #502A28",
"{  c #413736",
"}  c #413837",
"|  c #413939",
" . c #443B3B",
".. c #463E3E",
"X. c #474040",
"o. c #494141",
"O. c #4D4545",
"+. c #514A4A",
"@. c #5A5353",
"#. c #5D5858",
"$. c #625D5D",
"%. c #645E5E",
"&. c #656060",
"*. c #736D6D",
"=. c #797474",
"-. c #811811",
";. c #959292",
":. c #999696",
">. c #9C9999",
",. c #CDCCCC",
"<. c #D4D3D3",
/* pixels */
"+...m g l z { l g z m ..| ..{ z h g l { z z g g { ..| ..m m m z { l m x M ..| ..m g h g z { g h g g | .. ...l z m m { g l z { +.",
"o.| g i a g m i i h g | m | l g i i i m g d i i m } m | d i a i n i d i l | x | h g l g d l a l l i M V m | i d m g l i i g l o.",
":.| d a a a f a a a d f f b f a a a a f a a a a f b f f d a a a f a a a d b f b d a a a a f a d a a f b f f a a a d f a a a n $.",
"<.&.y y y y y y y y y y y y y y y y y y y y y y y y y y y y y y y y y y y y y y y y y y y y 5 y t y y y y y y y y y y y y y &.,.",
"*.o.| | | | | | | | | | | | | | | | | | | | | | | | | | v d d d d d d v | | | | | | | | | n 6 y y n | | | | | | | | | | | | o.*.",
"o.| | | V b y y y f n | | | | | | | | | | | | B d u = = +             + = = u d B | | | | | a 6 6 n | | | n f y y y b V | | | o.",
"O.| | b t - - - - - 5 a | | | | | | | | | b - &                                 & - b | | | f 6 6 n | | a 5 - - - - - t b | | O.",
"O.| n 5 - 5 6 6 6 5 - - a | | | | | | d - &                         . . . . . . . . & 5 d | | y 6 n | a - - 5 6 6 5 5 - 5 n | O.",
"O.| y - 5 w i 6 * X X * 5 V | | | V r X . . . . . X X X X X X X X X X X X X X X X X X X @ y N a a V V 5 * * 4 6 6 i w 5 - y | O.",
"O.| a - 5 i 6 & . . . . 5 V | | d * X X X X X X X X X X X o X X o o o o o o o o o o o o o o 4 a n | V t * & . . & 6 i 5 - a | O.",
"O.| | y 5 e 6 X . . . & f | | y # o o o o o o o o o o o o o o o o o o o o o o o ; ; ; ; ; ; ; 2 a | | n 5 X . . . & 6 5 y | | O.",
"O.| | V a y w 6 * - y n | | a 2 ; ; ; ; ; ; ; ; ; ; ; ; ; ; ; < < < < < < < < < < < < < < < < < 3 i | | n t & X & 5 y a V | | O.",
"O.| | | | | n f f V | | | d 2 < < < < 1 1 1 1 1 1 < < < # & & & & & & * 2 2 2 3 3 3 3 3 3 3 3 3 3 3 g | | | b f f n | | | | | O.",
"o.| | | | | | | | | | | { 7 3 3 3 3 3 3 3 3 3 2 * & % % % $ $ $ $ $ $ % % % & * 2 7 7 7 7 7 7 7 7 7 9 { | | | | | | | | | | | o.",
";.| n n n n n n n n n n p 7 7 7 7 7 7 7 7 2 & % $ $ $ $ $ $ $ $ $ $ $ $ $ $ $ $ % * 2 7 8 8 8 8 8 8 8 p n n n n n n n n n n V #.",
"<.%.y y y y y y y y y 6 7 8 8 8 8 8 8 2 & % $ $ $ $ $ $ $ $ $ $ $ O $ $ $ $ $ $ $ $ % & 3 G G G G G G 8 6 y y y y y y y y y %.,.",
"=.o.| | | | | | | | | _ 8 G G G G 8 2 % $ $ $ $ $ $ $ $ $ $ $ $ $ $ $ $ $ $ $ $ $ $ $ $ % 2 G H H H H H ` | | | | | | | | | o.=.",
"o.| | | | | | | | | | ` G G G G G 2 $ $ $ $ $ $ $ $ $ $ $ $ $ $ $ $ $ $ $ $ $ $ $ $ $ $ $ $ 2 H K K K K ] | | | | | | | | | | o.",
"O.| | | | | | | | | | ` K K K H 2 % $ $ $ $ $ $ $ $ $ $ $ $ $ $ $ $ $ $ $ $ $ $ $ $ $ $ $ $ % 2 L L L L ] | | | | | | | | | | O.",
"O.| | | | | | | | | | ] L L L 3 % O O O O O O O O O O O O O O O O O O O O O O O O O O O O O O % 7 U U P ] | | | | | | | | | | O.",
"| V | | | | | | | | | ] L P G & O O O O O O O O O O O O O O O O O O O O O O O O O O O O O O O O & J U U [ | | | | | | | | | C B ",
"y y n | | | | | | | | ' L U 7 + + + + + + + + + + + + + + + + + + + + + + + + + + + + + + + + + + 8 W P ] | | | | | | | | | f n ",
"C f f | | | | | | | | ' P L * + + + + + + + + + + + + + + + + + + + + + + + + + + + + + + + + + + * I U ' | | | | | | | | V n o.",
"| V | | | | | | | | | ' U H + + + + + + + + + + + + + + + + + + + + + + + + + + + + + + + + + + + + K R ' | | | | | | | | | V X.",
">.O.y y y y y y y y y q U K @ + + + + + @ @ + + + + @ @ + + + + @ @ @ @ + + + + + + + + @ @ + + + @ K R q y y y y y y y y y O.;.",
"<.%.a y y y y y y a f _ R L @ @ @ @ @ @ @ @ @ @ @ @ @ @ @ @ @ @ @ @ @ @ @ @ @ @ @ @ @ @ @ @ @ @ @ @ L R _ f f f f f f f v f %.<.",
"=...y a d d f f d y V ' R L @ @ @ @ @ @ @ @ @ @ @ @ @ @ @ @ @ @ @ @ @ @ @ @ @ @ @ @ @ @ @ @ @ @ @ @ L R ' | V n n n n n n V ..=.",
"o.| y d l g z { z 6 V ' R L @ @ @ @ @ @ @ @ @ @ @ @ @ @ @ @ @ @ @ @ @ @ @ @ @ @ @ @ @ @ @ @ @ @ @ @ L R ' V y d f a a f a y | o.",
"O.| y f l | V l h 6 V ' R L # @ @ @ @ @ @ @ @ @ @ @ @ @ @ @ @ @ @ @ @ @ @ @ @ @ @ @ @ @ @ @ @ @ @ # L R ' V 6 z m m m z l y | O.",
"O.| y f l | V h h 6 V ' R L # # # # # # # # # # # # # # # # # # # # # # # # # # # # # # # # # # # # L R ' V 6 h h V | l f y | O.",
"O.| y f l | V h h 6 V ' R L < < < < < < < < < < < < < < < < < < < < < < < < < < < < < < < < < < < < L R ' V 6 h h V | l f y | O.",
"O.| y f l | V h h 6 V ' R L < < < < < < < < < < < < < < < < < < < < < < < < < < < < < < < < < < < < L R ' V 6 h h V | l f y | O.",
"O.| y f l | V h h 6 V ' R L 1 < < < < < < < < < < < < < < < < < < < < < < < < < < < < < < < < < < 1 L R ' V 6 h h V | l f y | O.",
"O.| y f l | V h h 6 V ' R L 1 1 1 1 1 1 1 1 1 1 1 1 1 1 1 1 1 1 1 1 1 1 1 1 1 1 1 1 1 1 1 1 1 1 1 1 L R ' V 6 h h V | l f y | O.",
"O.| y f l | V h h 6 V ' R L : : : : : : : : : : : : : : : : : : : : : : : : : : : : : : : : : : : : L R ' V 6 h h V | l f y | O.",
"O.| y d m l m h h 6 V ' R P > : : : : : : : : > > : : : : : : : : : : > : : : : : : : > > : : : : > P R ' V 6 h h V m m f y | O.",
"O.| y l m V V h h 6 V ' R P > > > > > > > > > > > > > > > > > > > > > > > > > > > > > > > > > > > > P R ' V 6 h h M m x d y | O.",
"O.| y f m | V h h 6 V ' R P > > > > > > > > > > > > > > > > > > > > > > > > > > > > > > > > > > > > P R ' V 6 h h V | V n y | O.",
"O.| y 0 p m V h h 6 V ' R P , , , , , , , , , , , , , , , , , , , , , , , , , , , > , , , , , , , , P R ' V 6 h h V V s a y | O.",
"O.| y a g V V h h 6 V ' R P , , , , , , , , , , , , , , , , , , , , , , , , , , , , , , , , , , , , P R ' V 6 h h V m p i y | O.",
"O.| y l { | V h h 6 V ' R U , , , , , , , , , , , , , , , , , , , , , , , , , , , , , , , , , , , , U R ' V 6 h h V | V f y | O.",
"O.| y d m l m h h 6 V ' R U Z Z Z Z Z Z Z Z Z Z Z Z Z Z Z Z Z Z Z Z Z Z Z Z Z Z Z Z Z Z Z Z Z Z Z Z U R ' V 6 h h V V V d y | O.",
"O.| y n M l l l h 6 V ' R U Z Z Z Z Z Z Z Z Z Z Z Z Z Z Z Z Z Z Z Z Z Z Z Z Z Z Z Z Z Z Z Z Z Z Z Z U R ' V 6 h l x l m f y | O.",
"O.| y n m m m h h 6 V ' R U A Z Z Z Z Z Z Z Z Z A A Z Z Z Z Z Z A A Z Z Z Z Z Z Z Z Z Z Z Z Z Z Z A U R ' V 6 h l m l V n y | O.",
"O.| y f l | V h h 6 V ' R U A A A A A A A A A A A A A A A A A A A A A A A A A A A A A A A A A A A A U R ' V 6 h h V V l l y | O.",
"O.| y f l | V h h 6 V ' R R S S S S S S S S S S S S S S S S S S S S S S S S S S S S S S S S S S S S R R ' V 6 h h V | l f y | O.",
"O.| y f l | V h h 6 V ' R R D D D D D D D D D D D D D D D D D D D D D D D D D D D D D D D D D D D D R R ' V 6 h h V | l f y | O.",
"O.| y n m m m l h 6 V ' R R D D D D D D D D D D D D D D D D D D D D D D D D D D D D D D D D D D D D R R ' V 6 h h V | l f y | O.",
"O.| y n | M m | h 6 V ' R R D D D D D D D D D D D D D D D D D D D D D D D D D D D D D D D D D D D D R R ' V 6 h m l m { n y | O.",
"O.| u y a d d d i y V ' R R F F F F F F F F F F F F F F F F F F F F F F F F F F F F F F F F F F F F R R ' V y a d a a f a u | O.",
"=...| V V V V V { | | ' U E F F F F F F F F F F F F F F F F F F F F F F F F F F F F F F F F F F F F E R ' | V V V V V V V C ..=.",
"@.| f a a a a a a a | ' R E F F F F F F F F F F F F F F F F F F F F F F F F F F F F F F F F F F Y F E R ' | a a a a a a y f | @.",
"O.| y 0 i i i i e 6 V ' R E Y Y Y Y Y Y Y Y Y Y Y Y Y Y Y Y Y Y Y Y Y Y Y Y Y Y Y Y Y Y Y Y Y Y Y Y E R ' V 6 e i i i i 0 y | O.",
"O.| y n { d z | h 6 V ' R E Y Y Y Y Y Y Y Y Y Y Y Y Y Y Y Y Y Y Y Y Y Y Y Y Y Y Y Y Y Y Y Y Y Y Y Y E R ' V 6 g | z d { n y | O.",
"O.| y n m 6 i | g 6 V ' R E T Y Y Y Y Y Y Y Y Y Y Y Y Y Y Y Y Y Y Y Y Y Y Y Y Y Y Y Y Y Y Y Y Y Y Y E R ' V 6 g | i 6 m n y | O.",
"O.| y n h 6 5 x g 6 V ' Q / T T T T T T T T T T T T T T T T T T T T T T T T T T T T T T T T T T T T Q W ' V 6 g x 5 6 h n y | O.",
"O.| y d i 6 4 a g 6 V ' Q / T T T T T T T T T T T T T T T T T T T T T T T T T T T T T T T T T T T T / Q ' V 6 g a 4 6 i d y | O.",
"O.| y y i 2 o 5 e 6 V ' Q / ! ! ! ! ! ! ! ! ! ! ! ! ! ! ! ! ! ! ! ! ! ! ! ! ! ! ! ! ! ! ! ! ! ! ! ! / Q ' V 6 i 5 o 2 i y y | O.",
"O.| y i y * ; 6 i 6 V ' Q ( ! ! ! ! ! ! ! ! ! ! ! ! ! ! ! ! ! ! ! ! ! ! ! ! ! ! ! ! ! ! ! ! ! ! ! ! ( Q ' V 6 i 6 ; * i i y | O.",
"O.| y f a 5 4 d g 6 V ' Q ( ! ! ! ! ! ! ! ! ! ! ! ! ! ! ! ! ! ! ! ! ! ! ! ! ! ! ! ! ! ! ! ! ! ! ! ! ( Q ' V 6 g a 4 6 a f y | O.",
"O.| y n x 6 y { h 6 V ' Q ( ~ ~ ~ ~ ~ ~ ~ ~ ~ ~ ~ ~ ~ ~ ~ ~ ~ ~ ~ ~ ~ ~ ~ ~ ~ ~ ~ ~ ~ ~ ~ ~ ~ ~ ~ ~ ( Q ' V 6 h { w 6 x n y | O.",
"O.| y n { i d | h 6 V ' Q ( ^ ^ ^ ^ ^ ^ ^ ^ ^ ^ ^ ^ ^ ^ ^ ^ ^ ^ ^ ^ ^ ^ ^ ^ ^ ^ ^ ^ ^ ^ ^ ^ ^ ^ ^ ^ ( Q ' V 6 h | d i { n y | O.",
"O.| u u f a a f a y V ' Q ) ^ ^ ^ ^ ^ ^ ^ ^ ^ ^ ^ ^ ^ ^ ^ ^ ^ ^ ^ ^ ^ ^ ^ ^ ^ ^ ^ ^ ^ ^ ^ ^ ^ ^ ^ ^ ) Q ' V y i f a a f u u | O.",
"O.| V V V V V V V V | ' Q ) -.-.-.-.-.-.-.-.-.-.-.-.-.-.-.-.-.-.-.-.-.-.-.-.-.-.-.-.-.-.-.-.-.-.-.-.) Q ' | V V V V V V B V | O."
};
