/* XPM */
static char *_ce6213831574c528a420d8bccf923e4qxXCboh11cJX4PCd[] = {
/* columns rows colors chars-per-pixel */
"64 64 122 2 ",
"   c #05090C",
".  c #0C0A0C",
"X  c #130C0D",
"o  c #1B0D0E",
"O  c #1E100F",
"+  c #070F14",
"@  c #0B0E14",
"#  c #140E13",
"$  c #1B0D11",
"%  c #071014",
"&  c #091014",
"*  c #131113",
"=  c #1C1314",
"-  c #151719",
";  c #1E1919",
":  c #220E0F",
">  c #320E0F",
",  c #3B0E0E",
"<  c #27110F",
"1  c #240E10",
"2  c #2B0E10",
"3  c #360E10",
"4  c #221314",
"5  c #2D1112",
"6  c #241817",
"7  c #251B1B",
"8  c #291E1E",
"9  c #341212",
"0  c #3B1413",
"q  c #341F1E",
"w  c #2E221F",
"e  c #32201F",
"r  c #241E20",
"t  c #281F20",
"y  c #272121",
"u  c #2C2424",
"i  c #2C292A",
"p  c #332323",
"a  c #3A2323",
"s  c #362826",
"d  c #3A2827",
"f  c #342929",
"g  c #342A2A",
"h  c #352C2B",
"j  c #332C2C",
"k  c #352D2D",
"l  c #392B2A",
"z  c #392C2B",
"x  c #3A2C2B",
"c  c #3B2F2F",
"v  c #3D2F2F",
"b  c #3C302F",
"n  c #342F30",
"m  c #373030",
"M  c #393131",
"N  c #3C3030",
"B  c #3E3231",
"V  c #3E3333",
"C  c #3B3434",
"Z  c #3D3636",
"A  c #3F3738",
"S  c #3F3838",
"D  c #440F0F",
"F  c #4A0F0F",
"G  c #4D100F",
"H  c #55110E",
"J  c #5D120F",
"K  c #431514",
"L  c #4A1615",
"P  c #4E1817",
"I  c #411D1B",
"U  c #541816",
"Y  c #5B1916",
"T  c #5C1A18",
"R  c #65130F",
"E  c #6B140F",
"W  c #621B17",
"Q  c #6B1B16",
"!  c #621B18",
"~  c #6F1F1A",
"^  c #741610",
"/  c #7A1710",
"(  c #7E1811",
")  c #761E19",
"_  c #7A1F19",
"`  c #54211F",
"'  c #442423",
"]  c #4A2625",
"[  c #4D2826",
"{  c #442E2D",
"}  c #4A2A28",
"|  c #532320",
" . c #5E2522",
".. c #512827",
"X. c #5A2926",
"o. c #552C2A",
"O. c #403535",
"+. c #413736",
"@. c #4B3433",
"#. c #433939",
"$. c #423A3A",
"%. c #433B3B",
"&. c #473F3F",
"*. c #602421",
"=. c #484141",
"-. c #4F4848",
";. c #524C4C",
":. c #565151",
">. c #5B5555",
",. c #5C5656",
"<. c #686161",
"1. c #6D6767",
"2. c #706A6A",
"3. c #811811",
"4. c #878383",
"5. c #8B8888",
"6. c #8C8989",
"7. c #918E8E",
"8. c #C4C3C3",
"9. c #C5C4C4",
"0. c #CBC9C9",
"q. c #CCCACA",
/* pixels */
"&.&.B B B v +.v B B B &.$.&.+.B B B v +.v B B b +.&.$.&.B B B b +.v B B B &.$.&.B B B B b +.v B B v $.&.$.&.b B B B +.v B b +.&.",
"Z $.l b B l B l B c z $.b $.c c B B l B l B B z B +.B $.l B B l B l B c c $.b $.c c B B l b l B B l B +.B $.l B B l c z B c c Z ",
"6.Z g g g g k g g g g m k m k g g g g k g g g g k m k k g g g g k g g g h m k m g g g g g k g g g g k m k k g g g g k g g g M :.",
"q.,.u u u u u u u u u u u u u u u u u u u u u u u u u u u u u u u u u u u u u u u u u u u u 7 u y u u u u u u u u u u u u u >.9.",
"<.&.$.$.$.$.$.$.$.$.$.$.$.$.$.$.$.$.$.$.$.$.$.$.$.$.$.$.n j j j j j j n $.$.$.$.$.$.$.$.$.M 8 u u m $.$.$.$.$.$.$.$.$.$.$.$.&.<.",
"$.$.$.$.Z k u u u k C $.$.$.$.$.$.$.$.$.$.$.$.C j i - - @             @ - - i j C $.$.$.$.$.g 8 8 m $.$.$.C k u u u k Z $.$.$.$.",
"$.$.$.k 7 ; ; ; ; ; 7 g $.$.$.$.$.$.$.$.$.m ; *                                 * ; m $.$.$.c 7 8 m $.$.g 7 ; ; ; ; ; 7 k $.$.$.",
"$.$.M 7 ; 7 8 8 8 7 ; ; j $.$.$.$.$.$.g ; #                         . . . . . . . . * ; g $.$.u 8 m $.j ; ; 7 8 8 7 7 ; 7 M $.$.",
"$.$.u ; 7 e p 8 = X X = 7 Z $.$.$.C r X . . . . . X X X X X X X X X X X X X X X X X X X # t B g g Z Z 7 = = 4 7 8 p e 7 ; u $.$.",
"$.$.u ; 7 p 8 X . . . . 7 $.$.$.g = X X X X X X X X X X X o X X o o o o o o o o o o o o o o 4 g m $.S y = * . . X 7 p 7 ; u $.$.",
"$.$.Z u 7 e 8 X . . . = M $.$.u $ o o o o o o o o o o o o o o o o o o o o o o o : : : : : : : 1 p $.$.M 7 X . . . X 8 7 u Z $.$.",
"$.$.$.Z g u w 7 = ; u C $.+.p 4 : : : : : : : : : : : : : : : 1 1 1 1 1 1 1 1 1 1 1 1 1 1 1 1 1 5 s +.$.Z y * X * 7 u g Z $.$.$.",
"$.$.$.$.$.$.M k k Z $.$.$.s 1 1 1 1 1 2 2 2 2 2 2 1 1 1 $ * * * * * * = 4 4 5 5 5 5 5 5 5 5 5 5 5 5 d $.$.$.M k k M $.$.$.$.$.$.",
"Z $.$.$.$.$.$.$.$.$.$.$.Z 5 5 5 5 5 5 5 5 5 5 4 = * & & & % % % % % % & & & * = 5 9 9 9 9 9 9 9 9 9 9 +.$.$.$.$.$.$.$.$.$.$.$.$.",
"4.Z M M M M M M M M M M a 9 9 9 9 9 9 9 5 4 * & % % % % % % % % % % % % % % % % & = 5 9 0 0 0 0 0 0 0 a M M M M M M M M M M Z ;.",
"q.>.u u u u u u u u u 8 9 0 0 0 0 0 0 5 * % % % % % % % % % % % % % % % % % % % % % & * 5 K K K K K K 0 8 u u u u u u u u u >.8.",
"1.=.$.$.$.$.$.$.$.$.$.a K K K K K 0 4 & % % & % % % % % % % % % & % % % % % % % % % % % & 4 K L L L L L ] $.$.$.$.$.$.$.$.$.=.1.",
"$.$.$.$.$.$.$.$.$.$.$.' L L L L K 4 % % % % & & % % % % % % % % & & % % % % % % % % % % % % 4 L P P P P ] $.$.$.$.$.$.$.$.$.$.$.",
"$.$.$.$.$.$.$.$.$.$.$.] P P P L = & % % % % % % % % % % % % % % & & % % % % % % % % % % % % & 4 P U U U [ $.$.$.$.$.$.$.$.$.$.$.",
"$.$.$.$.$.$.$.$.$.$.$.] U U U 5 & + + + + + + + + + + + + + + + + + + + + + + + + + + + + + + & 9 T T Y ..$.$.$.$.$.$.$.$.$.$.$.",
"k $.$.$.$.$.$.$.$.$.$.[ U Y 0 * + + + + + + + + + + + + + + + + + + + + + + + + + + + + + + + + * K T T ..$.$.$.$.$.$.$.$.$.$.g ",
"; u M $.$.$.$.$.$.$.$.] U T 9 + @ @ @ @ @ @ @ @ @ @ @ @ @ @ @ @ @ @ @ @ @ @ @ @ @ @ @ @ @ @ @ @ + 9 ! Y ] $.$.$.$.$.$.$.$.$.M u ",
"k k m $.$.$.$.$.$.$.$.] Y P = @ @ @ @ @ @ # @ # @ @ # # # @ @ @ @ @ # @ # @ @ @ @ @ @ @ @ # @ # @ 4 U T ] $.$.$.$.$.$.$.$.Z M Z ",
"m $.$.$.$.$.$.$.$.$.$.] T L # # # # # # # # # # # # # # # # # # # # # # # # # # # # # # # # # # # # L W ] $.$.$.$.$.$.$.$.$.Z Z ",
"7.&.u u u u u u u u u I ! L # # # # # # # # # # # # # # # # # # # # # # # # # # # # # # # # # # # # P ! I u u u u u u u u u &.5.",
"0.>.g u u u u u u g k ' W P $ # # # # # # # # # # # # # # # # # # # # # # # # # # # # # # # # # # $ P W ' k k k k k k k k k >.0.",
"1.$.u p g g k k g u S ] W P $ $ $ $ $ $ $ $ $ $ $ $ $ $ $ $ $ $ $ $ $ $ $ $ $ $ $ $ $ $ $ $ $ $ $ $ P W ] $.Z M M M M M M Z $.1.",
"$.$.u c z l B +.l 8 Z ] W U $ $ $ $ $ $ $ $ $ $ $ $ $ $ $ $ $ $ $ $ $ $ $ $ $ $ $ $ $ $ $ $ $ $ $ $ U W ] S u g k g g g g u $.$.",
"$.$.u c c $.B c l 8 A ] W U $ $ $ $ $ $ $ $ $ $ $ $ $ $ $ $ $ $ $ $ $ $ $ $ $ $ $ $ $ $ $ $ $ $ $ $ U W ] Z 8 l B b B c M u $.$.",
"$.$.u c c $.Z c l 8 A ] W U 1 1 1 1 1 1 1 1 1 1 1 1 1 1 1 1 1 1 1 1 1 1 1 1 1 1 1 1 1 1 1 1 1 1 1 1 U W ] A 8 l c Z $.c c u $.$.",
"$.$.u c c $.Z c l 8 A ] W U 1 1 1 1 1 1 1 1 1 1 1 1 1 1 1 1 1 1 1 1 1 1 1 1 1 1 1 1 1 1 1 1 1 1 1 1 U W ] A 8 l c Z $.c c u $.$.",
"$.$.u c c $.Z c l 8 A ] W U 2 1 1 1 1 1 1 1 1 1 1 1 1 1 1 1 1 1 1 1 1 1 1 1 1 1 1 1 1 1 1 1 1 1 1 2 U W ] A 8 l c Z $.c c u $.$.",
"$.$.u c c $.B l l 8 A ] W U 2 2 2 2 2 2 2 2 2 2 2 2 2 2 2 2 2 2 2 2 2 2 2 2 2 2 2 2 2 2 2 2 2 2 2 2 U W ] A 8 l c Z $.c c u $.$.",
"$.$.u c c $.B l l 8 A ] W U 2 2 2 2 2 2 2 2 2 2 2 2 2 2 2 2 2 2 2 2 2 2 2 2 2 2 2 2 2 2 2 2 2 2 2 2 U W ] A 8 l c Z $.c c u $.$.",
"$.$.u c c $.Z c l 8 A ] W U > > > > > > > > > > > > > > > > > > > > > > > > > > > > > > > > > > > > U W ] A 8 l z Z $.c c u $.$.",
"$.$.u k b b B c l 8 A ] W U > > > > > > > > > > > > > > > > > > > > > > > > > > > > > > > > > > > > U W ] A 8 l l B B B c u $.$.",
"$.$.u M B Z Z c l 8 A ] W Y 3 > > > > > > > > > > > > > > > > > > > > > > > > > > > > > > > > > > 3 Y W ] A 8 l l B B c k u $.$.",
"$.$.u { @.$.Z c l 8 A ] W Y , , , , , , , , , , , , , , , , , , , , , , , , , , , , , , , , , , , , Y W ] A 8 l c Z $.$.B u $.$.",
"$.$.u ` *.@.Z c l 8 A ] W Y , , , , , , , , , , , , , , , , , , , , , , , , , , , , , , , , , , , , Y W ] A 8 l c Z @.X.[ u $.$.",
"$.$.u } o.$.Z c l 8 A ] W Y , , , , , , , , , , , , , , , , , , , , , , , , , , , , , , , , , , , , Y W ] A 8 l c Z @. .| u $.$.",
"$.$.u M +.$.Z z l 8 A ] W Y D D D D D D D D D D D D D D D D D D D D D D D D D D D D D D D D D D D D Y W ] A 8 l c Z $.@.+.u $.$.",
"$.$.u k b c B c l 8 A ] W T D D D D D D D D D D D D D D D D D D D D D D D D D D D D D D D D D D D D T W ] A 8 l c B Z B k u $.$.",
"$.$.u B @.l c c l 8 A ] W T D D D D D D D D D D D D D D D D D D D D D D D D D D D D D D D D D D D D T W ] A 8 l c b c +.c u $.$.",
"$.$.u B +.b B c l 8 A ] W T G F F F F F F F F F F F F F F F F F F F F F F F F F F F F F F F F F F G T W ] A 8 l z B c $.B u $.$.",
"$.$.u c c $.Z z l 8 A ] W T G G G G G G G G G G G G G G G G G G G G G G G G G G G G G G G G G G G G T W ] Z 8 l l Z Z c M u $.$.",
"$.$.u c c $.Z c l 8 A ] W W G G G G G G G G G G G G G G G G G G G G G G G G G G G G G G G G G G G G W W ] Z 8 l l Z $.c c u $.$.",
"$.$.u c c $.Z c l 8 A ] W W H H H H H H H H H H H H H H H H H H H H H H H H H H H H H H H H H H H H W W ] Z 8 l c Z $.c c u $.$.",
"$.$.u M B Z B c l 8 A ] W W H H H H H H H H H H H H H H H H H H H H H H H H H H H H H H H H H H H H W W ] A 8 l c Z $.c c u $.$.",
"$.$.u M $.B B $.l 8 Z ] W W H H H H H H H H H H H H H H H H H H H H H H H H H H H H H H H H H H H H W W ] Z 8 l B b B Z C u $.$.",
"$.$.u u g j j j s u S ] W W J J J J J J J J J J J J J J J J J J J J J J J J J J J J J J J J J J J J W W ] S u u j g g k g u $.$.",
"2.&.$.Z Z Z Z Z +.$.$.] W Q J J J J J J J J J J J J J J J J J J J J J J J J J J J J J J J J J J J J Q W ] $.S Z Z Z Z Z +.$.&.2.",
"-.$.k p g g g g g g $.] W Q J J J J J J J J J J J J J J J J J J J J J J J J J J J J J J J J J J J J Q W ] $.g g g g g g p k $.-.",
"$.$.u e p e p p q 8 Z ] W Q R R R R R R R R R R R R R R R R R R R R R R R R R R R R R R R R R R R R Q W ] Z 8 q p p e p e u $.$.",
"$.$.u M +.s B $.l 8 A ] W Q R R R R R R R R R R R R R R R R R R R R R R R R R R R R R R R R R R R R Q W ] A 8 l $.B s +.M u $.$.",
"$.$.u Z B 7 p $.l 8 A ] ! Q R E E E E E E E E E E E E E E E R R E R E E E E E E E E E E E E R R E E Q W ] A 8 l $.p 7 B Z u $.$.",
"$.$.u M l 7 7 B l 8 Z ] ~ ) E E E E E E E E E E E E E E E E E E E E E E E E E E E E E E E E E E E E ~ Q ] Z 8 l B 7 7 l M u $.$.",
"$.$.u k p 7 4 s d 8 Z ] ~ ) E E E E E E E E E E E E E E E E E E E E E E E E E E E E E E E E E E E E ) ~ ] Z 8 d s 4 7 p k u $.$.",
"$.$.u p w < o 7 p 8 Z ] ~ ) ^ ^ ^ ^ ^ ^ ^ ^ ^ ^ ^ ^ ^ ^ ^ ^ ^ ^ ^ ^ ^ ^ ^ ^ ^ ^ ^ ^ ^ ^ ^ ^ ^ ^ ^ ^ ) ~ ] Z 8 p 7 o < w p u $.$.",
"$.$.u p w O : 7 p 8 Z ] ~ _ / / / / / / / / / / ^ ^ / / / / / / / / / / / / / / ^ ^ / / / / / / / / _ ~ ] Z 8 p 7 : O w p u $.$.",
"$.$.u c s 7 6 g l 8 Z ] ~ _ / / / / / / / / / / / / / / / / / / / / / / / / / / / / / / / / / / / / _ ~ ] Z 8 l g 6 7 s c u $.$.",
"$.$.u Z c 7 p +.l 8 Z ] ~ _ / / / / / / / / / / / / / / / / / / / / / / / / / / / / / / / / / / / / _ ~ ] Z 8 l +.p 7 c Z u $.$.",
"$.$.u Z Z p c $.l 8 Z ] ~ _ ( ( ( / / / ( ( ( ( ( / ( ( ( ( ( ( ( ( / / ( ( ( ( ( / ( ( ( ( ( ( ( ( _ ~ ] Z 8 l $.c p +.Z u $.$.",
"$.$.u g k u g k p u S ] ~ _ ( ( ( ( ( ( ( ( ( ( ( ( ( ( ( ( ( ( ( ( ( ( ( ( ( ( ( ( ( ( ( ( ( ( ( ( _ ~ ] S u s k g u k g u $.$.",
"$.$.Z Z Z Z Z Z Z Z $.] ~ _ 3.3.3.3.3.3.3.3.3.3.3.3.3.3.3.3.3.3.3.3.3.3.3.3.3.3.3.3.3.3.3.3.3.3.3.3._ ~ ] $.Z Z Z Z Z Z Z Z $.$."
};
