/* XPM */
static char *b18451d322d14490ce3819df87a84778h7D7HISl1kBSSz1S[] = {
/* columns rows colors chars-per-pixel */
"64 64 115 2 ",
"   c #05090C",
".  c #0C0A0C",
"X  c #130B0D",
"o  c #1B0D0E",
"O  c #15100F",
"+  c #1E100F",
"@  c #0D0F14",
"#  c #130E13",
"$  c #1B0E12",
"%  c #071014",
"&  c #0A1015",
"*  c #131113",
"=  c #1C1414",
"-  c #16171A",
";  c #1A1719",
":  c #1E1919",
">  c #220E0F",
",  c #320E0F",
"<  c #3C0F0F",
"1  c #230E11",
"2  c #2A0E11",
"3  c #330E10",
"4  c #380E10",
"5  c #231214",
"6  c #2D1111",
"7  c #231817",
"8  c #241B1B",
"9  c #291D1D",
"0  c #341212",
"q  c #3B1414",
"w  c #311F1F",
"e  c #3E1D1C",
"r  c #33201F",
"t  c #272020",
"y  c #2D2525",
"u  c #2A2728",
"i  c #2E292A",
"p  c #332423",
"a  c #392322",
"s  c #362827",
"d  c #372827",
"f  c #322728",
"g  c #362728",
"h  c #312828",
"j  c #332A2A",
"k  c #372928",
"l  c #342C2B",
"z  c #322E2E",
"x  c #352E2E",
"c  c #382A29",
"v  c #392C2B",
"b  c #3A2C2B",
"n  c #3A2D2C",
"m  c #3B302F",
"M  c #373030",
"N  c #393232",
"B  c #3D3131",
"V  c #393334",
"C  c #3C3434",
"Z  c #3D3535",
"A  c #3E3434",
"S  c #3F3838",
"D  c #430F0F",
"F  c #46100F",
"G  c #4B100F",
"H  c #53110F",
"J  c #5B120F",
"K  c #431514",
"L  c #4A1615",
"P  c #461817",
"I  c #4F1817",
"U  c #501715",
"Y  c #541917",
"T  c #5B1916",
"R  c #551918",
"E  c #5D1A18",
"W  c #64130F",
"Q  c #6C150F",
"!  c #691410",
"~  c #621B17",
"^  c #691B17",
"/  c #641C18",
"(  c #6D1E1A",
")  c #741610",
"_  c #7A1710",
"`  c #7E1810",
"'  c #751E19",
"]  c #791F1A",
"[  c #7C201A",
"{  c #432423",
"}  c #452827",
"|  c #492827",
" . c #4B2928",
".. c #502A29",
"X. c #403636",
"o. c #413939",
"O. c #433B3B",
"+. c #433C3C",
"@. c #473F3F",
"#. c #474040",
"$. c #494343",
"%. c #4D4545",
"&. c #595252",
"*. c #635D5D",
"=. c #666161",
"-. c #686363",
";. c #6C6666",
":. c #746E6E",
">. c #7C7777",
",. c #811811",
"<. c #999696",
"1. c #9B9898",
"2. c #A09D9D",
"3. c #CECDCD",
"4. c #D2D1D1",
/* pixels */
"%.o.n c p p B c k p c o.Z o.m p p k c B p p p c B o.Z o.c p p s B p p p n o.Z o.n c n n c B k v v k Z X.Z o.c n p k B c p p B %.",
"$.o.n v p p B c c p c o.B o.n p p c c B p a p c B o.B o.c c n k B s n c n o.B o.v p k s s B p k s p Z X.B o.c B s s n c p p m $.",
"2.+.j j j j l j j j j x x x k j j j j x j j j j k x x x j j j j l j j j j x x x j p p p j l j j j j x x x x j j j j k j j j Z -.",
"4.=.y y y y y y y y y y y y y y y y y y y y y y y y y y y y y y y y y y y y y y y y y y y y 8 y t y y y y y y y y y y y y y =.3.",
";.@.o.o.o.o.o.o.o.o.o.o.o.o.o.o.o.o.o.o.o.o.o.o.o.o.o.S z i i i i i i z S S o.o.o.o.o.o.o.B 9 y y N o.o.o.o.o.o.o.o.o.o.o.o.@.;.",
"$.o.o.o.Z x y t t j N o.o.o.o.o.o.o.o.o.o.o.o.V i u - - .             . - - u i V o.o.o.o.o.j 9 9 N o.o.o.N j t t y x Z o.o.o.$.",
"%.o.o.x 8 : : : : : 8 i Z o.o.o.o.o.o.o.o.x ; &                                 * : M o.o.o.x 8 9 N o.Z i 8 : : : : : 8 x o.o.%.",
"%.o.N 8 : 8 9 9 9 8 : : j o.o.o.o.o.o.i ; #                     . . . . . . . . . . # : j o.o.t 9 N o.j : : 8 9 9 8 8 : 8 N o.%.",
"%.o.y : 8 r p 9 = X X = 8 Z o.o.o.N 8 X . . . . X X X X X X X X X X X X X X X X X X X X X 8 N j j S Z 8 = = = 8 9 p r 8 : y o.%.",
"%.o.j : 8 p 9 O . . . . 8 Z o.o.j = X X X X X X X X X o X o X o o o o o X o o o o o o o o o 7 f N o.Z t = * . . X 8 p 8 : j o.%.",
"%.o.o.y 8 9 9 * . . . = M o.o.t $ o o o o o o o o o o o o o o o o o o o o o o o o o > > > > > 1 p o.o.N 8 X . . . * 9 8 y o.o.%.",
"%.o.o.o.j t t 9 = 8 y Z o.X.p 5 > > > > > > > > > > > > > 1 1 1 2 2 2 2 2 2 2 2 2 2 2 2 2 2 2 2 6 p X.o.Z y = X * 8 y k o.o.o.%.",
"%.o.o.o.o.o.N N N Z o.o.o.g 5 2 2 2 2 2 2 2 2 2 2 2 $ $ $ * * * * * * = 5 5 6 6 6 6 6 6 6 6 6 6 6 6 c o.o.o.N x M N o.o.o.o.o.%.",
"$.o.o.o.o.o.o.o.o.o.o.o.X.0 6 6 6 6 6 6 6 0 6 5 = * % % % % % % % % % % % % * = 5 0 0 0 0 0 0 0 0 0 0 X.o.o.o.o.o.o.o.o.o.o.o.$.",
"<.o.x M M M M M M M M M a 0 0 0 0 0 0 0 6 5 * % % % % % % % % % % % % % % % % % % = 6 0 q q q q q q q a M M N N M M M M M x Z *.",
"4.=.y y y y y y y y y 9 0 q q q q q q 6 * % % % % % % % % % % % % % % % % % % % % % % * 6 K K K K K K q 9 y y y y y y y y y =.3.",
":.$.o.o.o.o.o.o.o.o.o.{ K K K K K q 5 & % % % % % % % % % % % % % % % % % % % % % % % % & 5 K L L L L L } o.o.o.o.o.o.o.o.o.$.:.",
"$.o.o.o.o.o.o.o.o.o.o.} P P P P K 5 % % % % % & & & & & & % & & % % % % & & & & & % & & % % 5 L I I I U  .o.o.o.o.o.o.o.o.o.o.$.",
"%.o.o.o.o.o.o.o.o.o.o.} I I I L 5 & % % % % % % & & & & & & & & % % % % & & & & & & & & % % & 5 Y R R R  .o.o.o.o.o.o.o.o.o.o.%.",
"%.o.o.o.o.o.o.o.o.o.o. .Y Y Y 6 & @ @ @ @ @ @ @ @ @ @ @ @ @ @ @ @ @ @ @ @ @ @ @ @ @ @ @ @ @ @ & 0 E E T ..o.o.o.o.o.o.o.o.o.o.%.",
"o.Z o.o.o.o.o.o.o.o.o. .R T K * @ @ @ @ @ @ @ @ @ @ @ @ @ @ @ @ @ @ @ @ @ @ @ @ @ @ @ @ @ @ @ @ * P E T ..o.o.o.o.o.o.o.o.o.Z Z ",
"y y x o.o.o.o.o.o.o.o.| R E q @ # # # # # # # # # # # # # # # # # # # # # # # # # # # # # # # # @ q / T | o.o.o.o.o.o.o.o.o.x N ",
"o.x M o.o.o.o.o.o.o.o.| T Y 5 # # # # # # # # # # # # # # # # # # # # # # # # # # # # # # # # # # 5 R E | o.o.o.o.o.o.o.o.Z N $.",
"o.Z o.o.o.o.o.o.o.o.o.| E I # # # # # # # # # # # # # # # # # # # # # # # # # # # # # # # # # # # # I ~ | o.o.o.o.o.o.o.o.o.Z #.",
"2.%.y y y y y y y y y e E I $ $ $ $ $ $ $ $ $ $ $ $ $ $ $ $ $ $ $ $ $ $ $ $ $ $ $ $ $ $ $ $ $ $ $ $ Y ~ e y y y y y y y y y %.1.",
"4.*.j y y y y y y j x { ~ Y $ $ $ $ $ $ $ $ $ $ $ $ $ $ $ $ $ $ $ $ $ $ $ $ $ $ $ $ $ $ $ $ $ $ $ $ Y ~ { M N N N N N N N x *.4.",
":.@.y p k k x M l y Z | ~ Y 1 $ $ $ $ $ $ $ $ $ $ $ $ $ $ $ $ $ $ $ $ $ $ $ $ $ $ $ $ $ $ $ $ $ $ 1 Y ~ | o.N N N N N N N Z @.:.",
"$.o.y k v c v X.v 9 Z | ~ R 1 1 $ $ 1 1 1 1 $ $ 1 1 1 1 $ 1 1 1 $ $ $ $ 1 1 $ $ $ $ 1 1 1 1 $ $ 1 1 R ~ | Z y k x j j x j y o.$.",
"%.o.y x n o.Z n v 9 Z | ~ R 1 1 1 1 1 1 1 1 1 1 1 1 1 1 1 1 1 1 1 1 1 1 1 1 1 1 1 1 1 1 1 1 1 1 1 2 R ~ | Z 9 v B B B n n y o.%.",
"%.o.y x n o.Z v v 9 Z | ~ R 2 2 2 2 2 2 2 2 2 2 2 2 2 2 2 2 2 2 2 2 2 2 2 2 2 2 2 2 2 2 2 2 2 2 2 2 R ~ | Z 9 v v Z o.n x y o.%.",
"%.o.y x n o.Z v v 9 Z | ~ R 2 2 2 2 2 2 2 2 2 2 2 2 2 2 2 2 2 2 2 2 2 2 2 2 2 2 2 2 2 2 2 2 2 2 2 2 R ~ | Z 9 v v Z o.n x y o.%.",
"%.o.y x n o.Z v v 9 Z | ~ R 2 2 2 2 2 2 2 2 2 2 2 2 2 2 2 2 2 2 2 2 2 2 2 2 2 2 2 2 2 2 2 2 2 2 2 2 R ~ | Z 9 v v Z o.n x y o.%.",
"%.o.y x n o.Z v v 9 Z | ~ T 2 2 2 2 2 2 2 2 2 2 2 2 2 2 2 2 2 2 2 2 2 2 2 2 2 2 2 2 2 2 2 2 2 2 2 2 T ~ | Z 9 v v Z o.n x y o.%.",
"%.o.y x n o.Z v v 9 Z | ~ T 3 3 3 3 3 3 3 3 3 3 3 3 3 3 3 3 3 3 3 3 3 3 3 3 3 3 3 3 3 3 3 3 3 3 3 3 T ~ | Z 9 v v Z o.n x y o.%.",
"%.o.y x n o.Z v v 9 Z | ~ T , , , , , , , , , , , , , , , , , , , , , , , , , , , , , , , , , , , , T ~ | Z 9 v v Z o.n x y o.%.",
"%.o.y k B n B v v 9 Z | ~ T 3 3 3 3 3 3 3 3 3 3 3 3 3 3 3 3 3 3 3 3 3 3 3 3 3 3 3 3 3 3 3 3 3 3 3 3 T ~ | Z 9 v v Z B B n y o.%.",
"%.o.y N B Z Z v v 9 Z | ~ T 4 4 4 4 4 3 4 4 4 4 4 4 4 4 4 4 4 4 4 4 4 4 4 4 4 4 3 4 4 4 4 4 4 4 4 4 T ~ | Z 9 v v Z B m k y o.%.",
"%.o.y x m o.Z v v 9 Z | ~ T < < < < < < < < < < < < < < < < < < < < < < < < < < < < < < < < < < < < T ~ | Z 9 v v Z o.X.N y o.%.",
"%.o.y 9 p B Z v v 9 Z | ~ E < < < < < < < < < < < < < < < < < < < < < < < < < < < < < < < < < < < < E ~ | Z 9 v v Z Z p p y o.%.",
"%.o.y j c X.Z v v 9 Z | ~ E D D D D D D D D D D D D D D D D D D D D D D D D D D D D D D D D D D D D E ~ | Z 9 v v Z B p t y o.%.",
"%.o.y n X.o.Z v v 9 Z | ~ E F D D D D D D D D D D D D D D D D D D D D D D D D D D D D D D D D D D F E ~ | Z 9 v v Z o.Z n y o.%.",
"%.o.y k B n B v v 9 Z | ~ E F D D D D D D D D D D D D D D D D D D D D D D D D D D D D D D D D D D F E ~ | Z 9 v v Z Z Z k y o.%.",
"%.o.y N Z n n n v 9 Z | ~ E G G G G G G G G G G G G G G G G G G G G G G G G G G G G G G G G G G G G E ~ | Z 9 v n m n B x y o.%.",
"%.o.y N B B B v v 9 Z | ~ ~ G G G G G G G G G G G G G G G G G G G G G G G G G G G G G G G G G G G G ~ ~ | Z 9 v n B n Z N y o.%.",
"%.o.y x n o.Z v v 9 Z | ~ ~ G G G G G G G G G G G G G G G G G G G G G G G G G G G G G G G G G G G G ~ ~ | Z 9 v v Z Z n n y o.%.",
"%.o.y x n o.Z v v 9 Z | ~ ~ H H H H H H H H H H H H H H H H H H H H H H H H H H H H H H H H H H H H ~ ~ | Z 9 v v Z o.n x y o.%.",
"%.o.y x n o.Z v v 9 Z | ~ ~ H H H H H H H H H H H H H H H H H H H H H H H H H H H H H H H H H H H H ~ ~ | Z 9 v v Z o.n x y o.%.",
"%.o.y N B B B n v 9 Z | ~ ~ H H H H H H H H H H H H H H H H H H H H H H H H H H H H H H H H H H H H ~ ~ | Z 9 v v Z o.n x y o.%.",
"%.o.y n o.Z B o.v 9 Z | ~ ~ J J J H J J J J J H J J J J J J J J J J J J J J J J J J J J J J J J J J ~ ~ | Z 9 v B m B X.N y o.%.",
"%.o.i y j z z z p t Z | ~ ^ J J J J J J J J J J J J J J J J J J J J J J J J J J J J J J J J J J J J ~ E | Z y p z j j x k j o.%.",
">.@.o.Z Z Z Z Z X.o.o.| ~ ^ J J J J J J J J J J J J J J J J J J J J J J J J J J J J J J J J J J J J ^ ~ | o.S Z Z Z Z Z X.o.@.>.",
"&.o.x p j j j j p j o.| ~ ^ W W W W W W W W W W W W W W W W J J W W W W J J W W W W W W W W J J W W ^ ~ | o.j p j j j j p x o.&.",
"%.o.y w a a a a r 8 Z | ~ ^ W W W W W W W W W W W W W W W W W W W W W W W W W W W W W W W W W W W W ^ ~ | Z 8 r a a a a w y o.%.",
"%.o.y N X.k v o.v 9 Z | ~ ^ W W W W W W W W W W W W W W W W W W W W W W W W W W W W W W W W W W W W ^ ~ | Z 9 v o.v k X.N y o.%.",
"%.o.y N B 9 p o.v 9 Z | ~ ^ ! Q Q Q Q Q Q Q Q Q Q Q Q Q Q Q Q Q Q Q Q Q Q Q Q Q Q Q Q Q Q Q Q Q Q ! ^ ~ | Z 9 v o.p 9 B N y o.%.",
"%.o.y N v 9 8 m v 9 Z | ( ] Q Q Q Q Q Q Q Q Q Q Q Q Q Q Q Q Q Q Q Q Q Q Q Q Q Q Q Q Q Q Q Q Q Q Q Q ' / | Z 9 v m 8 9 v N y o.%.",
"%.o.y k p 9 7 p c 9 Z | ( ] Q Q Q Q Q Q Q Q Q Q Q Q Q Q Q Q Q Q Q Q Q Q Q Q Q Q Q Q Q Q Q Q Q Q Q Q ] ( | Z 9 c p 7 9 p k y o.%.",
"%.o.y t p + > 8 r 9 Z | ( ] ) ) ) ) ) ) ) ) ) ) ) ) ) ) ) ) ) ) ) ) ) ) ) ) ) ) ) ) ) ) ) ) ) ) ) ) ] ( | Z 9 a 8 > + p t y o.%.",
"%.o.y p p 6 o 8 a 9 Z | ( ] ) ) ) ) ) ) ) ) ) ) ) ) ) ) ) ) ) ) ) ) ) ) ) ) ) ) ) ) ) ) ) ) ) ) ) ) ] ( | Z 9 a 8 o 6 p p y o.%.",
"%.o.y x s 9 7 k c 9 Z | ( ] ) ) ) ) ) ) ) ) ) ) ) ) ) ) ) ) ) ) ) ) ) ) ) ) ) ) ) ) ) ) ) ) ) ) ) ) ] ( | Z 9 c k 7 9 s x y o.%.",
"%.o.y N B 8 t X.v 9 Z | ( ] _ _ _ _ _ _ _ _ _ _ _ _ _ _ _ _ _ _ _ _ _ _ _ _ _ _ _ _ _ _ _ _ _ _ _ _ ] ( | Z 9 v X.w 8 B N y o.%.",
"%.o.y N X.p k o.v 9 Z | ( ] ` ` ` ` ` ` ` ` ` ` ` ` ` ` ` ` ` ` ` ` ` ` ` ` ` ` ` ` ` ` ` ` ` ` ` ` ] ( | Z 9 v o.k p X.N y o.%.",
"%.o.i i x p j x p y Z | ( [ ` ` ` ` ` ` ` ` ` ` ` ` ` ` ` ` ` ` ` ` ` ` ` ` ` ` ` ` ` ` ` ` ` ` ` ` [ ( | Z t p x j p x i i o.%.",
"%.o.Z Z Z Z Z Z Z Z o.| ( [ ,.,.,.,.,.,.,.,.,.,.,.,.,.,.,.,.,.,.,.,.,.,.,.,.,.,.,.,.,.,.,.,.,.,.,.,.[ ( | o.Z Z Z Z Z Z Z Z o.%."
};
