/* XPM */
static char *_ca9398c23734055c7e8c680eb5d8362np7keijLwObocxo7[] = {
/* columns rows colors chars-per-pixel */
"64 64 238 2 ",
"   c #020000",
".  c #0C0000",
"X  c #140000",
"o  c #1C0100",
"O  c #230100",
"+  c #2B0200",
"@  c #2A0A00",
"#  c #340200",
"$  c #3C0200",
"%  c #3D0B00",
"&  c #330C00",
"*  c #391401",
"=  c #281808",
"-  c #430200",
";  c #4B0200",
":  c #440B00",
">  c #4B0B00",
",  c #530300",
"<  c #5C0300",
"1  c #530B00",
"2  c #5C0C00",
"3  c #491400",
"4  c #531400",
"5  c #5C1300",
"6  c #5B1B00",
"7  c #531A00",
"8  c #640300",
"9  c #6C0300",
"0  c #6A0A00",
"q  c #640D00",
"w  c #730200",
"e  c #7C0300",
"r  c #7B0B00",
"t  c #740C00",
"y  c #641400",
"u  c #6C1400",
"i  c #6B1A00",
"p  c #631A00",
"a  c #731400",
"s  c #741A00",
"d  c #7B1C00",
"f  c #7C1300",
"g  c #592703",
"h  c #472103",
"j  c #632301",
"k  c #682901",
"l  c #742200",
"z  c #7B2400",
"x  c #772B00",
"c  c #663507",
"v  c #783502",
"b  c #784410",
"n  c #714C25",
"m  c #870900",
"M  c #960B00",
"N  c #851400",
"B  c #8C1400",
"V  c #831B00",
"C  c #8B1B00",
"Z  c #931200",
"A  c #9C1400",
"S  c #921C00",
"D  c #9B1B00",
"F  c #A40C00",
"G  c #A81800",
"H  c #BA1E00",
"J  c #832400",
"K  c #8C2400",
"L  c #842B00",
"P  c #8C2B00",
"I  c #942400",
"U  c #9B2300",
"Y  c #9C2B00",
"T  c #952B00",
"R  c #8C3300",
"E  c #863901",
"W  c #933300",
"Q  c #9B3400",
"!  c #933C00",
"~  c #9D3B00",
"^  c #A32300",
"/  c #AB2400",
"(  c #A62C00",
")  c #B22C00",
"_  c #B82800",
"`  c #A43300",
"'  c #AC3C00",
"]  c #A83800",
"[  c #B33400",
"{  c #B43B00",
"}  c #BC3C00",
"|  c #BA3400",
" . c #C42D00",
".. c #C92A00",
"X. c #C23B00",
"o. c #C83600",
"O. c #D43B00",
"+. c #D83900",
"@. c #D42C00",
"#. c #E53A00",
"$. c #884608",
"%. c #974603",
"&. c #9B5209",
"*. c #955718",
"=. c #884E14",
"-. c #A94801",
";. c #B54300",
":. c #B44B00",
">. c #BC4B00",
",. c #BA4300",
"<. c #A95506",
"1. c #BB5501",
"2. c #B75804",
"3. c #A85D12",
"4. c #B05F10",
"5. c #BA620B",
"6. c #B76716",
"7. c #A86219",
"8. c #8F5923",
"9. c #98642F",
"0. c #B36F2B",
"q. c #C44300",
"w. c #CA4400",
"e. c #C34B00",
"r. c #CC4B00",
"t. c #D44500",
"y. c #DC4400",
"u. c #D44B00",
"i. c #DC4C00",
"p. c #C45500",
"a. c #CB5B01",
"s. c #C85701",
"d. c #D45300",
"f. c #DC5300",
"g. c #D35C00",
"h. c #DC5A00",
"j. c #E34400",
"k. c #E34B00",
"l. c #EC4C00",
"z. c #EC4500",
"x. c #F34C00",
"c. c #F24400",
"v. c #E45200",
"b. c #EB5400",
"n. c #E35B00",
"m. c #EC5C00",
"M. c #F35300",
"N. c #FB5400",
"B. c #F45C00",
"V. c #FC5B00",
"C. c #C86508",
"Z. c #D36302",
"A. c #D96904",
"S. c #DB730B",
"D. c #D97716",
"F. c #C96F15",
"G. c #E46400",
"H. c #EB6400",
"J. c #E36B02",
"K. c #EC6C00",
"L. c #F36400",
"P. c #FC6300",
"I. c #F36C00",
"U. c #FD6B00",
"Y. c #E97606",
"T. c #F47401",
"R. c #FD7400",
"E. c #F47B03",
"W. c #FD7C00",
"Q. c #F27E0A",
"!. c #E57D17",
"~. c #C5772A",
"^. c #CE7E2E",
"/. c #AA7541",
"(. c #FD8402",
"). c #FE8B02",
"_. c #FD8D0B",
"`. c #F6850A",
"'. c #FF9302",
"]. c #FF9B02",
"[. c #FE940B",
"{. c #FF9C0C",
"}. c #EA8518",
"|. c #F58916",
" X c #FE9B13",
".X c #FE9C1C",
"XX c #FD9416",
"oX c #E9810C",
"OX c #FFA303",
"+X c #FFAB04",
"@X c #FFA30C",
"#X c #FFAA0C",
"$X c #FFB409",
"%X c #FFA314",
"&X c #FFAB13",
"*X c #FFA31B",
"=X c #FFAC1B",
"-X c #FFB414",
";X c #FFB31C",
":X c #FFBB1B",
">X c #FFBC15",
",X c #D88634",
"<X c #CF8235",
"1X c #E78725",
"2X c #FE9C23",
"3X c #F89627",
"4X c #EC9234",
"5X c #FFA323",
"6X c #FFAB23",
"7X c #FDA82C",
"8X c #FFB324",
"9X c #FFBD24",
"0X c #FFBC2B",
"qX c #FFB42D",
"wX c #FEA734",
"eX c #FFB836",
"rX c #FFC41B",
"tX c #FFCA19",
"yX c #FFC911",
"uX c #FFCC2B",
"iX c #FFC428",
"pX c #FFD62A",
"aX c #FFC434",
"sX c #FFCB33",
"dX c #FFC53C",
"fX c #FFCB3C",
"gX c #FFD333",
"hX c #FFD939",
"jX c #FFE538",
"kX c #FEB948",
"lX c #F8AA4A",
"zX c #D68E47",
"xX c #FFC846",
"cX c #FFDA44",
"vX c #FFD753",
"bX c #FFCE51",
"nX c #FFE748",
"mX c #FFE852",
/* pixels */
"{.W.e.Q ;.' { a $ # ; m w 8 9 N D H y.w.t.v.L.(.R.W.(.'.).A.K.R.B.j.I.'.R.U.R.).).H._.}.C.<.3.1.;.U.).@X).(.(.(.(.8X6X:X9X&X=X;X",
"'.g.;.>.' u - 2 +   . $ < 9 e Z G G [ o.|  .b.E.h.h.R._. X`.Y.I.P.m.T.W.R.(.R.R.U.n.a.C.<.&.=.a.h.U.).#X).+X-X{.).{.>X8X7X*X=X%X",
"H.^ :.A.z $ $ - $ > # O < r r  .y.X.V ^ B ^ b.h.A.I._.{.*X7X|.Y.i.u.N.U.(.W.U.R.P.} ] :.2.<.3.}.XX[.OX].].+X#X&XW.(.#X&X7XeX X(.",
"e.K ;.:.d y u ; 1 J Q I I B Y u.I.p.a , ; r U w.u.G.W.%X0X7XwXQ.} +.V.P.R.B.b.y.../ ] g.Z.5.D.`.%X9X-X'.(.W._.&X(.(.$XrXiXeXQ.Y.",
"Y C ` :.:.{ { ' ` f ;.h.h.P z ~ s.-.1 , - - < / t.u.W.;XaXeX7X(.B.B.z.j.k.) D G A Z n.(.'._.`.).#X;X].(.I.W.'.].'.'.:XhXhXeX|.Y.",
"' U { >.1.e.} h.U.d.A.W.>.x 6 1 R E p 8 9 ; ; N [ u.K.:XhXdX6X).(.R.N.L.f.~ d U D  .L.W.OX>X;X].].#X@X].R.(.-XrXOXOXrXpXsX0X|.a.",
";.Q >.:.-.Q I e._. XY.Z.J ; p l k x l u a ! z Q ;.h.R.@XjXsX%X@X].'.W.R.H.C.<.J.d.U.B.L.].OXOX'.].OX#X#X:X:XuXpXtXtXrX:X0X6XQ.a.",
"C.Q.G.;.{ K s I g.C.<.-.x j ! k v $.-.E v F.p.Q ` h.(.].:XsX=X].+X).].W.J.<.~ A.I.h.r.H.].W.R.).(.R._.$XrXuXjXhXtXpXpX9X=X X(.Y.",
"3X|.p.P d J V Y 2.<.! v $.$.E $.$.&.7.*.8.1XS.-.a } _.8X-X%XXX#X'.P.(.(.J.2.%.g.b.w.w.P.).R.N.V.U.U.'.>XpXpXjXjXtXtXgX8X=X=X%X|.",
"4X|.C.L 2 r S f L k v E j 7 c v &.&.6.*.0.4X3X2.;.-.A..X XXXXX@X).U.K.R.R.Z.1.u.n.G.b.P.U.U.V.V.U.R.#XtXtXpXpXpXrX;X=X0X9X;X0X2X",
"wX}.D.l $ $ - < a p 6 j c 7 g c $.$.*.7.~.,X}.5.|.D.Z.Q.(.[.`.R.(._.T.i.w.{ C ) I.'.W.U.U.P.P.R.W.(.$X$X$X$XtXOXOX].8XhXpXsXfXkX",
"eX}.F.l o X O o 2 7 g $.7.=.$.c c =.*.6.0.,X0.3.,X<X<XD._. X XW._..XY.} e M / ( [ K.U.V.P.R.U.M.B.U.E.oX@X].OX'.@X'.&XuXpXuX0XxX",
"eXXXZ.K $ # o   o : $.7.9.9.b c c $.6.0.<XzX<X~.,XzXzX4X1X3XXXXX|.S.:.W 8 , d ;.K ) #.M.m.L.O.G G o.p.A. X&X:X;X.X%X[.=XuXiXfXxX",
"9X(.H.C - # O O : L 2.b n n n =.3.8.8.0.,X,X<X0.9.9./.^.C.3.<.D.^.5.-.: O + - y u / j.b.m.i.B < - f ' Z.).%X=X X|.`.Y.8XqXeXxXhX",
"#X'.W.( 2 y 1 5 R %.<.$.c c n 8.b =.b 7.<XF.~.0.b c 9.~.4.$.c v 7.6.:.6 . O 1 5 , N ) [ q.s.] 8 < , Y -.Y.{.W.d.A._.Y.XX%X_..X=X",
"T.Z.` z L d J K ` 2 6 k j k h * h g L 2.}.1X^.~.%.-.5.&.*.=.*.=.*.=.6 % O X % K T ] U t d W J { V 1 E S.`.[.(.h.Y._.T.L.W._._.(.",
"h.! l x -.,.w.X.I < < l j 3 o o o > l <.D.3XwXF.R J L k g b 8.b c g : O . o - z ! -.Y t ~ ' Q -.{ E 6.!._.|.Z.Z.(.(.W.(.R.U.I.I.",
"' l 3 L a.G.f.| ) m Z q - + & : > $ 4 %.6.1X2XS.J ; o + 3 @ = * * * O X O o O p x %.P W W ] Y y l L C.2X`.D.C.E.U.U.R.).W.b.I.K.",
"W i 4 u A.Q.Y / A w 9 + . . # % + % E 2.F.6.2.>.P $   . @ o . * * * . O 3 % & > > R ! x i I { [ V L :.C.!.1X7XQ.b.v.B.P.V.U.(.K.",
"{ ` z -.S.F.` t - O O O     O X # d ! Z.Z.<.~ ' l O .     . o & 7 * @ j v 6 g 4 1 l 1 J ] d.m.b.t.] :.C.|.qX*X'.T.I.m.M.b.L.H.n.",
"-.:.:.2.<.<.%.y +     .   X + # 1 :.:.] :.-.Q J z @       X X . % 3 7 v L 5 6 y d % O d p.f.I.W.U.I.r.J.=X0X=X{.@X%XE.W.q.B N a ",
"L p.1.v v %.%.:       O ; $ $ , Q p.1.! :.%.x -.j .       X o X 3 k x k : 5 s y i - $ 1 ` f.W.W.P.L.U.).@X=X8X*X[. XQ.W.H.` 2 1 ",
"u J L L 6 6 p o       X ; C 8 0 d.I.J.R u ~ %.%.4           X O $ % 4 6 p p x 5 1 6 z ~ 1.R.].'.N.P.].8X:X=XaXdX5X|.E.H.d.P l P ",
"d s l 6 3 X @ & o @ . X 1 a < d G.Q W L i Y ` R $ o X . . X   X + o X : R l j L 5 : p -.XX{.&X-X(.).>XpX-X;XfXqX7X6X_.I.q.Q Q P ",
"! x p # % & & g 3 # 4 % 4 i d d ~ L i u 2 f Y R 5 4 j # o > o   X o X $ v %.E j - : j 2.2X2X'._.{.#X+X:XpXuX9XiX%X X XZ.` p.1.%.",
"$.v - - % @ @ h 3 6 ~ R x x W P K ] P s u S I V s i : % # : 1   . O O o 3 3.v 4 : 4 v -.D.}.E.).#X].[.&XrXuXhXnXsX6X|.`.Z.Y.Y.4.",
"4.E j 4 X . @ O * v C.C.%.-.%.p.>.' Z.` , 0 f 8 8 1 X o O $ 4 o X + . o g $.v E k 6 -.A.oX}.(.'.).W.{.@X:XuXhXcXfXeX7X*XXXY.F.^.",
"D.-.z o     o X h 6.}.6.$.&.F.!.Z.>.p.Y - Z _ m q # o % x k 7 # X . o 6 v v v <.C.1.p.A.XX`.`.'.'.].].].{.:X9XsXdXxXdXkXwXwX3X|.",
"<.R 2 X .   . * $.5.S.S.:.:.D.3X!.s.p.] e m N m V d a L 5.7.j >     * b E E ! ! p.2.S.E.K.A._.'.OX+XOX'.(.].&X;X8XxXvXxXeXaX6XY.",
"$.-.a < # o $ ! C.A.W.E.(.!.3XXXZ.g.d.w.m e 9 0 / | ^ J E <.$.k # o @ g v l L 6 E v 1.T._.Y.n.R.).+XOX).].+XOX@XsXdXmXvXkXaXqXC.",
"5.2.u $ , # # a p.J.H.J..X5X2XS.Z.G.-.W 8 < 8 V I [ ` y y d <.&.3 % & @ & : - 2 L -.1.J.`._.k.B.(.).U.V.+X+X].-X0XwXbXbXxXfXiX}.",
"S.s.u $ y 5 q s J Q r.d..X5X.X:.>.a.R l O ; V V y i l 6 6 R x 6 4 7 @ . . X + K { Z.Z.:.s.(.U.N.(.R.#.c.).'.'.[.7XkXkXvXcXnXfX X",
"Y.2.z J R z l s z I U d.A.A.}.a.{ L u 1 > - 5 2 # o 4 v k v 4 + # % + O O o p ~ 2.F.e.Q ~ H.W.B.l.x.j.l.B.M.U.).eXkXkXvXnXnX6X(.",
"E.Z.Q d T 1 # u J V q.I.2.2.S.J.g.! s ; 1 # . 1 - O % k $.v k v v g 1 + + - 0 l j j x l ` R.U.m.X. .+.x.V.B.m.'.uXkXlXkXkXeXeX2X",
"*X`.e.Y T d ; , 9 N u.(..X3XD.J.E.:.L N 0 1 O o : 6 v 5.F.*.v v %.&.4 o X - S d O , s Q r.R.V.y.v.k.o.o.j.b.'.-X_.|.lXxXeXsXfXqX",
"%XOXL.{ V 1 - 9 M 9 Y E. XoX!.XX(.J.e.] K Y Y a i W 2.|.1X6.*.! &.E 2 X   o B N , f V Y i.H.P.k.k.k.o.t.v.f.#X&X_.2XeXdXiXpXgX0X",
"(.R.P.O.r ; - ; 9 8 Q W.K.A.S. X(.U.I.K.X./ O.X.` { ;.g.Y.C.=.%.3.%.6 X X $ 8 ; < S C t I ( [ r.[ y.+.v.(._._.Y.5XdXeXgXpXjXnXpX",
"@XR.U.b.) N 2 ; ; 9 d >.h.H.W.W.U.n.H.P.P.B.B.k.X.{ n.G.C.<.b g c g @ o # 8 m t V J I d W Q z Q e.k.x.V.T.K.J.2.1XxXcXnXjXpXjXpX",
"pXrX).R.m.;.J 2 y T f C ,.n.d.T.I.i.B.x.B.N.N.V.m.u.W.T.1.4 k g 3 O 6 p ; r A S Q P K V :.S.! Q g.(.W.H.{ u.E.S.3XdXhXnXhXrXtXtX",
"pXpX$X'.U.q.K s ' R V B D [ S } L.R.N.#.z.#.O.V.N.P.H.a.%.# @ 4 y d u a , f I a T R z 2.F.`.A.:.`._.).m.q.u.R.`.wXxXcXhXnXhXpXuX",
"pX9X;X{.f.,.( U ' ` Y D 9 ; t D n.W.z.#.#._  .x.V.l.[ Q R 5 X O 2 d f f Q P e.! y i L 6.^.D.Y.g.K.g.E.W.t.i.(.#XaXcXaXfXmXnXnXcX",
":X0X{.E.w.S [ U U O. .A < $ , U q.k.z.c.M.M.c.x.N.l.i.P 2 1 y $ $ 0 U s R :.Y.%.E $.=.0.~.<X|.|.S.>.A.(.m.b.U.#XuXfXaXiXcXnXjXuX",
" X[.J.e.U B q.r.r Z A e r N t I ) O.z.U.W.W.c.l.k.o.m.>.q ; 2 y - V ` ~ 1.S.!.D.3X<X0.^.<X,X3X|.E.W.T.I.R.(.U.(.&X9X*XsXsXgXuX=X",
"Y.;.;.e.q.t.k.t.m e w w M Z D U Z ) u.l.U.U.M.l.l.O.i.H.q.$ o $ ; N D q.K.K.C.1XkX,X,X~.lXkXwX[.'.W.W.T.R.(.H.f.`.;XiX:XiXsX9X6X",
",.{ e.T.i.o.O.| / m < 9 G m m D Z r ' f.B.l.L.R.l.O.L.I.r.J , 0 8 9 e / I.W.Y.5XkXlX~.0.lXkXwX2X_.W.W.W.(.K.d.f.E.qXsXuX0X8X0X X",
"d.} ,.;.q.X.^ B m w ; w M M A ) A 8 f i.m.i.u.m.l.z.W.).d.a.{ D Z Z ^  .i.).@X%XwXzX8.0.wXeX5X2X.X X{.(.I.A.K.(.[. X5X=X X=X*XJ.",
"p.d.d.{ ` { D w e 9 ; < ; 9 A _ G ; , I ] t.h.H.b.B.W.(.(.Q.K.d.^ D ^ U X.R.).`.|.,X0.,X2X.X.X XqXeX.X`.m.g.}.=X{. X7X6X%X`.J.a.",
"e.w.r.Y 8 A r - - - - ; - 9 F G M 9 < P 2.s.J.g.' r.R.).{.`.W.T.u.G.r.s V f.W.J.`.1X1XwX.X3X3XiXiXwX|.`.J.:.C.{.%X3X}.S.J.E.J.r.",
"u.} X.I C M e ; O X # < e F F e 8 , a <.1X|.Y.p.1.e.>.h.).].'.W.R.T.u.N a r.f.w.G._..XqX[. XsXgXhX6X7X7X_.|.|.(.[.!.D.Y.d.J.d.r.",
"e.u.[ /  .H M ; +   X w M F F w 8 $ 2 2.XX|.A.Q.s.1.~ ` '.+XOXI.G.J.Y t a w.t.{ T.).W.[.&X@X-XgXjX9XqXeXqX5X X{..X3XF.J.W.I.U.K.",
">.g.I (  ...G w < O + Z F M A m 8 $ 1 ' `.Y.}.|.C.1.Q >.(.'.'.L.v.G.| ` Q { r.Y e.m.R.).#X#X#XgXnXnX0X*XeXdXwX5X5X3XY.E.`.'.'.d.",
"g.>.K [ | _ A m 8 + - m ) / A m r 0 8 L 1.1.!.S.J.J.,.G.I.'.W.N.k.( ( { K J d w I e.n.].>X@X-XpXpXgXuXrXgXcX7X2XwX5X*X!.A.[.E.e.",
":.Q C / _ D Z e < $ , / w.U B M 9 8 N q.r.Y._.Y.`._.W.).).'.(.V. .G D C K s , , u Y } A.W.(.#XrXpXhXsX;X9X5X7XeXeX8X{.Z.Y.(.Q.`.",
"1.G.n.| _ / ^ G e m G O.y.{ / M r / y.B.E.]._.T.Y.(.W.W.'.).W.P._ Z / a d 5 $ , - a L L :.(.@X-XgXsX8X=X*X|.D.7XhXsXXXS.Z.E.Y.Z.",
"g.s.r.f.t.u.} ) A _ ..O.+.X.G m _ O.R.).].).L.i.L.U.(.W.).'.R.l. .D | V 0 q $ $ $ u :.%.~ T.=X9X9XiX:X0X%X_.A. X0XaXeXqXQ.A.g.:.",
"g.} ,.' U u.q.S ) l.l.M.O._  .y.k.v.U.R.).(.P.R.R.W.].(.U.R.R.c.@. ./ A Z , # i d ` ;.s.D.Y._.`.Y._.-XtX+X'.OX;XaX0XgXfX*X`.J.>.",
"r.| ^ / ,.L.o.^ w.R.U.k. .G o.U.U.).R.N.R.(.W.W.'.+X].R.U.R.(.W.z.H G / A - O u Q n.r.A.2X3X.XW.v.L.].+X).).'.#X-X0XsXsX=X_.`.K.",
"U.b.y.X.e.i.b.| S L.b.+... .i.x.W.(.W.P.V.(.].).'.'.(.U.R.W.'.).U.#.y.i.M - # y ~ W.).(.(.*X8X'.U.b.H.(.'.W.W.OXtX:XiXhX;XOX).(.",
"R.b.u.f.h.w.X.U U j.+.@.@.+.+.b.W.R.W.R.U.).+XyX+XW.R.U.).].W.).].R.R.L.D + , ` a.W.`.Y.W.(.T.R.i. . .b.W.R.R.(.OXOXsXnXhX9X{.'.",
"(.r.s.I.R.v.f.^ ^ +.+.@.#.z.z.V.U.R.P.U.R.).+X+X+X$X).).OX'.U.(.).).].T.X.T V u.R.Y.2.` -.h.i.u.O.y.M.M.+.k.l.M.L.].iXhXcXhXaX=X",
"|.Z.A.(.R.B.U.f.) +.@.+.M.V.N.N.N.P.V.V.U.W.'.OXyXyX+X'.].'.R.W.n.L.K.B.d.' Y f.(.|.C.Q Q ' u.w.X.k.M.k.@.) j.f.W.+X#X0XvXmXvXdX",
"3XY.G.T.W.r.X.i._ +.#.c.z.z.N.N.x.R.(.U.l.U.W.OXyXOX>X$X].#XOX).a.>.W { ` ` ' n.W.`.S.J.g.] { ~ ] k.k.t.| G o.w.H.(.:X0XxXbXkXwX",
"}.}.g.r.f.u.| G  ._ H @.@. .#.k.t.P.).I. .j.P.(.OX+X>X$XOX@X@X{.(.Y.h.X.) X.H.@X&X6X.X_.A.-.L l K O.+.O.o.D X.G.n.L.%XaXeXdX4X4X",
"[.Q.-.' ` ] u.C t A m A F A G ) U O.B.W.X.v.R.(.].].OXOX]._.|._.W.R.U.B.M.V.'.OX'.[.%X}.6.E $.! Y u.b.U.n.r.H.L.R._..XiX9X8X5X2X"
};
