/* XPM */
static char *de2fc60df2ce4f1ff5eee6288927f528tOunhkHeYNHz0Xev[] = {
/* columns rows colors chars-per-pixel */
"64 64 158 2 ",
"   c #593134",
".  c #5D3839",
"X  c #603539",
"o  c #643C3D",
"O  c #6C3F3F",
"+  c #66403F",
"@  c #673F40",
"#  c #6B3F40",
"$  c #654342",
"%  c #6B4444",
"&  c #654845",
"*  c #6C4946",
"=  c #6E4C49",
"-  c #734546",
";  c #7C4447",
":  c #734847",
">  c #734748",
",  c #7A4749",
"<  c #734D4B",
"1  c #7A4D4C",
"2  c #75514E",
"3  c #7A514F",
"4  c #7E4F50",
"5  c #775350",
"6  c #7C5451",
"7  c #7E5855",
"8  c #7B6456",
"9  c #7F6759",
"0  c #7F6859",
"q  c #814D4E",
"w  c #83504F",
"e  c #834F50",
"r  c #835553",
"t  c #895655",
"y  c #845956",
"u  c #895957",
"i  c #865B58",
"p  c #8C5C59",
"a  c #915756",
"s  c #935957",
"d  c #925D5C",
"f  c #86605B",
"g  c #8D605D",
"h  c #846B5C",
"j  c #896D5E",
"k  c #94615E",
"l  c #99615F",
"z  c #876F60",
"x  c #8C6F60",
"c  c #956360",
"v  c #9A6361",
"b  c #857363",
"n  c #8C7262",
"m  c #8E7C6B",
"M  c #927665",
"N  c #927965",
"B  c #977768",
"V  c #927D6C",
"C  c #9B7C6B",
"Z  c #A46967",
"A  c #A96E6B",
"S  c #94816E",
"D  c #9B826D",
"F  c #958271",
"G  c #9B8473",
"H  c #A28672",
"J  c #A28973",
"K  c #A88C76",
"L  c #A58D79",
"P  c #AE8E7A",
"I  c #B58F7C",
"U  c #BA8E7B",
"Y  c #A0947C",
"T  c #AD927A",
"R  c #AE987E",
"E  c #B2907C",
"W  c #B3947E",
"Q  c #AB9A8A",
"!  c #B69781",
"~  c #BB9682",
"^  c #B59982",
"/  c #BC9B84",
"(  c #B39F95",
")  c #B6A58B",
"_  c #B6A38C",
"`  c #B5A193",
"'  c #B4A195",
"]  c #B7A095",
"[  c #B6A394",
"{  c #B5A196",
"}  c #B5A397",
"|  c #B6A397",
" . c #B6A495",
".. c #B5A497",
"X. c #B5A496",
"o. c #B9A393",
"O. c #B9A395",
"+. c #B8A397",
"@. c #B9A595",
"#. c #BAA494",
"$. c #BBA596",
"%. c #BCA496",
"&. c #BEA696",
"*. c #BBA695",
"=. c #BDA996",
"-. c #B5A198",
";. c #B6A598",
":. c #BAA29A",
">. c #B9A49B",
",. c #BAA59A",
"<. c #BDA699",
"1. c #BEA799",
"2. c #BEA69A",
"3. c #BBA79D",
"4. c #B8A49E",
"5. c #BDA79D",
"6. c #BAA799",
"7. c #B7A899",
"8. c #BDA99A",
"9. c #BDA89C",
"0. c #BFA89D",
"q. c #BCAA9B",
"w. c #BDA5A0",
"e. c #BCA7A1",
"r. c #BDA9A0",
"t. c #C09682",
"y. c #C19985",
"u. c #C39E89",
"i. c #C7A08C",
"p. c #C9A18D",
"a. c #CAA593",
"s. c #C1A79B",
"d. c #C0A79C",
"f. c #C3A79F",
"g. c #C2A899",
"h. c #C0A89A",
"j. c #C3A99A",
"k. c #C0A89C",
"l. c #C2A99C",
"z. c #C3AB9D",
"x. c #C1A89E",
"c. c #C0AA9F",
"v. c #C5AA9E",
"b. c #C6AB9F",
"n. c #C2AC9D",
"m. c #C1B29A",
"M. c #C3AAA1",
"N. c #C4AAA0",
"B. c #C4AAA1",
"V. c #C6ABA1",
"C. c #C4A8A2",
"Z. c #C3A8A4",
"A. c #C3A9A4",
"S. c #C4ABA5",
"D. c #C7ABA5",
"F. c #C0ACA0",
"G. c #D5BFAA",
"H. c #D1C0A7",
/* pixels */
"G.] &.b.A.S.S.w.d.o.>.c.0.#.c.d.o. . .] g.b.-.1.B.5.8.M.c.1.+.+.&.#.0.] +.B.c.>.] #.4.B.:.A.1.` ] ] ( ] s.B.w.5.c.Q  .5.g.g.` ) ",
"U ; r u t s t w q 1 r r 1 1 w - 1 : : : 1 1 : 6 3 1 r 6 w : : : 1 : * $ q r : : 6 t w u a r - % % + % 3 a t : : % * 3 3 w - - B ",
"E t k k k g p y r p d 6 7 y 6 6 k p p p p 7 y c i g g 7 r y 6 y p y 6 r p p r p v d k d d p i 6 3 6 6 g p r p i r p y p r r p B ",
"t.t p p d p 6 2 6 p 3 < < < < 7 p p p d r 6 p y y p 6 < 2 < y i r t p u y 6 r d p p y p y p r = 6 r p y r u p p u r 1 r 6 3 : n ",
"p.r y k d p 2 6 5 6 < * 3 y 6 i u u u u 6 i y 6 6 6 3 3 2 y y 3 r 6 r 3 r r u p p p y p y r r 6 r r u r p v k u r 3 r 3 < < < C ",
"/ u A v p 6 6 3 r r 1 r d u y p 6 6 u r r y y 2 r y r 2 < 7 5 3 < < 3 3 r t p v c g g d y y y u t r r p v v d r 5 < 6 1 r r r H ",
"a.d c y y r u r u 3 6 u r 6 r r t p p t t d u 1 6 y r 6 y i u r 3 r r t u u p p u k d y 6 6 r r r r y p p y 3 6 < : 1 r r p r C ",
"i.r i y y p p u 1 r r 6 < < = 5 r u r p u p r u k 6 5 y p p p p d r r p u u p r d v p 3 5 p p p d d y 3 2 6 1 r % < u u u k r C ",
"/ 6 p p i u p < 5 7 6 2 < 2 5 6 6 6 6 y 6 6 r u d 3 6 p p p i p y 6 p y p u u d v d t u y d r p p d r 6 6 1 r t r r y p p p 6 B ",
"/ 6 k d p y r 5 5 6 2 2 5 6 y 6 2 6 r 3 2 6 6 d r 3 y p i d d p r 6 6 y r r d v d r t r y y r u r 6 p y 5 3 r u d p d u u k 6 N ",
"~ 1 d d d 3 5 < & < 5 5 2 5 5 2 r p y 6 r u u r 6 6 d p i p y p p r r r 3 u r y u r t p y 6 r 5 u r 5 * < < 6 p p r u r r p t C ",
"u.e d r 6 2 2 & = < 2 5 2 = 2 2 r t r r u d 3 < 1 6 u d p p p u p r 2 < r u u d p r p p 7 6 3 2 5 < < & & 6 d d r 1 1 3 p d u B ",
"W 1 p 6 6 6 < = < < = 6 5 < 7 6 6 r u p p p r 6 r p y y y u r r u r r u y r u y 5 r p p r < : 6 2 < 3 2 2 y r y 3 < r y r r 6 N ",
"I e p 3 6 5 < < 6 6 6 7 2 6 y 7 y r d 6 p p u p p r r y y p u r t r y p r : r y p p p y = < r y 5 6 6 6 6 r r 6 5 r p y 3 6 < n ",
"~ q r 3 7 6 2 y 7 2 3 y y y 6 < 3 r t p r r d r 3 r p p p d d u y i r < < 1 y p p u u 1 < 6 r 7 7 2 r 5 r u r d u p r 1 6 p r B ",
"~ t p p i 6 7 6 * = = i i 6 = = 1 3 p p 6 6 r 6 r p p p p d p p p r < < 1 3 p p 6 5 6 5 7 6 6 6 6 r 6 7 p p k d p r u 2 p i 6 N ",
"u.d k v r r 2 & & = 6 i 6 2 6 2 < 6 y < = < 6 2 r p p y i p d p r 3 & < r r 6 3 6 p 5 2 y 2 6 7 y 6 5 r r d r p u r d 6 y p y B ",
"u.t p 6 1 5 < = < 6 5 < 2 5 = < r r r 2 2 2 < 6 6 y r y r p p 6 3 % < 5 r 6 6 y p 3 < y y = y y 5 = 2 3 6 r r p r d 3 2 2 y 6 B ",
"W : r t < < 2 6 6 6 2 y i 6 2 < 3 3 3 3 3 3 r y 6 r p p r u y y < < r t p u p p r 3 y i 7 2 y 2 = 5 6 5 6 6 r r r 1 r r 7 y 1 N ",
"P 1 d 1 : < 6 y 6 7 i 6 5 5 = < y < = r y r r p y u k i r d v u 3 3 r y y r 6 p r 5 3 i y r 6 = 2 6 5 3 < 3 6 r r < y y y p r n ",
"~ r 3 : 3 6 6 5 5 5 3 < 5 2 r u 6 * 6 k v r p c u p i 5 u l p 3 1 1 r 5 6 < r p 2 2 u p i r 2 < 6 6 < 2 r y r 1 r p r y y r e C ",
"~ - : 6 6 r 6 < * < r r u p r 5 = < y g d d d p u p p 2 y i < : : 6 5 2 < < 6 y 2 i k p 5 2 2 < r 3 3 r r r 6 6 p t t d p 6 r n ",
"W 1 p r t p r < < r r r d u 2 7 6 r p p v d r u u p k 3 y r 3 5 2 2 2 = 5 r r 6 p p 2 < = 2 3 6 r < 2 6 r p p u u r d v u < 1 N ",
"W : r u u r r 1 r p 7 y u r 6 y y d p p p u y y p y 6 6 i i i r < 5 < 3 y r 6 y p < & & 3 2 3 6 6 2 i y p d r u d k k 3 * < 1 B ",
"/ 6 y y p u d u p p y y 3 r r 6 y p d d d d u u d y 6 p y p 3 < < = < r r 3 < y < % = r r 2 6 6 6 p p 3 y r d p p p 2 & 3 6 : N ",
"W < 6 y u u y r d p 6 6 r r r r p p d p v u r p p r y y r 3 * 2 < & 2 6 < < 2 3 = < p r 6 6 y y y i 6 3 6 d c p d 5 < 6 y 6 < n ",
"E < r y d p r d u 3 y y y 6 6 d v p r p d 3 p g 6 y p 6 6 2 2 5 2 < < < = 6 6 5 < r y 3 r y y r r 6 6 2 p v 7 5 r 5 6 6 3 y 1 n ",
"! 6 d p k y p t 1 t p y r 6 u d k p k r u p Z d p d p y i < < 6 6 % % < 2 6 r r 6 r y y g p y r r r 2 3 p r = 7 6 r 7 3 3 3 : B ",
"y.r y r r u r 3 5 r u y 6 5 y g p v v p d k p r r p r r r < 3 y < & < 6 r y 6 < 5 p y y y 6 6 6 r 3 < y y 3 6 6 < 2 3 < r r 1 N ",
"~ 1 y 6 r r t r y r r 6 y 6 i i i p u y p p 6 u 6 6 < r 5 5 i 6 2 r p y 6 5 2 5 y p i p 2 5 2 < < 5 6 r 6 < 3 r 3 2 = r y y r N ",
"I 1 = % - q - # 1 - % 1 % * : - 1 1 1 1 q 1 1 - - . - q % - % $ $ % % @ % - < * : = * * % $ % - % - * % * $ % : % $ $ * - * % 8 ",
") m S V S G G F F V G G V F m G G G G F G V S V V S G G V F F b b F V V S L F V m F F V V V V G V S F F m F F V F S V m m F V Y ",
"#.=.8.0.;.r.0.&.8.8. .>.8.n.n.c.n.3.&.F.3. .=.z.#.8.8._ =.n.c.m.H.] 8.8.z. .8.7.8.3.>.#. .*.n.8.=.>. .3.c.c.z.3..... .3.>.0.q.0.",
": > q : - % o % 1 - - - q e - q e : 1 O - % # - # % # o , -   N J X : % o o $ : r 1 q - o - 1 - % % % * 1 q $ $ o o * 1 1 1 1 * ",
"6 p p p y = r p y y p p g y 6 c v 6 6 y u 3 6 y < 6 y p c y 1 H ^ < g 6 y p g c y g i & 2 p 6 6 y y p y p p 7 6 2 6 y i p p y 6 ",
"5 y p u < 3 p r u r t p p d p u r < 2 5 3 y y 3 < 5 r 6 d y 1 H W < y 6 g c v p 6 i 6 < 5 6 2 r 6 2 2 6 r 6 6 6 = 2 r p p r 2 5 ",
"7 p u r r u r d p p d d u r r p p r r 3 r y 2 2 5 6 6 y r < : K ^ 1 y p g p p 6 7 i r * = 6 5 5 2 3 r r y 6 y 2 2 6 p p r 3 5 r ",
"r y r r 3 u p d 6 r d r r u p d u u r r r 7 < 2 3 y i i 6 2 : H / 1 y p p u 6 6 7 2 < = r i 7 2 6 6 6 p p p i < 3 7 y i 6 r r 6 ",
"u p 6 < 6 p y 6 3 u p r p k p u 6 r < r y y 5 < < i 6 2 & < : D ~ > y i p 6 r 6 < < < y u 6 y 6 r 2 2 p p y 7 5 y 6 i i 6 y < 3 ",
"k p 2 < 6 6 < 5 u d d p k d p t 3 r r 3 r r < 2 5 6 3 < < 2 = H / 1 c p d r y 2 < 6 y p = < 2 6 3 5 i g p 7 = 6 6 7 c i y r < i ",
"y 5 r 2 < 5 r 6 r u y p p v y 3 6 r r 3 y r r 6 2 6 6 6 7 y 1 H ^ 1 k y 6 3 2 5 6 6 p 3 < 3 y y y i i y i 7 7 6 y c k y p 5 y p ",
"6 6 r 3 3 6 p r r d u y d d 6 u r 3 r r y u r 6 6 6 6 i p k 6 J / 1 p r 2 3 < 2 < r 3 : < 5 y y p p r 7 i 7 y p y g i 6 7 y i y ",
"y r 6 < & 2 r 3 p d d p k u r p < = = 6 u d p r 6 y y p p i 4 J T * u < 3 6 2 3 6 y 2 3 3 < 6 7 y r y i p 6 6 k i i p 6 6 5 6 5 ",
"6 6 5 : : 3 3 u p k d d p u y 6 < = < 6 y p r r r p d y p g > D W > < < 6 6 2 y p 6 < < 3 r y p g y p 7 6 r i y y g p 6 5 6 6 3 ",
"6 r r * : 6 6 p u d r y p y 2 < 1 2 7 7 6 u r 6 y u u y p y 1 D / 1 p p r 6 y p r 6 2 3 u p d v i 6 i y 6 6 5 7 i i 6 6 r r 6 r ",
"3 r 3 $ 6 2 5 y p u r r p y 6 < < 2 2 6 6 d p p p r r u u u 1 D / 1 k u y 6 p u 2 6 7 p y r u d y y d r 3 7 y y 7 7 7 5 r r r 6 ",
"r r < 1 r 5 r i r 3 u y i g r < 2 2 5 7 3 y p r r < p k p y 1 H ~ t y 2 y 6 y 6 6 r 2 r 5 = 3 p y u u r 6 y u y 6 y y 5 p 6 5 < ",
"6 6 3 2 r y y p 6 y g i p i < < < y p < = 3 : : 3 u d c p y q H i.1 3 3 6 6 6 5 r 6 < 5 < : d v d k p p r d p u y p 6 3 6 6 6 3 ",
"3 2 < 3 6 2 y p y i i 5 y 7 6 6 6 7 2 * 2 * 3 r p v k d 6 r q D W % r u y 6 6 < 3 6 6 6 6 u p d l d y d r d 5 r y 3 6 r y y r r ",
"2 < r y 2 y y d y 6 6 6 6 7 p 6 < < 6 < < 2 y p l l d u r y 1 G ^ # 6 d p r 2 < 3 y 5 5 5 6 p p d r r r 6 3 3 r 6 r y 6 < r 6 r ",
"r 6 y y 6 6 y p p r d p 7 g y < < u r 1 1 r u r d d p r u r > S ~ - p d y 6 2 6 6 6 y 2 6 i y y p r r p r r u r r p 6 < 6 p r r ",
"r r r 1 < 2 6 y p r p y p k r r 6 u r r 6 u 6 p c d u 6 3 6 % D ^ : d r r y 2 5 6 y r 3 y 6 3 5 3 < 6 r r 5 3 r 6 r 6 6 y i 6 6 ",
"< r < 1 r r y y 6 2 y 7 p r r 1 < u r r r 6 r v k p r : r r % S ! - 3 5 y r < 3 6 d t 6 6 < 6 6 r r 3 t u < 6 r 7 7 y r y 6 r r ",
"< 6 r r r d k r 6 d y 6 3 p r 1 r u r 2 5 r p c p 6 1 u r 6 $ m / * i i y 1 6 6 6 p d y 6 3 r p u r r r r 6 i y y 6 r 5 r u y 5 ",
"r r p r y k y < d d u 3 r p r 6 6 r 6 5 6 y p r < < y y r 2 - J ^ - y 6 2 3 r u p d u < 6 r r 6 3 r u y y p p 6 r 6 5 7 u p y 1 ",
"< r y 6 p u r r t r p r r u r 3 r y u p y 2 2 < * < 6 2 : 7 r D ^ > 6 2 3 y p d p d < * 3 3 r 6 t d u p d p 6 r r 6 r r u k y 6 ",
"6 u 3 y r r r p r p r 3 < 6 3 r t r y r 6 2 6 2 2 2 2 < 3 g $ V W % 2 2 r 7 6 5 r 3 % 6 6 r p 3 r r r r t 3 < 1 t 6 2 2 y p 7 < ",
"y y r y 1 r p r 6 r r 3 < < 6 6 6 r r < < 6 r 2 < 2 6 y i y $ D R * 6 < 5 < < 5 < : < u 6 6 1 6 r r r 1 3 r 2 2 u 3 < r c p r 3 ",
"3 < 3 3 6 3 r < 3 r 3 3 : < 3 6 r p r 1 6 y y < 6 5 2 i 3 5 $ D T % r < 2 5 2 2 < 3 i p r r p p y y 6 3 r p 2 6 r 1 r c p r t r ",
": : r r y r 3 2 r r 6 : 1 3 3 7 y y r r 6 y < = 6 r 6 r < r $ S W < r 1 5 2 3 1 w r 7 p k p p r r 6 3 < y 6 = r 3 3 u y 2 < 1 < ",
"3 p r u u r 6 2 3 r < < r r 6 y 5 3 t 6 6 < & 2 6 3 r r r 5 < G ^ * 3 2 < 6 r 3 r g 7 7 y 5 r p r p r 1 r 1 6 p u 6 t p 6 3 1 1 ",
"p t r r 3 3 r 3 6 : 1 r u 6 6 y 6 y p r 2 & y i y 6 r r y f : D W * r = 3 r < r u y 6 5 6 6 r u r u 6 6 r r y k r 3 p y 6 6 r r ",
"r 1 r q - 1 q 1 : * e 1 : * : 1 1 : : * * * : r = : 1 1 6 < o C L o < % < 1 r r 1 3 < r 6 < r r : : 1 : 1 r r r * % < : : 1 : r ",
"j h h h 9 n n n 9 h h h h h h h h 8 8 h j 9 h h 8 h h h h 9 8 J R 8 h 9 h h h j j h z x h n x n 9 9 h h j j M j h h h h h h h j "
};
