/* XPM */
static char *b5b11592cb1e4484fac7d7f874d724b47Jxa1UM6um17lKnS[] = {
/* columns rows colors chars-per-pixel */
"64 64 148 2 ",
"   c #3E2A1E",
".  c #453123",
"X  c #4C3525",
"o  c #4F3827",
"O  c #443128",
"+  c #4D3629",
"@  c #4E392B",
"#  c #523726",
"$  c #533926",
"%  c #513729",
"&  c #543C2B",
"*  c #5A3E2C",
"=  c #543F30",
"-  c #593F31",
";  c #613E2B",
":  c #56402E",
">  c #5C412E",
",  c #564231",
"<  c #5D4432",
"1  c #5E4935",
"2  c #5D4538",
"3  c #5D4A3A",
"4  c #62432E",
"5  c #68452F",
"6  c #62482F",
"7  c #644735",
"8  c #624632",
"9  c #694632",
"0  c #624833",
"q  c #644833",
"w  c #654933",
"e  c #674B33",
"r  c #604834",
"t  c #614835",
"y  c #614935",
"u  c #624834",
"i  c #624935",
"p  c #614B34",
"a  c #624936",
"s  c #654834",
"d  c #654934",
"f  c #644935",
"g  c #664934",
"h  c #664935",
"j  c #674935",
"k  c #674A34",
"l  c #664B35",
"z  c #654A36",
"x  c #644B37",
"c  c #664B36",
"v  c #674B36",
"b  c #664A37",
"n  c #674C35",
"m  c #674C36",
"M  c #644935",
"N  c #684A34",
"B  c #694A34",
"V  c #684B34",
"C  c #6A4B35",
"Z  c #6D4A35",
"A  c #684C35",
"S  c #6B4C35",
"D  c #694C37",
"F  c #6B4C37",
"G  c #694E37",
"H  c #6D4D34",
"J  c #6D4F37",
"K  c #6F4F37",
"L  c #6A4B35",
"P  c #62463A",
"I  c #634B38",
"U  c #624A39",
"Y  c #614A3A",
"T  c #664939",
"R  c #654A38",
"E  c #674A38",
"W  c #664E38",
"Q  c #654C3A",
"!  c #674F3D",
"~  c #654C39",
"^  c #684A38",
"/  c #684B39",
"(  c #6A4C38",
")  c #6B4C38",
"_  c #6A4D38",
"`  c #684E39",
"'  c #684C3A",
"]  c #694D3B",
"[  c #6A4D3B",
"{  c #684E3A",
"}  c #684F3A",
"|  c #6A4E3A",
" . c #6A4F3A",
".. c #6B4F3A",
"X. c #6C4D39",
"o. c #6C4E39",
"O. c #6C4F39",
"+. c #6E4F3B",
"@. c #6A4D3C",
"#. c #6A4E39",
"$. c #714E35",
"%. c #744E38",
"&. c #704F39",
"*. c #6E5037",
"=. c #67503B",
"-. c #66503E",
";. c #6B503B",
":. c #6D5039",
">. c #6B523D",
",. c #6E513C",
"<. c #6D523D",
"1. c #6F533D",
"2. c #6C523E",
"3. c #6F543D",
"4. c #6F553F",
"5. c #6F563E",
"6. c #6C513C",
"7. c #755137",
"8. c #70523B",
"9. c #76533E",
"0. c #73563E",
"q. c #75563F",
"w. c #72533C",
"e. c #79533A",
"r. c #7A553F",
"t. c #79543B",
"y. c #74593F",
"u. c #5F5140",
"i. c #665242",
"p. c #685140",
"a. c #6C5441",
"s. c #6D5842",
"d. c #6C594A",
"f. c #765742",
"g. c #735641",
"h. c #795640",
"j. c #735A42",
"k. c #765940",
"l. c #745942",
"z. c #755943",
"x. c #7B5A43",
"c. c #795F45",
"v. c #795A43",
"b. c #755D48",
"n. c #756049",
"m. c #7D634B",
"M. c #85664E",
"N. c #80634C",
/* pixels */
":.# > b @ 8 * 8 q.8 O.& < c.n * $ <.;.+ < b j.c.& 8 #.b #.8 : # H < @ * R < 1 #.@ : > n w.;.4 > : < g.G & < < r.9.. : : : Q > < ",
"& & > : < 8 : < < 8 & & p.< O.1 : 8 <.^ > 8 1 M 8 < 8 G #.C <.& H & M b R 8 < < < M G #.8.8 8 & 8 < #.* < #.G 7 7 < 8 $ & 4 8 & ",
"1 < > & b < Y 8 1 1 1 < < : < < & : < < < 4.* & , < g < 8 < M C b C H > 8 M $ < 8 , 8 < & & < b #.0 8 8 C 4 . : $ < 1 * * 8 8 : ",
": > b q < < 8 O.O.@.< , < > o > 8 ^ & # b ;.+ * : < g < Y : 8 #.* & M.4.g l.& : 4 : < > < : & Y 1 M b > < < < 1 4 4 8 e.b 8 8 b ",
"M 8 1 8 1 1 < : G 8 & : < 8 < > < q %.C ! < 4 + $ Z 1 b b > : : < 8 ^ & l.v.> * X g <.R #.#.< < Q b M 8 > < #.& * 4 8 $ : 4 8 4.",
": & : 8 M < 0 : & g 0 q : 8 @.& & + q #.< < 7 : > H 0 < #.< b > < & X Y 2 + : 8 : & g 8 & n b < 1 b > = 0 8 < # X 5 1 $ & < < 1 ",
"w.= < #.> b G 8 $ : : < > < 1 , R & > 4 & & R v.4 q b Q Q < b < 8 * < R 1 & 1 < < & & <.< & < 8 #.:.G 8 < < & < > @ G q < 4 < 8 ",
"4 ;.-.@ < < M 8 8 :.@.#.& < 8 < & * b > < - 8 7 $ < < & g.O.8 : : 8 * 8 0 & < * 8 < & 8 * & ;.n < 8 ! ;.& > < @.b < < ;.: g > 8 ",
"& 8 1 X : <.1 & < b b <.& > 8 a.1 & < < b q * a.H < Q Q 8.4 < > b < : < : 8 C > 8 < M G q C M 8 < 8 1 @ b <.8 0 < * #.& > q > Q ",
"+ 8 #.8 * O.8 & 8 &.4 $ #.< < q b +.< > 8 8 < M Y : M 8 : q * o #.& M q $ & < 8 8 > <.#.b Y # > < < > 1 b w.n b 8 7 : @ 8 :.8 b ",
"6 8 > * M * #.M & < & : Y <.Y 3 * + > & 8 8 <.& a.r.#.q.* > G 7 > < & < 4 > < 4 > b < b & 4 Z 0 & 1 < * < 8 & 1 < #.G 8 < 0 G < ",
"b 8.* n 1 < b R 2 & $ < b 7 b 8 7 * 4 1 M < 8 Y p.I i.a.& $ : & : 8 * & 8 * < H : b @ M < & <.&.> & 8 R Q 8 8 1 < w.< #.R & <.M ",
"#.* > N.;.8 : < q * 6 7 & > < < b v.> & 1 8 8 ;.< : M B 4 b . & 9.: < > * #.<.g.< > + : 1 8 b * > < b < 0 * g.Q 8 < & & ;.< #.G ",
"n > n M & < < R & * #.$ * < > G R 7 $ M :.8 < , M x.> * > < $ <.H C $ 8 0 < > & C 8 & M #.* X & C q & b > ;.8 : w.< > * 8 & 1 g.",
"Q 8 * & Y 1 1 M $ & R 8 : & 8 :.> a.C q + X 0 ;.< Q b > b R > G b 8 q.8 :.Q 4 #.#.G q.b 8 8 < 1 8 & * q.G +.n * < 8 * & $ & #.G ",
"7 4 Y $ Q I , M 8 R #.* < 8 * # b M Y < 8 < b M 8 8 8 > O.$ > , n 8.H $ < ^ :.:.Y & < < < < ;.O.b <.@.&.9 : #.* : < & , M #.;.: ",
"8 #.@ > b < & b * $ * 4 b & : & 4.& a.h.<.< & & 8 8 < 1 C * g < @ 9 Z & & @ < & < M Q l.: : M : Q O.M v.> o * C & < n & < 8 b * ",
"> * $ < > B > Q M < > 7 : > Q < > I a.Q d.u.X : > M 8 M n * @ I :.h.8.$ 8 * 3 & 8 < M 8 : 8 O.8 & 4 < M * 8 * & < + 8 & & 8 0 & ",
":   :.q < > & 8 < R * : * g : 8 & < < G Q Z ; * 8 # * :.n & n g & & & 8 g $ < , 8 & : G q < * 8.& > < : &.b 9 6 &.9 < 8 O.: ;.O.",
"# < g.q C * & & > * > 1 C H 8 8 8 & * > < * * b . > G < 8 H * 4 + M * > 8 & & & < 1 * M q < , ;.& g q 8 < > &.O.< 4 8 :.b & < 8 ",
"* 4 #.> q.M > < < > * 8.b l.C : $ : #.#.b * q Q * < #.< > Q & 8 R & q 4 4 4 : : q M > * 8 * R < & q.w.: < 8 & & < < : n 8.g G <.",
"8 & 1 H q.4 * : : 8 : ;.* G : : & 8 M Q 8 * g.;.: & 1 M > n 7.#.d.+ $ 9 P & & < b > > 8.n & < < b #.9 & & 8 < < 8 > & 8 R < > 8 ",
"M M & $ e.* * > * n * M 8 & < & * ^ #.< H #.8 : #.> & $ 8 8 : 1 d.8 # * G * @ * < b B M 1 < < < R Q # < , > 7 b : 8 & 8 8 8 > $ ",
"4 * 4.:.v.< & > & < O.< C # 1 & & & : < > R #.& , < * 8 < 1 * > > 4 7 # < & g * & b $ , < : > 8 & #.< M 8 : & < & 0 8 8 & < 8 g ",
"8.8 : & * * Q * $ M n <.4 4 8 * > & < & > G <.& 0 ;.> * #.C : 8 & > G < @ : O.< =.#.< 8 < * 0 8 < v.8.#.& + & $ > & : + > 8 q :.",
"< < & , g $ M q Z : g #.H Z v.* & < < 8 H < < H b 1 Z G < > - C 4 & > : M N.* Q w.<.< * : 0 #.& & #.< 8 b & < : ; 8 & & < & : # ",
"& * 4 < > q > 6 B 8 & > < ! C > M Q ! Q < 1 3 Q & $ : : 8 * & * 4 b * M & 8 8 b 8 : q 1 & : Q & * M <.> > & & 8 < q 8.#.O.& : % ",
"3 - @ < X * ^ - X + : < < < @ * :.8 R ! # ;.;.< 7.B : : 8 : > : & : 8 < 8 < < < H 0 < <.< 4 : * & < 8 Y < * * * <.#.b 1 #.< 8 * ",
"a.g.& M & * 4 n # * 0 M < < < & & & H 8 & < 8 $ G 8.O.1 $ M b $ < * : < < 1 :.> * < & #.O.> < ;.< $ < C * < C 8 M > Q #.> b 8 < ",
"c.z.M 8 8 * & < > b #.q b & b $ b ! , : : b O.C & > <.< * : < * : < = 8 * < b > : < M < 8 #.G <.R < * 8 #.: : < z.G & 4 : & $ 8 ",
"R ;.* * * : + & 8 < < 8 -.& & < ;.m.0 7 C b q.@.< 8 < + 4 q * e.O.R #.: & < 8 * : #.#.& * < 8 8 b > # * * $ 8 R ;.;.& # X * q H ",
"M ;.M b * > & N.#.< M & 8 4.< * < < e < Q g b > < * * > < M 8 # & & o 0 < > 0 : < < < & 8 < : b > : G :   O.C < < Y : g b g b 7 ",
"4 b 4 $ 8 & 8 < G 7 : * : < & & & $ & < 8 M 8 O.b : < b < 8 : & & ! : M M * 8 b < 8 < g ;.& : < & : Q > < g.q 8 * H @ 9.:.: Q < ",
"$ & & +.q & 8 R < : > & : $ M : #.b q & : 4 8 ;.a.: M x < q 8 > * < * & 4.< * * 8 b q $ ;.<.<.b < & M q 4 ;.> 8.Q M Q 8 q < < 1 ",
": Q 4.8 8.b * * > & < & 1 #.;.8.z.q.#.R > 8 #.& @ : b M #.M : b b & & 8 Y * . < : w.9.$ 8 Q #.C * $ * < , 1 H q.4 < M M # q b : ",
"8 < 1 $ & #.* < 8 q #.< 8 : G g a.1 8 8 < < M : : b g ;.8 8 8 : > 8 < & ! <.8 < q M 8 g : : Q b 8 C b O.M & $ e.* . + + 8 ;.$ < ",
"8 Q < b 8 > * , $ q 8 C b n b n <.Y > < : : < & * < 8 C #.4 * b M < b 8 b M > < 8 < 1 < * : < $ 4.8 & M < ;.8.v.< $ 8 X Y <.8 b ",
"8 b < Y 8 & M 8 * Z : M #.b 8.a.: #.8 ^ * 8 <.R 8 * 8 b 8 * < < * & g R & > & < #.* ! Y 7 H & < * < < < C : & * * n * : : 8 b g ",
"I M > & < & #.8 < $ > 8 & b #.#.b <.v.& R G & & & Y 4 M : b < & $ < & < * : 8 * Q < 8 & 6 g < < $ M 8 > q & & g $ M b O.: & + $ ",
"& < & * : & b < 8 & 8 b 4 $ 8 O.: M v.G < b q + o < &.8 b > & < & Q 8 < Y 8 > b < & < 8 < . < & & Q M * & <.< > q > 6 g 1 < & , ",
"> < : < q.O.< > l.< < < 4 ; 8 < < & $ G q & #.* : : $ < b & + < ! & 8 8 3 g M & & & $ &.g * G : : & 8 * % M & X ; ) = > 8 : * < ",
"1 * v.< > Z < C M R . < ;.& $ & & Y :.6 > & C 8 1 8 < 8 < G #.> : & & b R #.$ + < 8.C #.8 g B 8 b & 8 * & & . # * q q $ 4 G & < ",
"< #.G 8 1 q > # 4 <.$ 8 : + * < M 8 m.-.M 8 9 g < n G & : 1 b < > * @ @ < $ a.: q R #.i.Y & g < & * & b a.> & q : & ) P + &.:.;.",
"X < & 8 = & % < < 8 < < 8 g 8 > Y 0 a.< 1 ;.B #.Q < & X > & < : M 8 < C n & a.n 1 M :.#.b , 8 M < 8 > & #.: < M C & < & C 8 8.8 ",
"8 4 Q : ! a.& : * < b < < : < # + X b ;.a.s.-.Q B 4 b & a.< Q #.Q B q w.#.M > < -.< 8 8 < < < : < M , $ & q C * & Y b < g.< & : ",
"$ R R 8 8.b #.R b 8 * * $ < < &.8 X Y +.C : <.3 & * #.q.N.< : 4.Q x.& < < > * & < & @ @ * > & , M g q.b < < ;.8 > > < > q > M < ",
"# i.Y 8 3 < $ & C < * $ & < > * 4 < : 8 8 & < b 1 & < < & > < n : g.8 < & > M *.4 & 8 * 1 b $ O.b & 4 1 : 8., & 8 & $ 8 : * #.< ",
"n < & ! 3 b < > + & & > : * * : B G : & @ < Y #.R * & #.< 8 8 : , & * : & M < C 1 : > b @.< < 8.n M : Q < a.@ * & < & * 8 & * < ",
"+ < & Y < * l.H & 8 v.0 < & & : M Q 1 < * < % > : < M O.G <.M 8 & a.> ;.! < # 7 * g < :.8 < 8 8 O.: > 8.< X * C : : & < 8 $ b ! ",
"0 : : 8 & - ^ > < b q.n < 1 & 8 p.8 8 : * < & 8 > < & b M n : G 8 z.b.< @ + < $ 9 4 C H 8 & < n 8 * 1 <.4 : v.b * 6 & < : < ;.m.",
"G > > 8 < 4 < g.C O.> b ! : * 8 < & 4 G & < b 1 Y 8 & 8 8.G : > H <.Y < 1 ! < < 8 * & G 8 & b > n b 3 y.* b H + & 4 8 & : * < , ",
"& , 1 <.> : Q 1 a.8 & & B 4 < + b < + &.:.;.@ > = 2 8 #.M 8.8 8 M > g.x < 8 b * = < & < C C 8 M M #.< @ & * 8 < * & <.< < b & & ",
"g M : , =.O.b = m.q > & & 4 O.1 1 & g 8 8.8 X : l.g.< : g = * b : 8 Q #.: b g.& @ : q 8 M Y # q < 8 C 8 < < C R 4 #.8 R : 8 #.: ",
"1 q q < 1 Y < a.Q a.i.> : 4 8.l.= & 8.< & < 8 q Q * 4 & > <.8 : < $ * #.M , j.w.> : M #.& w.Z M Q q O.8 : < 8 : : n > > 8 b w.4 ",
"& + R < g ;.b 4.c.G G 8 Q < < < & & Z > M < $ Q 3 7 * & 8 G : R < 4 4 * 0 3 n.w.8 #.< & 1 c.b B R : Q 0 G z.b : Y b 8 g < + < 8 ",
"b < b < 8 n 1 g b < * $ @ & * : 8 7 : * #.< $ i.< 8 R a.: $ < < R O., & :.< * 8 < * g < & 1 , ;.& & l.G #.8 M < * < :.< 1 & & < ",
"C :.< 8 & & R 8.b #.< 8 R 8 b Q & & : & * < n < & & 8.< < < & M Y 1 < < b O.& $ B H 8 : < & : b.a.Z g 8 7 8 < < * 8 + 8 O.G Q 8 ",
"< < 8 > & @ G M <.C # H a.* 8 < q M $ X b ! + - & 8 7 #.< < < < 1 @ $ < : 8 9 b M # & 8 & < : M b 9 < 8 B < & b C 8 O < 8 > * = ",
"b b ;.g #.< > O.@ # #.;.* 1 * < < & * 8 :.m.b : > : < a.4 < Q 1 8 1 < < & * * 8 & & * < b b $ 8 8 8 < # b < & 8 * q Q < < > & 1 ",
"b b < 8 ;.< X * Y $ M @.8 & 8 v.I & B 9.g., G > > 8 <.& #.v.M R :.8 * C b < 8 < 8 8 q 8 4 > < 8 : * + 8 % + q $ M g : b.8.* + & ",
"b l.Q : n M # * 8 > 8 b 8 $ M p.y.q ;.R 5 & & < 1 <.: Y g < #.1 b 8 8 q < Y :.w.8 b & < $ < & C &.i.& < . 1 h.C < G < 8.l.& q C ",
"n H 8 : : : 8 q C 8 * &.g b & & : < #., # * > & > 1 x j.g.G 1 < < < 8 g.n < : < & <.M < * : & * q 8 O.R 4 8.4 8 4 & < <.b * & < ",
": B * * b b $ Q * 8 #.> 8 M & < : : b < : * & b 8 G b b g.: < M : 8 * N.M g : < @ < M 7 > > 8 & > 9 $ & & < #.8.q.; & = ! 8 G , ",
"& #.* < < #.& b & & C N.6 w.Z 8 * b.Q b * & g.= & b 1 Z < ;.C 6 b 8 Q # & M > > 4 8 $ & R & & $ < C * : 0 , : B Z & # 0 8.& < < "
};
