/* XPM */
static char *_4011dd404bc4e8fb9444b5bb8311a205WqpACAWm3iywos4[] = {
/* columns rows colors chars-per-pixel */
"64 64 256 2 ",
"   c black",
".  c #010101",
"X  c #020202",
"o  c gray1",
"O  c #040404",
"+  c gray2",
"@  c #060606",
"#  c #070707",
"$  c gray3",
"%  c #090909",
"&  c gray4",
"*  c #0B0B0B",
"=  c #0C0C0C",
"-  c gray5",
";  c #0E0E0E",
":  c gray6",
">  c #101010",
",  c #111111",
"<  c gray7",
"1  c #131313",
"2  c gray8",
"3  c #151515",
"4  c #161616",
"5  c gray9",
"6  c #181818",
"7  c #191919",
"8  c gray10",
"9  c #1B1B1B",
"0  c gray11",
"q  c #1D1D1D",
"w  c #1E1E1E",
"e  c gray12",
"r  c #202020",
"t  c gray13",
"y  c #222222",
"u  c #232323",
"i  c gray14",
"p  c #252525",
"a  c gray15",
"s  c #272727",
"d  c #282828",
"f  c gray16",
"g  c #2A2A2A",
"h  c gray17",
"j  c #2C2C2C",
"k  c #2D2D2D",
"l  c gray18",
"z  c #2F2F2F",
"x  c gray19",
"c  c #313131",
"v  c #323232",
"b  c gray20",
"n  c #343434",
"m  c #353535",
"M  c gray21",
"N  c #373737",
"B  c gray22",
"V  c #393939",
"C  c #3A3A3A",
"Z  c gray23",
"A  c #3C3C3C",
"S  c gray24",
"D  c #3E3E3E",
"F  c #3F3F3F",
"G  c gray25",
"H  c #414141",
"J  c gray26",
"K  c #434343",
"L  c #444444",
"P  c gray27",
"I  c #464646",
"U  c gray28",
"Y  c #484848",
"T  c #494949",
"R  c gray29",
"E  c #4B4B4B",
"W  c #4C4C4C",
"Q  c gray30",
"!  c #4E4E4E",
"~  c gray31",
"^  c #505050",
"/  c #515151",
"(  c gray32",
")  c #535353",
"_  c gray33",
"`  c #555555",
"'  c #565656",
"]  c gray34",
"[  c #585858",
"{  c gray35",
"}  c #5A5A5A",
"|  c #5B5B5B",
" . c gray36",
".. c #5D5D5D",
"X. c gray37",
"o. c #5F5F5F",
"O. c #606060",
"+. c gray38",
"@. c #626262",
"#. c gray39",
"$. c #646464",
"%. c #656565",
"&. c gray40",
"*. c #676767",
"=. c #686868",
"-. c DimGray",
";. c #6A6A6A",
":. c gray42",
">. c #6C6C6C",
",. c #6D6D6D",
"<. c gray43",
"1. c #6F6F6F",
"2. c gray44",
"3. c #717171",
"4. c #727272",
"5. c gray45",
"6. c #747474",
"7. c gray46",
"8. c #767676",
"9. c #777777",
"0. c gray47",
"q. c #797979",
"w. c gray48",
"e. c #7B7B7B",
"r. c #7C7C7C",
"t. c gray49",
"y. c #7E7E7E",
"u. c gray50",
"i. c #808080",
"p. c #818181",
"a. c gray51",
"s. c #838383",
"d. c #848484",
"f. c gray52",
"g. c #868686",
"h. c gray53",
"j. c #888888",
"k. c #898989",
"l. c gray54",
"z. c #8B8B8B",
"x. c gray55",
"c. c #8D8D8D",
"v. c #8E8E8E",
"b. c gray56",
"n. c #909090",
"m. c gray57",
"M. c #929292",
"N. c #939393",
"B. c gray58",
"V. c #959595",
"C. c gray59",
"Z. c #979797",
"A. c #989898",
"S. c gray60",
"D. c #9A9A9A",
"F. c #9B9B9B",
"G. c gray61",
"H. c #9D9D9D",
"J. c gray62",
"K. c #9F9F9F",
"L. c #A0A0A0",
"P. c gray63",
"I. c #A2A2A2",
"U. c gray64",
"Y. c #A4A4A4",
"T. c #A5A5A5",
"R. c gray65",
"E. c #A7A7A7",
"W. c gray66",
"Q. c #A9A9A9",
"!. c #AAAAAA",
"~. c gray67",
"^. c #ACACAC",
"/. c gray68",
"(. c #AEAEAE",
"). c #AFAFAF",
"_. c gray69",
"`. c #B1B1B1",
"'. c #B2B2B2",
"]. c gray70",
"[. c #B4B4B4",
"{. c gray71",
"}. c #B6B6B6",
"|. c #B7B7B7",
" X c gray72",
".X c #B9B9B9",
"XX c gray73",
"oX c #BBBBBB",
"OX c #BCBCBC",
"+X c gray74",
"@X c gray",
"#X c gray75",
"$X c #C0C0C0",
"%X c #C1C1C1",
"&X c gray76",
"*X c #C3C3C3",
"=X c gray77",
"-X c #C5C5C5",
";X c #C6C6C6",
":X c gray78",
">X c #C8C8C8",
",X c gray79",
"<X c #CACACA",
"1X c #CBCBCB",
"2X c gray80",
"3X c #CDCDCD",
"4X c #CECECE",
"5X c gray81",
"6X c #D0D0D0",
"7X c gray82",
"8X c #D2D2D2",
"9X c LightGray",
"0X c gray83",
"qX c #D5D5D5",
"wX c gray84",
"eX c #D7D7D7",
"rX c #D8D8D8",
"tX c gray85",
"yX c #DADADA",
"uX c gray86",
"iX c gainsboro",
"pX c #DDDDDD",
"aX c gray87",
"sX c #DFDFDF",
"dX c gray88",
"fX c #E1E1E1",
"gX c #E2E2E2",
"hX c gray89",
"jX c #E4E4E4",
"kX c gray90",
"lX c #E6E6E6",
"zX c #E7E7E7",
"xX c gray91",
"cX c #E9E9E9",
"vX c #EAEAEA",
"bX c gray92",
"nX c #ECECEC",
"mX c gray93",
"MX c #EEEEEE",
"NX c #EFEFEF",
"BX c gray94",
"VX c #F1F1F1",
"CX c gray95",
"ZX c #F3F3F3",
"AX c #F4F4F4",
"SX c gray96",
"DX c #F6F6F6",
"FX c gray97",
"GX c #F8F8F8",
"HX c #F9F9F9",
"JX c gray98",
"KX c #FBFBFB",
"LX c gray99",
"PX c #FDFDFD",
"IX c #FEFEFE",
"UX c white",
/* pixels */
",X<X4X&X~.Q.R.W.(.Q.E.!.T.&X'.{.4XQ.W.!.,X[.W.Q.).`.Y.Y.R.~.^.E.!.Q.oX,X-X<X>X<X1X2XeX5XrXiX7X,X1X1X;X;X X).|.[.%XyX=X2X8X.XoX>X",
":X,X4X*X^.!.E.Q./.W.R.I.T.|.{.'.<XQ.R.Q.:X].T.[.=X|.Y.R.R.I.T.W.Q.E.@X9X5X3X<X3X2X,X4X2X2X-X1X3X,XXX|. X'.~.~./. X5X3X6X5X'.OX>X",
"<X,X[._.^.Q.Y.[.>X$XoXoX=X&X1X*X,X&X+X!.-X_.U.XX8XoXR.!.Q.R.E.W.Q.E.oX5X1X5X1X2X2X<X<X2X2X2X1XeX4XY.U.I.P.T.I.Y.`.4X2X2X<X{.#X,X",
"1X>XQ.W.!.W.E.(.OX{.).).}.#X-XOX4XXX].~.].!.Q.~.oX[.Q.~.W.!.Q.Q.W.R. X5X,X3X<X<X2X,X<X1X3X1X*XrX4X'.'.[.).Q.E.W._.&X>XOX+X_..X:X",
";X<X^.Q.Q.E.W.^.).Q.^.W.'.`._.^.'.Q.T.W.E.R.!.Y.Q.Q.Q.W.W.Q.E.R.R.R. X1X>X1X>X2X1X1X>X>XOX%X,X4X=X-X>X1X.XI.Y.R.T.R.R.G.R.T.Q._.",
";X,XQ.W.Q.E.R.E.E.!.).L.!.Y.!.!.W.).Q.!.E.R.!.W.W.W.!.!.R.R.W.E.E.Y. X6X5X5X3X@X#X$X,X3X:XwXrX3X-X>X>X2X XR.K.H.I.T.J.L.Y.R.W._.",
"{.[.E.Q.W.E.!././.).].U./.R.E._.+XR.Y.Q.T.T.!.!.~.~.~.Q.T.E.R.R.W.U.+XwXrXqXeX-X+X|.OX=X@X%X@X+X-XXX X#X].].R.G.`./.A.!.W.Q.Q./.",
"Q.E.~.~.W.R.;X1X:X2X5X@X4X:X$X;X4X_.R.^.!.W.~.Y.(.(.E.W.R.R.|.oX{.E.XX<X;X3X>XXX%X<X*XoX(.5X<X,X3XE.Y.Q.D.Q.U.Q.oX_.U.^.~.~.~.!.",
"~.~.^.Q.W.R.>X4X2X3X;X=X9X3X9XuX7X$X(.'.'.(.).P.`.'.T.W.R.Q.:X4X&XE..X5X2X4X3X>X5X0X2X5X.X2X9XiX5X^.W.Q.E.E.W.Q.!.Q.R.Q.!.!.).W.",
").~.!.E.W.E.$X:X:X-XoX~. X~._.}.%X!.R.R.W.E.Y.Y.~.(.R.E.W.`.:X6X,X~.oX4X>X<X+X;X:X>X*X[.W.2X#X}.`.U.Y.~.K.E.^.Q.W.Y.W.~.T.R.W.E.",
"!.!.W.W.W.T.^.W.~.!.E.K.^.H.U.^.!.W.Q.!.^.!.W.Q.T.W.R.W.Q.(.<X4X$XI. X$XoX-X1X>X,X,X$XT.!. XQ.I.!.^.T.!.T.R.E.R.Q.[.E.E.L.U.R.R.",
"W.W.E.Q.Q.T.^.Q.Q.Q.Y.J.R.F.U.!.Y.E.E.Q.!.!.Q.!.E.Q.R.T.E.W.@X$X XE.{._.`.[.6X8X9X6X@XW.^.Y.W.^._.(./.!.H.I.E.U.E.<XE.T.E.W.Y.E.",
"~.~.!.Q.Q.~.R.T.^.~.!.E.T.T.R.!.W.W.W.!.W.W.E.(.Q.Q.!.!./._.!.W.T.U.E.!./.Q.).`.].^.U.!.~.W.E.W.^.E.^.^.K.Y.Q.T.W.;XW.Q.T.!.~.^.",
"Q.Q.W.W.Q.!.W.R.Q.W.~.W.E.W.E././.Q.Q.~.Q.Y.E.|.!.R.W.!.).)./.Q.!.{.(.^.{.Q.W.T.R.L.K././.^.Q.).(.Y.W.T.D.I.W.E.!. XU.I.T.Y.G.J.",
"Q.(.~.Q.!.Q.^.^.E.~./.E.E.R.T.!.W.R.E./.^.^._.(.Q.!.W.^.).^.~.E.W.9X+XW.).Q.Q./.R.I.U././.T.Q.}.Q.W.R.I.!.].P.Q.W.).Y.T.T.I.Y.Q.",
"T.W.^.Q.W.W.W.Q.R.~.U.I.Q.E.Q.~.E.R.Q.[.).!.~.W.!.^.^.OX^.(.Q.T.W.XX].E.).!.!.E._.|.).'./.!.E.W.~.R.W.Q.L.(.J.!.E.OX~.}.&X%X`.!.",
"E.~.^.W.R.Q.~.!.R.W.Y.T.W.E.!.!.R.W.P.].(.).`.Q.W.E.!.}.E.W.L.Y.W._.T.L.L.!.R.J.|.=X%X_.W.Q.W.E.Y.R.Q./.H.!.H.!.^.XXL..X$X&X'.E.",
"T.Q.W.T.T.E.W.!.W.~.E.Y.W.^.~.!.E.(.J.|.].{. X!.R.R.Q.{.E.!.R.!.!._.I.T.Q.^./.E.-X1X-X{.~.*X|.Q.>X3X.X!.R.`.L.!.Q.I.G.E.R.W.W.W.",
"R.!.^.!.Q.^.Y.T.R.E.E.Q.E.^.'.).!.^._.}.{.}.{.^.T.~.`.'.R.R.R.I.T.P.E.Q.Q.).E.R.,X+X<XoX!.1X XQ.1X,X XI.R..XE.(.!.E.K.!.~./.^.Q.",
"E.Q.!.W.Q.Q.Q.W.R.T.T.Q.W.I.{.^.Y.W./.4X1X*X2X_.I./.^.~.T.Q.T.E.U.^.^.~.W.Q.Y.R.{.).{.).!.|.).^..X[.(.Y.I.(.Y.|.@XE.G.Q.W.Q.Q.E.",
"`.~.~.E.!.R.E.Q.Q.R.E.^.^.~.!.R.U.E.!.,X2X7X7XoX/.E.Q.~.E.Q.W.!.E.!.E.T.R.^.Y.J.(.XX}.E.I.^.W.I.W.P.I.~.~.~.{.4X2X).%X/.W.Q.Q.W.",
"~.}.{.!.Q.E.P.T.E.T.W.W.Q.~.!.(.^.E.E.!.[.!.~.'.(.R.E.~.Y.!.!.E.R.Q.Q.T.E.E.Y.K.%X:X<X.XR.2XXX).).W.P.P.^.(.XX8X;X(.3X`.W.Q.Q.T.",
"E.Q.R.!.~.^.'./.R.W.W.Q.W.[./.U.T.W.W.R.U.Y.R.I.Y.T.E./.E.^.^.!.Q.~.!.Q.~.!.R.T.OX+X,X>X:X4X,X+X1XXXH.T.~./.{.3X>X/.>X`.E.W.Q.R.",
"E.W.T.Q.Q.~.R.F.U.Q.!.^.Q.}.!.Y.T.Q.Q.!.Q.T.~.~.[.^.R.Q.K.W.!.!.Q.P.Q.Y.L.W.W.T.=X7X5X<X<X,XoX/.~.W.!.Q.!.!.R.oX>XT.E.Y.T.T.Q.W.",
"E..X|.W.E./.T.E.!./.(./.~.`.R.E.E.I.Q.E.I.W.W.~.^.W.Q.Q.Z.E.R.]. XI.W.T.Q.W.E./.1X<X<X;X>XoX[.W.W.R.T.!.^.~.R..X>XoXoX~.R.W.W.R.",
"W.&X&XW.!.(.(.W.W.~.).`./.I.G.Q.W.W.Q.W.W.~.R.E.Q.W.E.}./.).).:X6XU.;X<XXX`.W.R.+X%X,X@XR.T.Q.E.T.Y.R.Q.!.W.E.Q.[.<X<X'.T.E.Q.W.",
"Q.W.E.R.W.T.'.!.(.Y.~.!.`.(.!.^.).).~.!.Q.W.E.E.R.[.`.:X-XXXOX2X4X}.9XuX%X/.+XoX X*X|.#XXX#X}.G.Y.E.Q.!.~.W.W.W.(.|.oX/.U.R.R.E.",
"Q.^.Q.R.E._.Q.~.).Y.^.~.E.R.T.W.`./.E.E.R.!.R.D.R.&XoX&X%X4X,XsXyX;X6X<X+XE.1X3X^.Q.T.oX4XsX*XD.E.E.W.W.!.W.E.E.`.3X3X[.Q.(./.~.",
"~.~.W.Q.W.(.~./.Q.R.^.~.!.E.E.Q.R.Q.Q.Q.!./.Q.U..X4X1X@X,X8X1X6X<X:X>X:X-X{.:X=X~.Q.T.oX4XyX|.B.E.R.W.E.!./.W.^.;X,X2X.XW.~.T.Y.",
"'.L.U.!.W._.[.R.Q.I.R.!.U.E.W.Q.W.W.E.!.!.^.W._.,X1X2X6X6X,X;X;X<X1X:X<X7X>X:X5X,X.XoX%XOXOX(.Q.Y.Y.Q.W._.)./.).&X5X8X#X/.~.~.^.",
"E.(.[.R.I.E.{. X!.].[.!.P.Q.!.Q.W.!.E.W.E.W.W.W.:X2X<X2X#XOXXXXX>XOX3X1X1X4X<X5X=X-X5X2XW.Y.T._.F.P.W.W.^.R.W.E._.<X6XOXT.W.T.Y.",
"+X&X;X.X[.|.%X2X^.-X;X X!.(.^.!.Y. X(.~.E.Y.}.;X0XqX1X*X-X4X9X4XXX<X0X,X-X XXX'. X>X3X1X_._././.H.Y.!.Q._.!.!.E.].,X3X+XE.E._.XX",
"9X&X*X2X<X6X5X>X/.:X2X<X~.E.R./.U.|._.!. X.X%X5X6XoX{.{.'.*X&X}.XX X}.}.+X;X;X&XXX,X2X<X|..X_.~.J.U.Q.Q.(.W.!.Q.`.:X1X+XE.Y..X7X",
"5X=X>X1X>X1X6X1X~.-X,X-XW.R.R.Q.W.XX/.T.3X6X1XqX%XI.L.Q.R.|..XL.R.T.T.U..X7X3X>XoX2X,X:XE.R.T.(.P.^.).(.`.R.!.W.`.2X2X+X!.E. X3X",
"-X@X-X1X3X,X:X+XW.&X>X:X^.Q.Q./.~.}.[.Q.<XwX7X8X@XF.U.T.Q.@XoXU.E.~.).I.`.1XXXOX$X>X,X-XQ.~.W.(.Y.Y.E.E.(.W.Q.E.!.oX2X$XQ.W..X-X",
",X:X6XaX-X2X6X-XoXoX*X>X!.Q.!.-X_.|.1X%X%X1X-X=X.XJ.E.!.4X5X,X_.H.+X+X X#X=X+X/.~.[.Q.!.W.~.Q.OXI.T.^.~.@X/.Q.Q.W.~.,X$XQ.Y.{.:X",
").]. XXX_.}.;X5X1X2X7X6X!.R.!.=X{.&X7X-X&X1X<X>X|.J.E.R.1X1X7X2X&X3X7X2X>XOX.XQ.E.).Q.Q.Y.E.W./.Q.~.<X-X>X@X+X.X~.!.Q.!.!.T.E.^.",
"W.).,X5X&X=X2X2X,X2X7XwX{.`._.#X#X-X4X*X,X9X>X$X[.E.R.^.[.Y.).{.[./.=X;X:X=X%X~.!.`.Q.E.G.J.K.(.J.Y.6X3X8X4X3X,X!.W.Q.W.W.E.W.E.",
"!.{.&X@X$XOX;X,X7X1X5X0X).~.`.&X4X<X,X,X1X5X1XOXL.U.E.!.^.R.Y.T.E.L.].:X5X4X3X/.!.~.!./.R.T.R.+X[.*X>X2X7X1X#X9X#XT.Q.U.H.Q.!.!.",
"Q.~.].].[.).@X2X8X2X6X6XE.R.).&X<X:X:X>X<X1X].E.K.I.E.E.E.W.W.~./.(.6X5X%X{. X^./.!.R.`.*X%X}.2X%X-X2X,X>X=X&X6X.XL.Y.P.P.W.W.E.",
"E._. X}.XX}.OX1X5X&X@X1X.XQ.!.OX2X;X>X<X#X@XE.W.T.G.~.W.).%XOX(.'.+X1X5X|.I.!.W.W.Q.I.`.eX9X=XwX&X,X;X4X<X3X5X3X@XE.!.Q.E.T.W.Y.",
"Q.;X5X<X<X<X:X,X2X/.Q.4X~.U.W.I.,X<X>X1X=X[.H.Y.I.H.W.Q.<X3X%X@X&X X,X5X X/..X~.!.^.W.|.4X-X.X4X,X<X5X0X:X,X<X2X#XE.Q.Q.W.Q.!.T.",
"&X;X>X<X,X4X=XXXiX!.].0X%X[.T.].4X2X>X,X&X<X|.(.T.P.E.Q.*X*X-X1X<XOX1X3X XT.~.!.Q.~.Q.XX3X%X|.>X:X<X5X9X3X2X2X2X_.E.!.~.Q.R.|.&X",
"oX1X4X6X6X7X>X:X0X].oX;X|.U.I.$X1X>X>X1X1X-XW./.Y.D.R.Q.:X:X>X3X3X&X-X@X].'.%XW.E.Q.R.'.3X>XXX5X<X,X5X3X7X4X:XiXT.U.W.Q.W.R.`..X",
"U.OX7X2X3X3X3X7X,X;X>X@X`.F.G.{.#X@X=X5X6XXXR.~.U.J./.W.>X>X,X<X<X1XOXT.W.!.Q.T.E.E.W.].-X$XOX3X2X>X;X:X1X;X$XwXI.T.Q.W.W.~.W.Y.",
"R._.+XXXXX X$X2X>X<X2X3X].R.Q.%X<X<X,X,X4X1XE.R.U.).*X.X;X;X,X,X>X<X].R.W.Q.W.R.Q.W.Q._.W.P.L.).)./.^.^.!.~.!..XI.R.Q.Q.Q.Q.W.R.",
"W.Y.U.R.E.T..X7X,X:X,X=XW.R.E.oX1X1X<X,X2X;X`.]._.$X7X6X4X3X4X3X2X>XW.E.E.Q.E.T.~.Q.W.).!.I.G.E.Q.Q.!.!.E..X*X0XT.T.E.W.~.~.!.E.",
"E.R.R.R.W.E.|.,X{.,X4X,X~.R.W./.3X2X3X8X9X6X2X3X5X1X6X6X;X&X$X%X$X@XW.W.W.E.T.T.(.!.!._.^.Y.J.^.~.!.T.Q.Y.[.oX6XoX'.T.!.^.!.~.E.",
"Q.W.E.W.^.^.`.#X.X%XOXXX!.W.Q.~.OX*X@X X=X=X1X4X+X%X8XrX[.!.Q.!.~.(.E.W.E.E.Q.W._.^._.'.~.E.G.T.!.Q.J.L.S.Q. X$X&XXXR.(.!.E.Q.E.",
"Q.E.E.W.!.Q.).:X>X<X,X-X(.W.Q.`.&X,X<X%X-X-XoX>X-X2X:X1X-X;X;X;X*X*XW.R.R.T.!.!.(.^.).~.R.R.Y.W.!.~.^.!.Q.XX,X1X3X XI.!.!.W.!.E.",
"T.T.T.T.E.Q.W.@X$X;X*X$XQ.R.E.~.R.OX6X<X<X<X*X<X6X6X3X,X~.!.Q.^.W.$X!.W.W.^.].!.^.!.W.U.P.I.E.W.!.W.R.R.Y.'.%X,X3X@XE.(.^.~.~.R.",
"!.Q.E.R.R.Q.E.~.^. XE.W.E.R.W.!.R.+X4X,X3X1X1X1X1X2X2X>XW.E.E.Q.E.].W.E.Y..X7X^.!.!.Q.!.Q.~.Q.E.~.~.!.E.E.W.W.W.oX#X^._.!.~.^.W.",
"/.!.!.Q.W.!.W./.^. XR.W.R.R.R.W.R.oX2X>X1X1X,X>X,X,X).E.R.W.E.W.E.W.W.Q.E.~.`.Q./.W.E.W.W.W.Q.E.R.T.E.E.Q.E.!.Y.'.OX~.^.E.Q.!.!.",
"Q.Q.W.E.E.!.Q.~.~.|.U.E.E.Q.!.~.U.XX5X3X;X-X*X,X;X-XQ.U.R.Q.E.W.W.~.Q.Q.R.~.~.W.^.W.R.E.Q.~.Q.E./.^.Q.T.E.W.!.W.}.+X~.!.W.Q.Q.W.",
"!.W.R.T.W.!.~.OX@X-XoX.XW.W.!.~.XX-X,X*X&X$X;X3X-X*XE.U.W.W.W.Q.!.!.R.R.T.E.Q.Q.W.W.T.R.W.Q.W.R.~.!.~.E.E.E.W.W.^.`.~.~.!.Q.W.W.",
"!.!.R.R.E.R.Q.>X2X6X6X3X!.W.!.~.1X2X>X<X2X4X6X<X,X>X(.Q.W.R.R.E.!.Q.R.T.R.R.Y.Q.!.Q.E.Y.I.Y.Q.].Q.W.[.Q.!.Q.!.Q.Q.!.W.!.Q.W.E.E.",
"W.!.~.^._.^.(.3X6XeX5X4X*XQ.!.).:X*X2X<X2X2X>X.XXX].Q.E.E.E.T.W.!.Q.W.R.R.^.].|.].{.'.].'.{.^.).Q.E.!.L.W.R.W.Q.!.Q./.!.E.E.E.T.",
"~.!.^. X|.}.}.9XtXuX:X1X$XJ.W.{.-X@X,X;X1X1X=X#X4X].W.Q.Q.!.R.Q.^.Q.E.W.I.}.2X<X1X1X<X2X1X4X/.W.W.T.Y.I.Q.E.Q.Q.!.!.'.)./.!.Q.!.",
"+X^.U.^.E.Q.E.^.!.`.`.}./.W.^.R.R.E.R.E.,X'.T.|.%XoX^.}.Q.~.|.XX@X#X@X%X$X;X5X1X1X<X1X<X;X3X[.!./.E.R.U.^.~.!.E.'..X:X:X%X'.{.$X",
"~.^.!.^.W.Q.R.^.W.#X@X=X|.Q.K.!.W.W.R.T.~.W.R./.^.`.R.!.T.R.~.^.(.XXOX$X5X2X5X2X1X3X8X8X3X8X@X{. XQ.E.T./.Q.Q.W.!.].].)./.!.Q.!.",
"<X<X,X%XW.Q.!.Q.^./.W.W./.E.U.Q.Q.W.!.W.Q.Q.E./.E.E.E.W.~.^.Q.E.!.W.W.W.^.:X0X2X>X<X1X2X<X1X&X+X@X~.W.E./.Q.W.W.~.`.).{.!.!.Q.OX",
"<X,X=XoXE.E.W.T.R.E.T.R.E.W.P.I.Q.E.E.T.W.W.E.~.T.W.E.T.R.R.E.R.W.'. XXX-X1X5X:X2X1X<X<X>X<X2X3X1X~.E.R.(.!.W.R.W._.).#X X).`.&X",
",X,X2X%XW.E.E.W./.E.!./.!.!.!.W.U.I.Q.T.Y.W.W.!.T.Q.Q.W.!.W.!.E.Q.E.XX_.].,X@X#X1X1X1X1X,X2X X(._.~.R.E.E.E.Q.R.W.].oX:X7X X@X2X",
",X,X3X-X(.^.Q.~.E.E.Q.!.T.|.(./.}.R./.~..X(.W.!./.).Q.!.^.^.).Q.^.E.|.XX|.>X:X<X,X<X<X4X4X5X$X.X|.~.R.W.W.R.Q.!.Q.{.oX-X<X}.oX>X"
};
