/* XPM */
static char *result[] = {
/* columns rows colors chars-per-pixel */
"192 48 12 1 ",
"  c black",
". c #751C1C",
"X c #7A705B",
"o c #A72828",
"O c #D23232",
"+ c #BDAE8D",
"@ c #D0C8B7",
"# c #EEDBB1",
"$ c #FCF2DE",
"% c #FFFBF4",
"& c white",
"* c None",
/* pixels */
"************************************************************************************************************************************************************************************************",
"************************************************************************************************************************************************************************************************",
"************************************************************************************************************************************************************************************************",
"************************************************************************************************************************************************************************************************",
"*******************&&&&&&&&&***************************************************************************************&&&&&&&&&********************************************************************",
"****************&&&.........&&&************************************&&&&&&&&&************************************&&&.........&&&************************************&&&&&&&&&********************",
"*************&&&...OOOOOOOOO...&&&******************************&&&.........&&&******************************&&&...OOOOOOOOO...&&&******************************&&&.........&&&*****************",
"***********&&...OOOOOOOOOOOOOO$...&&*************************&&&...OOOOOOOOO...&&&*************************&&...OOOOOOOOOOOOOO$...&&*************************&&&...OOOOOOOOO...&&&**************",
"*********&&..$$$OOOOOOOOOOOOOOO$$$..&&*********************&&...OOOOOOOOOOOOOO$...&&*********************&&..$$$OOOOOOOOOOOOOOO$$$..&&*********************&&...OOOOOOOOOOOOOO$...&&************",
"********&..$$$$$OOOOOOOOOOOOOOOOOOOO..&******************&&..$$$OOOOOOOOOOOOOOO$$$..&&******************&..$$$$$OOOOOOOOOOOOOOOOOOOO..&******************&&..$$$OOOOOOOOOOOOOOO$$$..&&**********",
"*******&.OO$$$$$OOOOOOOOO$$$OOOOOOOOOO.&****************&..$$$$$OOOOOOOOOOOOOOOOOOOO..&****************&.OO$$$$$OOOOOOOOO$$$OOOOOOOOOO.&****************&..$$$$$OOOOOOOOOOOOOOOOOOOO..&*********",
"******&.OOOO$$$OOOOOOOOO$$$$$OOOOOOOOOO.&**************&.OO$$$$$OOOOOOOOO$$$OOOOOOOOOO.&**************&.OOOO$$$OOOOOOOOO$$$$$OOOOOOOOOO.&**************&.OO$$$$$OOOOOOOOO$$$OOOOOOOOOO.&********",
"******&.OOOOOOOOOOOOOOOO$$$$$OOOOOOOOO$.&*************&.OOOO$$$OOOOOOOOO$$$$$OOOOOOOOOO.&*************&.OOOOOOOOOOOOOOOO$$$$$OOOOOOOOO$.&*************&.OOOO$$$OOOOOOOOO$$$$$OOOOOOOOOO.&*******",
"*****&.OOOOOOOOOOOOOOOOO$$$$$OOOOOOOO$$$.&************&.OOOOOOOOOOOOOOOO$$$$$OOOOOOOOO$.&************&.OOOOOOOOOOOOOOOOO$$$$$OOOOOOOO$$$.&************&.OOOOOOOOOOOOOOOO$$$$$OOOOOOOOO$.&*******",
"*****&.OOOOOOOOOOOOOOOOOO$$$OOOOOOOOO$$$.&***********&.OOOOOOOOOOOOOOOOO$$$$$OOOOOOOO$$$.&***********&.OOOOOOOOOOOOOOOOOO$$$OOOOOOOOO$$$.&***********&.OOOOOOOOOOOOOOOOO$$$$$OOOOOOOO$$$.&******",
"****&.OOOOOOOOOOOOOOOOOOOOOOOOOOOOOOO$$$$.&**********&.OOOOOOOOOOOOOOOOOO$$$OOOOOOOOO$$$.&**********&.OOOOOOOOOOOOOOOOOOOOOOOOOOOOOOO$$$$.&**********&.OOOOOOOOOOOOOOOOOO$$$OOOOOOOOO$$$.&******",
"****&.OOOOOOOOOOOOOOOOOOOOOOOOOOOOOOOO$$$.&*********&.OOOOOOOOOOOOOOOOOOOOOOOOOOOOOOO$$$$.&*********&.OOOOOOOOOOOOOOOOOOOOOOOOOOOOOOOO$$$.&*********&.OOOOOOOOOOOOOOOOOOOOOOOOOOOOOOO$$$$.&*****",
"****&.OOOOOOOOOOOOOOOOOOOOOOOOOOOOOOOOOOO.&*********&.OOOOOOOOOOOOOOOOOOOOOOOOOOOOOOOO$$$.&*********&.OOOOOOOOOOOOOOOOOOOOOOOOOOOOOOOOOOO.&*********&.OOOOOOOOOOOOOOOOOOOOOOOOOOOOOOOO$$$.&*****",
"****&.OOOOOOOOOOOOOOOOOOOOOOOOOOOOOOOOOOO.&*********&.OOOOOOOOOOOOOOOOOOOOOOOOOOOOOOOOOOO.&*********&.OOOOOOOOOOOOOOOOOOOOOOOOOOOOOOOOOOO.&*********&.OOOOOOOOOOOOOOOOOOOOOOOOOOOOOOOOOOO.&*****",
"****&.OOOOOOOOOOOOO$$$OOOOOOOOOOOOOOOOOOO.&*********&.OOOOOOOOOOOOOOOOOOOOOOOOOOOOOOOOOOO.&*********&.OOOOOOOOOOOOO$$$OOOOOOOOOOOOOOOOOOO.&*********&.OOOOOOOOOOOOOOOOOOOOOOOOOOOOOOOOOOO.&*****",
"****&.O$$$OOOOOOOO$$$$$OOOOOOOOOOOOOOOOOO.&*********&.OOOOOOOOOOOOO$$$OOOOOOOOOOOOOOOOOOO.&*********&.O$$$OOOOOOOO$$$$$OOOOOOOOOOOOOOOOOO.&*********&.OOOOOOOOOOOOO$$$OOOOOOOOOOOOOOOOOOO.&*****",
"****&.@$$$$OOOOOOO$$$$$OOOOOOOOOOO$$$OOOo.&*********&.O$$$OOOOOOOO$$$$$OOOOOOOOOOOOOOOOOO.&*********&.@$$$$OOOOOOO$$$$$OOOOOOOOOOO$$$OOOo.&*********&.O$$$OOOOOOOO$$$$$OOOOOOOOOOOOOOOOOO.&*****",
"*****&.@$$$OOOOOOO$$$$$OOOOOOOOOO$$$$$Oo.&**********&.@$$$$OOOOOOO$$$$$OOOOOOOOOOO$$$OOOo.&**********&.@$$$OOOOOOO$$$$$OOOOOOOOOO$$$$$Oo.&**********&.@$$$$OOOOOOO$$$$$OOOOOOOOOOO$$$OOOo.&*****",
"*****&.@@$$OOOOOOOO$$$OOOOOOOOOOO$$$$@oo.&***********&.@$$$OOOOOOO$$$$$OOOOOOOOOO$$$$$Oo.&***********&.@@$$OOOOOOOO$$$OOOOOOOOOOO$$$$@oo.&***********&.@$$$OOOOOOO$$$$$OOOOOOOOOO$$$$$Oo.&******",
"******&.@@ooooOOOOOOOOOOOOOOOOOOO@@@@@o.&************&.@@$$OOOOOOOO$$$OOOOOOOOOOO$$$$@oo.&************&.@@ooooOOOOOOOOOOOOOOOOOOO@@@@@o.&************&.@@$$OOOOOOOO$$$OOOOOOOOOOO$$$$@oo.&******",
"*******&.ooooooooooooooooooooooooo@@@o.&**************&.@@ooooOOOOOOOOOOOOOOOOOOO@@@@@o.&**************&.ooooooooooooooooooooooooo@@@o.&**************&.@@ooooOOOOOOOOOOOOOOOOOOO@@@@@o.&*******",
"********&..ooooooooooooooooooooooooo..&****************&.ooooooooooooooooooooooooo@@@o.&****************&..ooooooooooooooooooooooooo..&****************&.ooooooooooooooooooooooooo@@@o.&********",
"*********&&.........................&&******************&..ooooooooooooooooooooooooo..&******************&&.........................&&******************&..ooooooooooooooooooooooooo..&*********",
"***********&&X+++++++++++++++++++X&&*********************&&.........................&&*********************&&X+++++++++++++++++++X&&*********************&&.........................&&**********",
"************&X+++++++++ %++++++%+X&************************&&X+++++++++++++++++++X&&************************&X+++++++++ %++++++%+X&************************&&X+++++++++++++++++++X&&************",
"************&X#########  ###### #X&*************************&X+++++++++ %++++++%+X&*************************&X#########  ###### #X&*************************&X+++++++++ %++++++%+X&*************",
"************&X#########  ###### #X&*************************&X#########  ###### #X&*************************&X#########  ###### #X&*************************&X#########  ###### #X&*************",
"************&X##X################X&*************************&X#########  ###### #X&*************************&X##X################X&*************************&X#########  ###### #X&*************",
"************&X##X##X#############X&*************************&X##X################X&*************************&X##X##X#############X&*************************&X##X################X&*************",
"************&X##+XX+#############X&*************************&X##X##X#############X&*************************&X##+XX+#############X&*************************&X##X##X#############X&*************",
"************&X###++##############X&*************************&X##+XX+#############X&*************************&X###++#############+X&*************************&X##+XX+#############X&*************",
"************&X+#################+X&*************************&X+##++#############+X&*************************&X##################XX&*************************&X###++#############+X&*************",
"*************&X################+X&***************************&X################+X&**************************&X#################+XX&*************************&X#################+XX&*************",
"*************&X+##############+XX&***************************&X+##############+XX&**************************&X+###############+XXX&*************************&X################+XXX&*************",
"**************&X++######+X++++XX&*****************************&X+#########++++XX&****************************&X######+++++++++XXXX&*************************&X#######+++++++++XXXX&*************",
"***************&XX++++++XXXXXXXX&******************************&X++######+XXXXX&*****************************&X+####+XXXXXXXXXXXX&**************************&X+####++XXXXXXXXXXXXX&*************",
"****************&&XXXXXXXXXXXXX&********************************&XX++++++XXXXX&*******************************&X++++X&&&&&&&&&&&&****************************&X++++XX&&&&&&&XXXXXX&*************",
"******************&&&&&&&XXXXX&**********************************&&XXXXXXXXX&&*********************************&XXXX&*****************************************&XXXX&&*******&XXXX&**************",
"*************************&&&&&*************************************&&&&&&&&&************************************&&&&*******************************************&&&&**********&&&&***************",
"************************************************************************************************************************************************************************************************",
"************************************************************************************************************************************************************************************************",
"************************************************************************************************************************************************************************************************",
"************************************************************************************************************************************************************************************************"
};
