/* XPM */
static char *_66e9d4158bf4e25bd3847c6c0e0a7829DfnbllEdERQvsTF[] = {
/* columns rows colors chars-per-pixel */
"64 64 117 2 ",
"   c #05090C",
".  c #0C0A0C",
"X  c #130C0D",
"o  c #1C0D0E",
"O  c #0B0E13",
"+  c #140D12",
"@  c #1B0D11",
"#  c #071014",
"$  c #0A1014",
"%  c #121113",
"&  c #1C1314",
"*  c #151719",
"=  c #1C171A",
"-  c #1E1919",
";  c #220E0F",
":  c #2D0E0F",
">  c #330E0F",
",  c #3B0E0E",
"<  c #27110F",
"1  c #230D10",
"2  c #290D10",
"3  c #221213",
"4  c #2D1112",
"5  c #241817",
"6  c #251B1B",
"7  c #291E1D",
"8  c #341212",
"9  c #3B1413",
"0  c #341F1E",
"q  c #2E221F",
"w  c #31201F",
"e  c #272020",
"r  c #2C2424",
"t  c #2A2728",
"y  c #2E2A2A",
"u  c #332322",
"i  c #352626",
"p  c #3C2121",
"a  c #392626",
"s  c #312827",
"d  c #372827",
"f  c #3A2827",
"g  c #322929",
"h  c #372929",
"j  c #342C2B",
"k  c #332C2C",
"l  c #342C2C",
"z  c #382A2A",
"x  c #392B2A",
"c  c #392C2B",
"v  c #3A2D2D",
"b  c #3B2F2F",
"n  c #3B302F",
"m  c #3C302F",
"M  c #373030",
"N  c #383030",
"B  c #3C3131",
"V  c #3B3434",
"C  c #3E3434",
"Z  c #3F3737",
"A  c #3F3738",
"S  c #3F3838",
"D  c #440F0E",
"F  c #4A0F0E",
"G  c #4C100E",
"H  c #53110E",
"J  c #5C120F",
"K  c #431514",
"L  c #4A1615",
"P  c #4D1817",
"I  c #401C1B",
"U  c #501715",
"Y  c #541816",
"T  c #5B1916",
"R  c #5C1A18",
"E  c #65130F",
"W  c #6C140F",
"Q  c #631B17",
"!  c #6C1C17",
"~  c #621B18",
"^  c #6F1F1A",
"/  c #731610",
"(  c #791710",
")  c #7E1811",
"_  c #761E19",
"`  c #7A1F19",
"'  c #53211F",
"]  c #442423",
"[  c #4A2625",
"{  c #4D2826",
"}  c #442A29",
"|  c #4B2C2A",
" . c #502321",
".. c #5C2422",
"X. c #522826",
"o. c #403737",
"O. c #4B3433",
"+. c #423A3A",
"@. c #433B3B",
"#. c #463E3E",
"$. c #474040",
"%. c #4E4747",
"&. c #565151",
"*. c #5B5555",
"=. c #5D5757",
"-. c #615B5B",
";. c #696262",
":. c #716B6B",
">. c #811811",
",. c #8C8989",
"<. c #908D8D",
"1. c #939090",
"2. c #979393",
"3. c #C5C4C4",
"4. c #C8C6C6",
"5. c #CAC9C9",
"6. c #CCCACA",
/* pixels */
"+.+.v v v z B z v c v +.Z +.v z i h z B z d i z B +.Z +.z v v z B z v z v +.Z +.v z i h z B z i i z B +.Z +.z v v z B z v z m +.",
"Z +.c v v z B z v v v +.B +.v c u z z B z d i z B +.B +.z v v z B z v v v +.B +.v c u z z B z i i z B o.B +.z v v z m z v v v Z ",
"1.S g g s g l g s g g l l l g g g g g j g g g g j l l l g g s g j g s g g l l l g g g g g l g g g g l l l l g s s g h g s s N =.",
"5.=.r r r r r r r r r r r r r r r r r r r r r r r r r r r r r r r r r r r r r r r r r r r r 6 r e r r r r r r r r r r r r r =.3.",
"-.#.+.+.+.+.+.+.+.+.+.+.+.+.+.+.+.+.+.+.+.+.+.+.+.+.+.S k y y y y y y k S +.+.+.+.+.+.+.+.B 7 r r M +.+.+.+.+.+.+.+.+.+.+.+.#.-.",
"+.+.+.+.Z l r e r k N +.+.+.+.+.+.+.+.+.+.+.+.N y t * * .             . * * t y N +.+.+.+.+.h 7 7 M +.+.+.N k r e r l Z +.+.+.+.",
"+.+.+.l 6 - - - - - 6 g +.+.+.+.+.+.+.+.+.k = $                                 % - l +.+.+.v 6 7 M +.+.g 6 - - - - - 6 l +.+.+.",
"+.+.N 6 - 6 7 7 7 6 - - g +.+.+.+.+.+.y = O                     . . . . . . . . . . + = g +.+.r 7 M +.g - - 6 7 7 6 6 - 6 N +.+.",
"+.+.r - 6 w u 7 & X X & 6 Z +.+.+.N 6 X . . . . X X X X X X X X X X X X X X X X X X X X X 6 N h g Z Z 6 & & & 6 7 u w 6 - r +.+.",
"+.+.y - 6 u 7 X . . . . e +.+.+.g & X X X X X X X X X o X o X o o o o o X o o o o o o o o o 5 s N +.+.r & % . . X 6 u 6 - y +.+.",
"+.+.Z r 6 w 7 X . . . & N +.+.r o o o o o o o o o o o o o o o o o o o o o o o o o o ; ; ; ; ; 1 u +.+.V 6 X . . . X 7 6 r Z +.+.",
"+.+.+.Z g r q 6 & 6 r Z +.o.u 3 ; ; ; ; ; ; ; ; ; ; ; ; ; 1 1 1 2 2 2 2 2 2 2 2 2 2 2 2 2 2 2 2 4 i o.+.Z r & X % 6 r g Z +.+.+.",
"+.+.+.+.+.+.N N N Z +.+.+.i 2 2 2 2 2 2 2 2 2 2 2 2 @ @ @ % % % % % % & 3 3 4 4 4 4 4 4 4 4 4 4 4 4 a +.+.+.N l M N +.+.+.+.+.+.",
"Z +.+.+.+.+.+.+.+.+.+.+.Z 4 4 4 4 4 4 4 4 8 4 3 & % # # # # # # # # # # # # % & 3 8 8 8 8 8 8 8 8 8 8 o.+.+.+.+.+.+.+.+.+.+.+.Z ",
",.Z l M M M M M M M M l p 8 8 8 8 8 8 8 4 3 % # # # # # # # # # # # # # # # # # # % 4 8 9 9 9 9 9 9 9 p l M M M M M M M M l Z &.",
"6.=.r r r r r r r r r 7 8 9 9 9 9 9 9 4 % # # # # # # # # # # # # # # # # # # # # # # % 4 K K K K K K 9 7 r r r r r r r r r *.3.",
";.#.+.+.+.+.+.+.+.+.+.p K K K K K 9 & # # # # # # # # # # # # # # # # # # # # # # # # # # 3 9 L L L L L [ +.+.+.+.+.+.+.+.+.#.;.",
"+.+.+.+.+.+.+.+.+.+.+.[ L L L L K 3 # # # # # # # # # # # # # # # # # # # # # # # # # # # # 3 L P P P U [ +.+.+.+.+.+.+.+.+.+.+.",
"+.+.+.+.+.+.+.+.+.+.+.[ P P P L & # # # # # # # # # # # # # # # # # # # # # # # # # # # # # # & P Y Y Y { +.+.+.+.+.+.+.+.+.+.+.",
"+.+.+.+.+.+.+.+.+.+.+.[ U U U 4 O O O O O O O O O O O O O O O O O O O O O O O O O O O O O O O O 4 R R T X.+.+.+.+.+.+.+.+.+.+.+.",
"l Z +.+.+.+.+.+.+.+.+.{ Y T 9 $ O O O O O O O O O O O O O O O O O O O O O O O O O O O O O O O O $ K R T X.+.+.+.+.+.+.+.+.+.+.g ",
"- r N +.+.+.+.+.+.+.+.[ Y R 8 O O O O O O O O O O O O O O O O O O O O O O O O O O O O O O O O O O 8 ~ T [ +.+.+.+.+.+.+.+.+.N r ",
"l l N +.+.+.+.+.+.+.+.[ T P & O O O O O O O O O O O O O O O O O O O O O O O O O O O O O O O O O O & U R [ +.+.+.+.+.+.+.+.Z N Z ",
"N +.+.+.+.+.+.+.+.+.+.[ R L O O O O O O O O O O O O O O O O O O O O O O O O O O O O O O O O O O O O L Q [ +.+.+.+.+.+.+.+.+.Z Z ",
"2.$.r r r r r r r r r I ~ L + O O O O + O O O O O O O O O O O O O O O O O O O O O O O O O O O O O + P ~ I r r r r r r r r r $.<.",
"4.*.g r r r r r r g l ] Q P + + + + + + + + + + + + + + + + + + + + + + + + + + + + + + + + + + + + P Q ] M N N N N N N N l *.4.",
";.+.r s h h l M h r S [ Q P + + + + + + + + + + + + + + + + + + + + + + + + + + + + + + + + + + + + P Q [ +.V N N N N N N Z +.;.",
"+.+.r v z z v o.z 7 Z [ Q P @ + @ @ @ @ @ @ + + @ @ @ @ @ @ @ @ @ @ @ + @ @ @ @ @ @ @ @ @ @ @ @ + @ P Q [ A r h l h g l g r +.+.",
"+.+.r v v +.B v z 7 A [ Q P @ @ @ @ @ @ @ @ @ @ @ @ @ @ @ @ @ @ @ @ @ @ @ @ @ @ @ @ @ @ @ @ @ @ @ @ P Q [ Z 7 z B B B v N r +.+.",
"+.+.r v v +.Z v z 7 A [ Q P @ @ @ @ @ @ @ @ @ @ @ @ @ @ @ @ @ @ @ @ @ @ @ @ @ @ @ @ @ @ @ @ @ @ @ @ U Q [ A 7 z v Z +.v v r +.+.",
"+.+.r v v +.Z v z 7 A [ Q U 1 1 1 1 1 1 1 1 1 1 1 @ 1 1 1 1 1 1 1 1 1 1 1 @ 1 1 1 1 1 1 1 1 1 1 1 1 U Q [ A 7 z v Z +.v v r +.+.",
"+.+.r v v +.Z v z 7 A [ Q U 2 1 1 1 1 1 1 1 1 1 1 1 1 1 1 1 1 1 1 1 1 1 1 1 1 1 1 1 1 1 1 1 1 1 1 2 U Q [ A 7 z v Z +.v v r +.+.",
"+.+.r v v +.Z v z 7 A [ Q U 2 2 2 2 2 2 2 2 2 2 2 2 2 2 2 2 2 2 2 2 2 2 2 2 2 2 2 2 2 2 2 2 2 2 2 2 U Q [ A 7 z v Z +.v v r +.+.",
"+.+.r v v +.Z v z 7 A [ Q Y 2 2 2 2 2 2 2 2 2 2 2 2 2 2 2 2 2 2 2 2 2 2 2 2 2 2 2 2 2 2 2 2 2 2 2 2 Y Q [ A 7 z v Z +.v v r +.+.",
"+.+.r v v o.Z v z 7 A [ Q Y : : : : : : : : : : : : : : : : : : : : : : : : : : : : : : : : : : : : Y Q [ A 7 z v Z +.v v r +.+.",
"+.+.r l B n B v z 7 A [ Q Y > : : : : : : : : : : : : : : : : : : : : : : : : : : : : : : : : : : > Y Q [ A 7 z v Z Z B v r +.+.",
"+.+.r N B o.Z v z 7 A [ Q Y > > > > > > > > > > > > > > > > > > > > > > > > > > > > > > > > > > > > Y Q [ o.7 z v B B v l r +.+.",
"+.+.r v O.+.Z v z 7 A [ Q Y > > > > > > > > > > > > > > > > > > > > > > > > > > > > > > > > > > > > Y Q [ A 7 z v Z +.Z N r +.+.",
"+.+.r ' ..O.Z v z 7 A [ Q T , , , , , , , , , , , , , , > , , , > , , , , , , , , , , > , , , , , , T Q [ A 7 z v Z O.X.[ r +.+.",
"+.+.r } | O.Z v z 7 A [ Q T , , , , , , , , , , , , , , , , , , , , , , , , , , , , , , , , , , , , T Q [ A 7 z v Z O... .r +.+.",
"+.+.r N o.+.Z v z 7 A [ Q T , , , , , , , , , , , , , , , , , , , , , , , , , , , , , , , , , , , , T Q [ A 7 z v Z +.o.B r +.+.",
"+.+.r l B v B v z 7 A [ Q T D D D D D D D D D D D D D D D D D D D D D D D D D D D D D D D D D D D D T Q [ A 7 z v Z Z B l r +.+.",
"+.+.r N Z c v v z 7 A [ Q R D D D D D D D D D D D D D D D D D D D D D D D D D D D D D D D D D D D D R Q [ A 7 z v n v B v r +.+.",
"+.+.r N B B B v z 7 A [ Q R D D D D D D D D D F F F D D D D D D F F D D D D D D D D D D D D D D D D R Q [ A 7 z v B v Z N r +.+.",
"+.+.r v v +.Z v z 7 A [ Q R F F F F F F F F F F F F F F F F F F F F F F F F F F F F F F F F F F F F R Q [ A 7 z v Z o.v N r +.+.",
"+.+.r v v +.Z v z 7 A [ Q R G G G G G G G G G G G G G G G G G G G G G G G G G G G G G G G G G G G G R Q [ A 7 z v Z +.v v r +.+.",
"+.+.r v v +.Z v z 7 A [ Q Q H H H H H H H H H H H H H H H H H H H H H H H H H H H H H H H H H H H H Q Q [ A 7 z v Z +.v v r +.+.",
"+.+.r N B Z B v z 7 A [ Q Q H H H H H H H H H H H H H H H H H H H H H H H H H H H H H H H H H H H H Q Q [ A 7 z v Z +.v v r +.+.",
"+.+.r N +.B B +.z 7 Z [ Q Q H H H H H H H H H H H H H H H H H H H H H H H H H H H H H H H H H H H H Q Q [ Z 7 z Z v N Z V r +.+.",
"+.+.r r g k k k i r S [ Q Q J J J J J J J J J J J J J J J J J J J J J J J J J J J J J J J J J J J J Q Q [ S r r k g g k h r +.+.",
":.#.+.Z Z Z Z Z o.+.+.[ Q Q J J J J J J J J J J J J J J J J J J J J J J J J J J J J J J J J J J J J Q Q [ +.S Z Z Z Z Z o.+.#.:.",
"%.+.l s s g s s s g +.[ Q Q J J J J J J J J J J J J J J J J J J J J J J J J J J J J J J J J J J E J Q Q [ +.g s s s g s s l +.%.",
"+.+.r w p p p p 0 7 Z [ Q Q E E E E E E E E E E E E E E E E E E E E E E E E E E E E E E E E E E E E Q Q [ Z 7 0 p p p p w r +.+.",
"+.+.r N o.d B +.z 7 A [ Q Q E E E E E E E E E E E E E E E E E E E E E E E E E E E E E E E E E E E E Q Q [ A 7 z +.B d o.N r +.+.",
"+.+.r V N 6 s +.z 7 A [ ~ ! W E E E E E E E E E E E E E E E E E E E E E E E E E E E E E E E E E E E Q Q [ A 7 z +.s 6 B Z r +.+.",
"+.+.r N h 6 6 B z 7 Z [ ^ _ W W W W W W W W W W W W W W W W W W W W W W W W W W W W W W W W W W W W ! ! [ Z 7 z B 6 6 z N r +.+.",
"+.+.r l u 6 5 d f 7 Z [ ^ _ W W W W W W W W W W W W W W W W W W W W W W W W W W W W W W W W W W W W _ ^ [ Z 7 f d 5 6 u l r +.+.",
"+.+.r u q o ; 6 p 7 Z [ ^ _ / / / / / / / / / / / / / / / / / / / / / / / / / / / / / / / / / / / / _ ^ [ Z 7 p 6 ; o q u r +.+.",
"+.+.r u q < o 6 p 7 Z [ ^ ` / / / / / / / / / / / / / / / / / / / / / / / / / / / / / / / / / / / / ` ^ [ Z 7 p 6 o < q u r +.+.",
"+.+.r v d 6 5 h z 7 Z [ ^ ` ( ( ( ( ( ( ( ( ( ( ( ( ( ( ( ( ( ( ( ( ( ( ( ( ( ( ( ( ( ( ( ( ( ( ( ( ` ^ [ Z 7 z h 5 6 d v r +.+.",
"+.+.r Z v 6 u o.z 7 Z [ ^ ` ( ( ( ( ( ( ( ( ( ( ( ( ( ( ( ( ( ( ( ( ( ( ( ( ( ( ( ( ( ( ( ( ( ( ( ( ` ^ [ Z 7 z o.u 6 v Z r +.+.",
"+.+.r Z Z u v +.z 7 Z [ ^ ` ) ) ) ) ) ) ) ) ) ) ) ) ) ) ) ) ) ) ) ) ) ) ) ) ) ) ) ) ) ) ) ) ) ) ) ) ` ^ [ Z 7 z +.v u Z Z r +.+.",
"+.+.r g l r g k s r S [ ^ ` ) ) ) ) ) ) ) ) ) ) ) ) ) ) ) ) ) ) ) ) ) ) ) ) ) ) ) ) ) ) ) ) ) ) ) ) ` ^ [ S r i l g r l g r +.+.",
"+.+.Z Z Z Z V V Z Z +.[ ^ ` >.>.>.>.>.>.>.>.>.>.>.>.>.>.>.>.>.>.>.>.>.>.>.>.>.>.>.>.>.>.>.>.>.>.>.>.` ^ [ +.Z Z Z Z Z Z Z Z +.+."
};
