/* XPM */
static char *_d4e2b14813c4215a01ef5af7a960034[] = {
/* columns rows colors chars-per-pixel */
"64 64 86 1 ",
"  c #45362D",
". c #47382E",
"X c #48392F",
"o c #463A32",
"O c #4C3D33",
"+ c #4A3F39",
"@ c #523E34",
"# c #4F4036",
"$ c #4D4239",
"% c #524137",
"& c #54443A",
"* c #5B453B",
"= c #56483E",
"- c #5B4A3E",
"; c #66473B",
": c #624B3F",
"> c #694A3E",
", c #534746",
"< c #554A41",
"1 c #5D4C42",
"2 c #5F5145",
"3 c #5E5248",
"4 c #644E41",
"5 c #6C4E41",
"6 c #645244",
"7 c #6A5444",
"8 c #6D5947",
"9 c #645549",
"0 c #695649",
"q c #66594B",
"w c #6B5A4B",
"e c #725646",
"r c #755B47",
"t c #735748",
"y c #745C4A",
"u c #775C4A",
"i c #725B4C",
"p c #755F4E",
"a c #795C4B",
"s c #785E4C",
"d c #7A5F4C",
"f c #685B50",
"g c #685D51",
"h c #6E5D50",
"j c #6D5F50",
"k c #725E51",
"l c #73614F",
"z c #75604F",
"x c #79614E",
"c c #7C614D",
"v c #7E634F",
"b c #6E6153",
"n c #6C6054",
"m c #706051",
"M c #756353",
"N c #706355",
"B c #746355",
"V c #736455",
"C c #776757",
"Z c #7A6350",
"A c #796452",
"S c #7B6452",
"D c #7A6855",
"F c #7B6855",
"G c #7E6956",
"H c #716458",
"J c #766758",
"K c #76665C",
"L c #7B6559",
"P c #7D6A59",
"I c #7E6B58",
"U c #786A5C",
"Y c #7F6E5C",
"T c #746663",
"R c #766860",
"E c #786A61",
"W c #7D7062",
"Q c #826853",
"! c #816658",
"~ c #846B5A",
"^ c #84715D",
"/ c #847363",
"( c #877367",
") c #887661",
"_ c #8D7866",
"` c #928373",
/* pixels */
"+1KM7677778766-2g$<9229932<=<&qH999wwwbmwwmmBw6-699997777778wq91",
",T(QccccccAAxdt92$nw8wwwq966613V988wwmMFIIFMl9-0767676666777www&",
"ERiccdurrrrrrrr-+nj888q8922266&1w888888wmiw8w4jC66666666666668w#",
"Yzrurrrrrrrrrrr:fN888qqq9222221WC888888888888-j0666666666666667O",
"Arrrrrrrrrrrrrr7Jw888q992222221U8888888888888-99666666666666667.",
"Mrrrrrrrrrrrrrr7Nw888922222222&w8888888888888-6966666666666668Fo",
"prrrrrrrrrrrrrr6Jwq88q22226262&68888888888888--66666666666667)i ",
"kdrrrrrrrrrrrrr6Vqqqwq22226666=98888888888888<w6666666666666^^4.",
"pprrrrtrrpputuu6m6qq89662666661qw88888888868w1M7666666666667)7:.",
"8ttttttruxZxuMx4169qq622222222-98888888886-87-w76666666666w-7:- ",
"*----4**4446666-&-11&=1111<<11=<1111-&166-%&&@%---------:44*--&%",
"zppppp%1w07w00777777&gbgwgwwqqwq999q9&9kwww0000wiwii0iZxturrurud",
"tteeet%4777777777777&qgwwq9692922229611k744444444447*8t87t7777ee",
"88887:O4777777777777&1Hww922222222292&68444444444444&te78t7777ee",
"88877w*1777777777777&qnqwq2222222222<Oj4444444444444*87555557777",
"877kAp&-777777777777<nbwww9222222221<w04444444444444&75555577777",
"7kkit8&-7777777777706jbwwwq222222222w944444444444444&755>>577788",
"KA778t--7777777777789nbbwwq9222222222264444444444444&455>>7e7886",
"877778*177777777777w9nbbgww9222222222264444444444444*455>>7e778t",
"777777*1777777777778<jbgwwq9222222222222444444444444-755>>7e7788",
"474444*&46666666669w19jqq9611112221111114:444444444:*4>>>5>77777",
"07664-----*&&--<1111<1622111<-<<<1111144&1414444:>4:--444:44*677",
"Zrrtt744444::69999919jwjw8009ww008w07777-wa>>55555te7555778t4L~A",
"555554::::::::6669619www8666666666666666&95;;>555555555555>7:ZAt",
"555554::::::::466991<www8966699666666666&4>;;;>5555555555555*kat",
"55555:::::::::4699919Jwww966666666666666&->;;;;>>55555555555*7tt",
"55555::::::::::46691gCwww866666666666966%4>;;;;;>>5555>555>5@4tt",
"555554:::::::::49991qCwwww96666666669666%-::;;;;>>5555555>>5@8ut",
"555554:::::::::6969<3Vwwww86666666666666%&k5>>>>55555555555e@wdt",
"5555544::::::::6666-1Nwwwww7766666666666&ja55>>>555555555577&7rt",
"5555555:::::::46999-1mwwww9--66777779966@L7555555575>>5>5555@4ut",
":**::**********-<<<O&6111&  --------**&&X9:***************** o:>",
"ww099990091112961-&&--<<1<199w8896146666667970w-*4444444:**:4**&",
"Mkwwwwimmi9999996446908888ww6CIu777777777777778-475555555555555@",
"w9999990806996641111160000006Ni7777777777777777-*55555555555555O",
"w9999999996661111111116000001987777777777777777-&55555555555555O",
"w999999999961111111111149008&187777777777777777-%55555555555555O",
"w99999999961111111111111600w&1w7777777777777777-*55555555555555@",
"w999999996111111111111140000&1w7777777777777777&O45555555555555@",
"0999999996111111111111116641O187777777777777777%<L5555555555555&",
"w999699641111111111111111111&18777777777777777w#9!e555555555555*",
"w996666111111111111111111111&&877777777777777iw%@57555555555555*",
"<=-=&&&&&&&&&&&&&&&&&&&&&$Ooo#----------444-66-&&*-********-141&",
"66666666666666690wwjmmjjww&&AzzzzZzzzzxAuw6wImCCCNjwwwwwwwwjbjww",
"66666666666666666088wwwwww16Fxcxxuuuuuudtw&qLmmiww9999999998wjw0",
"66666666666666466688ww888w12Fxxurrrrrrrruu*qCww88899999999990ww0",
"4666664466664444669www888w<2Fxurrrrrrrrrru:9m8888q99999999990900",
"4666444466664444660www888w<9Fxurrrrrrrrrrr:9m8888899999999990000",
"4466666666666666608888ww8w1wFxurrrrrrrrrrr:9k8888899999999900000",
"4466664466666664688888ww8w1wFxdrrrrrrrrrrr:-w8888899999999900000",
"46666644666664446888wwww8w19Fxurrrrrrrrrrr:1w8888899999999900000",
"46666644666644449888wwww8w66Fxurrrrrrrrrru:-w8888899999999000000",
"4441:::4444441116999969999<&zutttteeete888*&09999966666699999999",
"9661-16666699141666613<=--&&----1444-&4644-&-1--=-=&&&&=11<111<=",
"_zzzuzAGGGGFFuM8iwww/`8000000008008iw-4k44457777787666999ww9wwj1",
"~uuuuuuuzzuuz7wCw90988000000000900000&1844444444444422266666669&",
"Iuuyyyyyyuuuu79J000000000009900909998&1444444444444441126666661O",
"Fuyyyyyyyyyyu73w700000000006260099098-4444444444444444122266661O",
"Ayyyyyuuyyyyu7<w000066000092226900770&1444444444444444662666661O",
"Gyyyyyyuyyyyu7<w906&<600006222269000811744444444444444462666661O",
"Iuuyyyyuyyyyy8<q90&1w0000062222290000*1644444444444444662166661O",
"zzuuyyyyyyyyy86mw91969990922222260000-&044444444444444661166661O",
"8wwuyyyyyuuuuw6bq29169099996222260009-1i44444444444444661226662O",
"&-9788888ww887=2o&111666-&1111111666& -7----**::-**&&&&&&&=<111O"
};
