/* XPM */
static char *_a112cadb6d748699a4d6142f70b0fcb[] = {
/* columns rows colors chars-per-pixel */
"64 64 118 2 ",
"   c #3A312F",
".  c #3E3633",
"X  c #40322F",
"o  c #433732",
"O  c #443A36",
"+  c #4B3D36",
"@  c #453D3A",
"#  c #4A3E39",
"$  c #4E4037",
"%  c #47413C",
"&  c #4D423B",
"*  c #534036",
"=  c #53453B",
"-  c #59473C",
";  c #56483E",
":  c #5B4A3E",
">  c #614C3F",
",  c #4E4640",
"<  c #4E4946",
"1  c #514740",
"2  c #554B43",
"3  c #5B4D43",
"4  c #5D4F48",
"5  c #5D5145",
"6  c #57504A",
"7  c #5D544A",
"8  c #564D50",
"9  c #5F5853",
"0  c #624F41",
"q  c #645244",
"w  c #6A5545",
"e  c #6D5847",
"r  c #63564A",
"t  c #6A574A",
"y  c #64594C",
"u  c #6B5B4C",
"i  c #715947",
"p  c #735D4C",
"a  c #795F4D",
"s  c #655C51",
"d  c #6C5E51",
"f  c #725D51",
"g  c #795F50",
"h  c #6F604E",
"j  c #74614E",
"k  c #7A624E",
"l  c #6D6154",
"z  c #66605D",
"x  c #6D6559",
"c  c #736354",
"v  c #7B6552",
"b  c #766856",
"n  c #7C6A55",
"m  c #736659",
"M  c #756458",
"N  c #776559",
"B  c #74675A",
"V  c #78675A",
"C  c #7C6659",
"Z  c #71685A",
"A  c #71685B",
"S  c #756A5B",
"D  c #736A5D",
"F  c #766D5D",
"G  c #79685B",
"H  c #7C6958",
"J  c #7D6A59",
"K  c #7A685E",
"L  c #786B5F",
"P  c #7C6A5D",
"I  c #7C6C5E",
"U  c #7F6D5E",
"Y  c #676160",
"T  c #6B6462",
"R  c #6F6964",
"E  c #6E666B",
"W  c #786B60",
"Q  c #7A6E61",
"!  c #7A6D63",
"~  c #7D7162",
"^  c #816651",
"/  c #806754",
"(  c #836955",
")  c #836B56",
"_  c #836B57",
"`  c #886F57",
"'  c #816B58",
"]  c #826D59",
"[  c #836D5A",
"{  c #886F5B",
"}  c #896F5B",
"|  c #85725B",
" . c #85705D",
".. c #8B735D",
"X. c #8D725E",
"o. c #8D795F",
"O. c #92775F",
"+. c #93795E",
"@. c #836F60",
"#. c #847262",
"$. c #847362",
"%. c #877467",
"&. c #8B7462",
"*. c #8D7A62",
"=. c #8A7867",
"-. c #8C7C6A",
";. c #8E796C",
":. c #907760",
">. c #937C62",
",. c #937E6A",
"<. c #968165",
"1. c #988267",
"2. c #9C866A",
"3. c #9C886B",
"4. c #998671",
"5. c #9C8A75",
"6. c #A3876D",
"7. c #A1896E",
/* pixels */
"@ 8 T s 7 7 7 y s % @ x D m x x x s % s L m m m D Q Q Q W D m s q r r s f q X o : 0 0 q o o 0 0 w w t p * + q t t = 0 u u p v r ",
"@ E z y y y y s Z x x D Z Z m c c B 4 d B G L I I I I I I L B c B L V B @.;.# : k v ^ _ * - k k ^ _ _ X.v 0 k v _ C v v v ' | I ",
"2 Y s y y y y s l D D Z Z m m c c c d d m G G G G G G L L V B B V B B B B %.3 w p a k ^ e p a p k v ^ _ { k k v v v v v C ] ] n ",
"2 s y y 7 7 y y s l m Z Z m m c c c c c c B m B B B B V V B B B B B B V V Q 4 0 i i p a p p p p k v v ^ _ k k v v v v v C _ ] J ",
"2 s y 7 y y y s l x x Z Z Z m c c c x x l l f f c c c B B B B B B B B G I $.3 - e i i i i i i p k k k k k k a a k v v v C n ] J ",
", s y y y s s l x x Z Z D D Z m c c x x c c d u u u u d B B B B B B B P @.$.= o + > i i i p p a k k k k k k a a k k v v v n ] J ",
"& y y y s s l x x Z D D F F D m c x c c c c c u u u u d M V V P P P L I $.=.; * : - e i i p a k k k a a k k p a k k k v v n ] J ",
"& 7 y s l x x Z Z D D F F F D Z m c c c c c d u u u u d c V P I I I L @.=.,.3 = e p p p p a k k k k p p p p p a p k v v v n n v ",
"% 7 y l x x x Z Z D F F F F m m m m c c c d u u u u u d c V V G P P L ] $.*.; ; i p p p p a a k k k a p p p p p p p k v v C v u ",
"@ 6 y l x x x Z Z Z D F F d 2 d x x x d d u u u u u u u u d c c B L B P ] $.& = 0 w e e i i e p p p p i e e e e e e i p p p p q ",
"@ % & & , 2 6 6 2 1 2 7 7 1 % & 2 2 2 2 2 & # & 2 4 2 2 # ; 2 & 2 4 4 4 r r & = ; ; : : = = = : 3 : 3 : $ + $ = = = + + + + = + ",
"l x l % @ 9 D D Q 6 d ~ F m c c c c m S c c 4 q d c d Q 4 u S 2 u c c l S S c u r q q q : : q u c c v n : $ 3 q r j & 1 y y s y ",
"F F ~ s < R D F $.~ F F F S m c c c m S c c B u r r r B 7 y -.S c G b j u u u u q : - - - : q q w t t t u r q q q u ; 4 x x x m ",
"F Q ~ x 6 x D D F ~ F F F S c c c c c m c c c s r r r d 7 r F -.c c c u u u u u q > : : : : q q q q r q w w 0 0 q t = 2 x x m D ",
"F F F l 6 D D F F F S S S c c c c c c c c d u t r r r u 4 u c m c h u u u u u u r 0 > > : > q q q q q q q q 0 0 q t & & m m Z D ",
"F F F s 2 Q F D S S m m c c c c c c c c c u t u t r r t 4 u c c h u u u u u u w q > 0 > > > q r q q q q q 0 0 0 0 w & O l m m Z ",
"F F F r 2 m S S S m c c c c c c c c c c d u u u u u r t 4 r h h u u u u u u u r q q q q > > q r w q q q q q q 0 0 t 2 @ 7 x Z D ",
"F F Q y 2 c m S S c c c c c c c c c c c d u u u u u s s 2 r u u u u u u u u u r q q q q 0 q q q w w r r r q q q q u 4 1 d x m D ",
"S Q ~ s 1 x c S S c c c d u u d d d c c d u u u u d d d 1 q r u u u u u u u w q q q q q q q q r w w w w w r q r u p 4 6 x x x Z ",
"c Z D 6 & l c b S c c d u u u u d d d c d u u u u d d d 1 5 r u u u u u u u r q q 0 > 0 q q r w t q q w w w t u p m 5 2 d y s l ",
"2 2 5 & O 4 5 7 r 5 4 3 3 4 5 5 4 3 4 4 4 4 3 3 3 3 4 2 O ; 2 3 3 5 q q 3 ; ; = = = = = = ; ; : 3 2 + ; : : 3 3 3 r ; O & , 2 2 ",
"% % % 1 1 1 1 2 3 r u 3 o + 5 y y &   O 1 2 2 4 6 2 . # 3 3 3 5 q 5 q r 3 o + 3 3 3 o ; 4 4 5 7 s y 6 4 2 . @ 1 2 2 4 6 @ . @ % ",
"3 3 3 5 5 r r r u c n n ; r n | 4.$.O 4 x l l c m ~ 1 ; c n n J ] ] ] | | q j ] ]  .2 d l l l l d d y y x 2 2 5 7 r y s s % 6 5 ",
"2 2 2 2 3 q r r r u j n j j v J *.5.; 7 y y y u l S r 3 c m n n n J ] | &.J n n J ] 2 y l d d s s y 7 6 r s 2 2 5 7 7 7 x 2 4 4 ",
"2 2 2 2 3 q r r r u j j j j v ] | 4.; 5 y y y y d c c u c n n n J ] | | | | n n ] n & 7 x s y y y r 7 2 2 5 2 2 2 2 5 7 r 7 4 4 ",
"2 2 2 2 5 q r u u u j j j j n ] | *.& 5 y y y y l c c c b n n J ] | | | | | J n ] c % s l y y y y y 7 6 2 2 2 2 2 2 2 6 7 5 4 4 ",
"2 2 2 3 5 r u u u j j j c c n J | $.% 5 y y y u l c m c b n ] | | | | | | | | ] | $.1 s d y y y r 7 r 7 5 2 2 2 2 2 4 5 7 7 6 5 ",
"3 2 2 5 q r u u u j c c c c v n | *.2 3 y y y u l c c c c n | | | | | | | | | | .. .; s s s y 7 7 7 r r 7 7 5 2 4 4 5 6 7 r r 7 ",
"5 3 5 5 r u u u p j v c v n n n | *.5 2 5 7 y u l c c c c n ] | | | | | | | | | *.$.; y s s s y y 7 7 y y 7 6 5 4 5 6 7 r y r 7 ",
"q 5 5 r w u u u j j v v n J n n ] | 2 ; 5 r y u l l c c c n J ] ] J J J J J ] | | $.& 7 s s s s y y 7 7 7 7 7 6 6 7 r y r r y y ",
"r r r r t t t u p j j n n J n n n J & & r r r u d h h l c c n n n n n n n n n J |  .& 7 s y s s y y 7 7 7 7 7 7 r y u u u u u u ",
": ; ; ; : : : : 3 q q r r r r r r r # O ; ; ; 2 2 ; 3 5 5 5 5 5 5 5 5 q r r r r r 3 o ; 2 2 2 2 2 2 2 1 1 1 1 2 3 5 5 5 5 5 5 5 ",
"3 : 3 + o 3 3 0 q + ; r q r r r u u u u u u d l u ; r r r 5 r r r u u c c u u c ; $ 3 ; ; ; ; ; ; & o & ; 3 & . + ; 3 3 : : : 3 ",
"/ / ] c = j j j n q 0 j p j p u e e u u u u u u j r r r 5 r r u u j c v c v v n r = j j p p p p c u ; u j ] v ; q p k v v n / / ",
"n _ _ J = j k j v v e u u u e w w w w w q r r r u r 5 5 5 r r u u h j c c v n n : = p j p p p p v ] j p p j ] w q e p k k k / / ",
"_ _ _ v + u j k j v p e e w w w w q q q q r r r r r r 5 q r r r u h c c c n n n ; : v v v c p p j | v p p p j 0 : e p k k v / _ ",
"_ _ _ C + r j v v j e e w w w w w q > > : 3 5 5 5 5 r r r r r r u u c c n J J c = = v ] ] _ v j j c j p p p p i e i p k k v / _ ",
"_ v v v = v v v v k p e w w w w w w q : : : 3 5 3 3 5 5 r r r u u c v n n J | v = : | ....| ] v v k k j p p p p p p k k k v v / ",
"_ ^ v u + p v v v v j p e w w e w w q q 3 0 : 5 5 3 3 5 r r u u c n n J J ] o.1.t 3 | ..| | | n n v k k j p p p p p k v v v v / ",
"_ ^ v u + p v v v v k j p e e w w w q q q q : 5 5 3 3 5 r u u j v n J ] | ..>.2.u r ..| | | ] n v v k k k k k k k k v v v v / _ ",
"v k v u + j v v v v v v j j e e w w q 0 : : : 5 q 3 5 r r u u c n n ] | | *.<.3.r r ..| | | ] n k k k k k v v v v v v v ^ / ^ ^ ",
"p i i ; + k v k j k v v j j p p u e q 0 q q q q r 4 5 r r u u c v n ] ] | ..,.2.q 3 n ] ] n n v j p i i p p k k k k k k k k k a ",
"; = = + + : 3 : : 3 : = 3 3 : : : : ; = & $ & ; ; % + + & ; ; = ; 3 3 3 5 5 5 r $ + & = : : = = + + = ; ; : - : = + & : 0 q 4 3 ",
"3 4 r r r r u r t t t - u j p p u u p c l 3 y x c Z y O 4 m c & u J ] | &.| | ..&.&.u : ,.,.| v t 3 ' | C v v ' d & q P ] C v B ",
"r r r r r t u t t t t - w i p p p p p c G r c c c Q ~ & y c $.l  .o.*.>.1.<.1.1.2.7.c : O.>.>.:.X.X.O.O.:._ _ ..=.u V ] C B f V ",
"t r r t t t t t t w q : e i p p p p p c c d S S c S D 1 l c S J  .| *.<.1.<.>.*.o.:.u : ..:.:.X.X.O.X....._ _ ] ,.C ] ' C B f d ",
"t r t t t t t t t w w w e e i p p c c v n S S S S G D 1 l b S J  .o.>.1.1.1.>.X.....u : ..........X.{ ` _ _ ' C ] C C C C B f f ",
"u t t t t t t t t w w e e e i p c v n n G G S F F G D 1 l b S J | >.<.1.1.<.o...` _ w : ` ........{ _ _ _ _ _ ' C C C C C B f u ",
"p u t t t t t t t w w e i i i p v v n n S S F F I F D & d b F I | *.>.<.<.>.o..._ _ 0 : ....X...` _ _ _ _ _ _ ] ] C C C C V f f ",
"f f u u t t t t e e e u i i p j v v v n G F F F I I D % y S J  .| *.>.<.<.>..._ X.O.p : :.X.O.+.X._ _ _ _ _ _ ] ] ] ] ' C C v f ",
"c c f p t w w w w w e i i p p v v v v n F I I ~ Q I ~ , u b J | ..*.>.>.>.o..._ 1.6.v : | ..O.>.>..._ _ _ _ _ ] ] @.@.] C C V v ",
"c c c c f t w w w w w i p k v v v v v G I F S c F ~ Q 1 u c S J  ...*.o.X..._ / v ..v - v ] X.O.O..._ _ _ v C ] ] &.@.] ' C v v ",
"u u t t t q q q 0 q q e i p p p p p c m m B $.c d m m % r u u l n J ] ] _ ] n p i p w - C v v v v k p p p i t p v v B c f f u t ",
"& o = 3 3 ; & = ; = 3 3 3 3 3 4 5 4 3 5 5 3 # & ; 2 1 # & ; ; # 3 4 q q 0 q = = 3 3 - * ; - 3 - * - : 3 3 4 4 4 4 0 t 0 = 3 3 3 ",
"V # d V B f p c v m ] ] ] | |  .] F m b F F 2 7 l x c m D D m O r f B C v ' : : p i t t w i p p i i a v v C C C ' &.:.=.f ] ] ] ",
"$.3 B c f f c c v n n n n n n n n c c c l F m l d l x c Q L D & r u f c v v - - e e 0 > 0 w t i i p v v v C C C C _ ] &.&.{ ] ' ",
"C 4 c c c c c c j j n n n n n n n m c c c c m c c c c x x x B 4 q t u f f f q * w 0 > > > 0 w t i p g C C C ' ' _ ' ] ..&...] ] ",
"c = u p p c c c j v n n n n n n n b m c c m m b S S b c x x m 7 4 r u f f f f 0 0 > > > 0 0 w t i g v C C _ ' ' ' _ ..&.&.&...] ",
"f # ; 3 u c v v v n n J n n n v n b b b m b S S S S S c x d c 4 4 r u u p f p w 0 > > 0 w w t i p v C C ' ' _ _ ' ..&...........",
"v = r B c c n n n n J ] n v c c c m m S S S S S S S S c l d m 7 3 r t u f f p w q 0 0 w w t p p a C C C _ _ _ { { { { { { { ....",
"@.& d c c c n n n n J ] J n c c c c c m b b S B S S c c d u d 7 3 q r u f f p t w q w w t p p a v C v C / ' ] ..&.........{ ....",
"@.1 u u f c v n n n n ] ] J n c c c c c c m S B S S c l d y y 2 4 q r t f f u t t e e t i a a g v v g v C ' { ......{ ] { { ] { ",
"V ; y u u u c v c v n n n n n c c c c c c c m B m m c d y r y 2 3 q r t d d u t t t w 0 i p a a k a a v C ' ] ] ] ' _ C C C C C ",
"4 O 2 2 2 2 3 q 5 q 5 q r r r q q q 5 5 5 q r y 7 4 2 ; & & 1 @ # 4 r t d u u t w 0 + + w i p p p a p p p p v v v a p p t q q q "
};
