/* XPM */
static char *f5af4740174446d2b5878c5b38e9d42b[] = {
/* columns rows colors chars-per-pixel */
"64 64 84 1 ",
"  c #332825",
". c #3A2E2A",
"X c #3E322D",
"o c #42342E",
"O c #463631",
"+ c #483730",
"@ c #473931",
"# c #4C3C35",
"$ c #4F3E38",
"% c #513E37",
"& c #513F38",
"* c #4F4036",
"= c #514037",
"- c #54423A",
"; c #5A463D",
": c #57493D",
"> c #5C493E",
", c #61493F",
"< c #524647",
"1 c #5D4B41",
"2 c #634D42",
"3 c #694F43",
"4 c #665145",
"5 c #6A5246",
"6 c #665449",
"7 c #6C5649",
"8 c #6D584B",
"9 c #705447",
"0 c #725649",
"q c #735B4C",
"w c #725C4E",
"e c #755C4C",
"r c #745C4D",
"t c #765D4E",
"y c #7A5B4E",
"u c #785C4C",
"i c #785C4D",
"p c #7B5D4E",
"a c #625351",
"s c #6D5A55",
"d c #715B50",
"f c #745D50",
"g c #775F50",
"h c #795F51",
"j c #785F52",
"k c #7C5E51",
"l c #79604F",
"z c #776051",
"x c #796152",
"c c #796353",
"v c #7B6252",
"b c #7E6553",
"n c #7B6254",
"m c #7D6355",
"M c #7C6555",
"N c #7F6555",
"B c #7F6957",
"V c #7F6659",
"C c #7D6858",
"Z c #805F51",
"A c #806352",
"S c #816453",
"D c #826354",
"F c #836655",
"G c #806556",
"H c #836757",
"J c #886757",
"K c #816856",
"L c #886957",
"P c #886758",
"I c #83685A",
"U c #846858",
"Y c #876B5A",
"T c #856F5D",
"R c #8A6B5A",
"E c #886C5B",
"W c #916E5E",
"Q c #89705C",
"! c #8C705D",
"~ c #91725F",
"^ c #8F7161",
"/ c #937362",
"( c #9B7A66",
") c #9D7C69",
/* pixels */
" X11111;;;-X1642;@o%45472%5007555575-5txxxqt42zU-18771--4676486o",
".<stgtzxgq7O6IUGE2+27ttxg>0000iiiiix;tUEEUGGttbQ84ggww87gNCIIBTg",
"1adtttttq77$qGNxUU-5577q5-55559000ik,iGUUGAittlU74wtw8778tzxxzzT",
"w8qqtqqqq77-hmmhtx2555575$233359090i7ixSSAxitqtG52ww87777qwtww8q",
"777qqqqqq7q;hnxtq07555554-22223599900ixAAxit0qqx5*4876578qwww877",
"77778qtttq5%gxit07755445>-,,222359990ixAAxitqqqiw@6744478qwww877",
"7777qtthit5#tttq77555442-#>,,23355550tiAAxi0qqqtz-7444478qwww878",
"7778qtxxxxq@7qtq75554442;$>,,223353590ixAxi0qqqtt>5445578wwwww87",
"778qqtxxxxg@570075544222>&;;>222353350i5txiqqqq0w;44777778wwww88",
"778qqtxxxbx@244522222222>$;--,,22223590$2i0q57q05=44744577888q88",
";=224221-25=;>122224>+#$$@%#@$%%;>>-@#;%;221>,-;1=>>;>>111:111>:",
"w$4wtxNN&5kkkkkDGPU/U@#&-;;;>2250iAU=#0ikkit0A2#0q7544557g:28766",
"z47qwzNQ7tiiiiikkxAUR##$&;--;223550Dh20ikkii0ii-i00555455t448888",
"8478wxNNxttiiiiikADGR;#&&---;2235500090iiii00003iiq5444447>17768",
"q78qwtxxxxxiiiiikADDJ,#&&--;;2335900000iiiii000iiit7544442o:4668",
"8qqwttxbbbxiiiiiiADDG>#&--;;;1255590000iiiiiiiiiiii0544457:-4467",
"8wtttxxbbbxiittiiiADA-#=--;;;1235559590iiiiiiiiiiii05444454#1466",
"8wzxxxxxbxhttq0tiikAA>#=--;;;2233355500iiiiiiiiiiii07544444=4466",
"8wzxxxxxxxt00700ipikA-$=-;;;;2233555500iiiiiiiiiiii07544444-4446",
"8txxxxxxhtt05557055ix&$=-;;;>2333523700ipiiiiiiiiiit0744441-4446",
"58wttttt7555222252O-7&#&--;;;22222+>500ti00090000009522212;#1114",
"1224444222$&-;;;-&$$$#$$Oo$&O$%-;>=;1%>2>%&222222;-21>oo->>>>>=o",
"zxxNNNzwqt$;22228;2q7557-o28=147qqtth=2hki3thi0iGx;qqt5O5qwttxx@",
"gxxxxztq7g=;;1125g7775555;474;77qqtgn&2qkZ0qt000mE;777t270qqqtN1",
"xxxxxtqq7g=;;;12257775555555525777qgh&2tkktq000qkI17755557qqqtzz",
"xxxxgtqq78=;;;12455755554544444577tgx:2ikii00000im1q055557qqwttt",
"xxggttqqq7=;;12445444444444444577qtgx15iiit000000x2q055557qwttgx",
"xgttwtqqq7$;124465554444444445578qqth25itt0000000q>t077551qttgxx",
"tqqqqqqqq8$$>4445555544444445777qqtgh23tqq0990000q100007q;7ttxxx",
"qqqqqqqq88=>1447555554444445777qqtggh130005550095q177077t27qtzxg",
"q888888qq8=4447775555564444577qqqtghh1-90959900097;57007g65qqttt",
"1>>>112221#>>122111111111111222245555-+>2222>>>>,1&>;;>;;&:;;;>>",
"1>::>46o-1126:XX-4444211121$8z;@nVI>-5000905o&223550->2222254X.@",
"444447B:28wwzN-o8NCCNxggggn1tIG1kG)N>hkki00i>>555900t05qqqqqx=O1",
"122244z>28888wg>qgxxttttttn2qtIGxG/E5kiii09ih2055550iitqqq0qt-@2",
"111224t2478888w8w8qtttttghx2qthxDGUUhkiiii0005005590iiitqqqqt-O>",
"111124864778888wq-5ttttxxxx1qtkxDGDxkiiiyiyii0ii00000qtttq00t=&1",
"111112444778888w4@5wttxxxxN;7hkxDGDkiiiiiiiiiiiiii0i000ttq00q$-1",
"111111244677888w8=8qwxxxxxN=2hkxDDxkiiiiiiiiiiiiiiyyiyy0t00qN:=1",
"1111112444578888N28qwthxxxN=4hkxDmkiiii0090yiiiiiiiiiiii0000t;:1",
"1111112445778888z78qwthxxxN:4thkkkkiii009990000000iiiiiyqqqq7%-1",
"1111122244577888888qwgxggtx-58qhkkiii000995999990000iiiy0qq0q$=1",
"=====$$-;>>>:*=>1>>111>>>14=;12222,,>>;--->2222>->,,252241;>2=$-",
"55555-@458qwz1>wwwzNNn-=8;4qtihhhhhitttti7>ihxhq-qhiARq2!G7txxtt",
"075572@478wzNz7wwgnNNN7qG520tikkADGGGDDGUG>hxxkh7tixFEi5E52kAAki",
"q75578$458wzxzqwwgxxxtqqx2200thkkkkxAxAAPx>ttitttiikAUxtE!>0xxii",
"q5544z>258qzxztwwtxxxtqqt-;70tkkZZkkkkkkA5-7000ttiikALEGURU7kkii",
"7542244448ttztttwttxgtqqt%@5qikkZZAAkkiii;%5570qttixAFRUUGGikkit",
"5542224458tttttttttgttqqt>;7ttkkZAAAkkiih2%45570qtiixSGGGGxiiii0",
"542222447qtxxxtxwqxxhtttt>20ttikZAAAAki0i8=224577qtiixAAAAkitt07",
"542222478wtxxxxN85xxxxxhx>20ttikZAAAAki004=2224577qtikxkhiitt075",
"44222247qtxxxNKUq2GGGGGxx2;7tttiZAAAkii072$122255700ttt0qq007754",
"111>$>247qzxNKURq7GGGGSxx>>500ttikki007551@:;>1225555555544222>1",
";;--#$$@->2777>28qq;=25552>252&22>2-%>;>>;=;=o*=-;>#o@-;:-->>$X@",
"5542228=70hxGR;2E!/io2DAZAGUR/&2^R/m-555557w5$4447q4o-57qttxN5o;",
"2222225-57thxU57UU~(-2AZkkDPPW02GU/G&22225578=44448x24557qqqg8>4",
"2222221-57qixGtAGGU)/0AZiiZGGGGtGG/G%22225777144447t745578qqq752",
"222222>=57qikxAAxDGG/xkipikAAAAZAAUU&222457754444457755558qqq755",
"522222;%47qtihiikvxxAkiippiZZZAZZpAh#>22557775444557777578qqq877",
"5522222-25qtiiiiikxxkiiipiikZZZZpii3%>2255777755777887778qqqqq87",
"7554444-257qtiiiipxkiiiiiiiZAAZkpii2%2225578888qqqqqqq8qqqqqqqq8",
"5777754-257qttttiiiiiiiiipiiZZZkpiiq-52245788qqqwwwqqqqqqqqttqqq",
"5777q05$;577qqqq0t0tti0iiiiiipppiii5-544558q87qqwwwwwq7qqqtgtqqq",
"55770q7oo275777705;0q7500tiitiit00i2#2442455-*45787772$28qtttqqq"
};
