/* XPM */
static char *_1067e53df2c43e69509f7a90c94a51c[] = {
/* columns rows colors chars-per-pixel */
"64 64 160 2 ",
"   c #332524",
".  c #34272B",
"X  c #35292A",
"o  c #3C2D2C",
"O  c #3F312E",
"+  c #372B32",
"@  c #3B2D32",
"#  c #3F3131",
"$  c #3F333C",
"%  c #412F2A",
"&  c #43322E",
"*  c #49342E",
"=  c #4C392F",
"-  c #51392E",
";  c #402D37",
":  c #443432",
">  c #493732",
",  c #473835",
"<  c #4C3B34",
"1  c #44343A",
"2  c #47393B",
"3  c #4D3C3A",
"4  c #533E34",
"5  c #523E3B",
"6  c #4F4037",
"7  c #4F413D",
"8  c #554136",
"9  c #5A4336",
"0  c #54433B",
"q  c #5B453A",
"w  c #5D493C",
"e  c #614435",
"r  c #61473A",
"t  c #634B3C",
"y  c #6B4D3C",
"u  c #714C34",
"i  c #704F3D",
"p  c #66513F",
"a  c #6D513D",
"s  c #73533E",
"d  c #79563F",
"f  c #493740",
"g  c #4B3A43",
"h  c #503F42",
"j  c #533F4A",
"k  c #4F4040",
"l  c #534342",
"z  c #5A4642",
"x  c #564941",
"c  c #5C4C44",
"v  c #55424A",
"b  c #5B474C",
"n  c #5D4C4C",
"m  c #5F5046",
"M  c #5A4750",
"N  c #614742",
"B  c #634D42",
"V  c #6A4E44",
"C  c #644D49",
"Z  c #694F4B",
"A  c #645244",
"S  c #6C5343",
"D  c #6D5946",
"F  c #65554B",
"G  c #6C544A",
"H  c #66584D",
"J  c #6D5B4B",
"K  c #745543",
"L  c #795644",
"P  c #755A44",
"I  c #7B5C45",
"U  c #73564A",
"Y  c #785748",
"T  c #745C4B",
"R  c #7B5C4A",
"E  c #624E54",
"W  c #655155",
"Q  c #6A5554",
"!  c #6D5B53",
"~  c #6E5959",
"^  c #725C53",
"/  c #7B5D50",
"(  c #735E5A",
")  c #6F604F",
"_  c #7F6046",
"`  c #74614D",
"'  c #7C624C",
"]  c #6F6051",
"[  c #746353",
"{  c #7B6552",
"}  c #776857",
"|  c #7C6955",
" . c #75615D",
".. c #7C655B",
"X. c #776858",
"o. c #7C6B5A",
"O. c #766362",
"+. c #786564",
"@. c #815E45",
"#. c #825E4A",
"$. c #825E50",
"%. c #826147",
"&. c #8A6447",
"*. c #84634B",
"=. c #83654F",
"-. c #86654D",
";. c #85644E",
":. c #87654E",
">. c #89654C",
",. c #83694E",
"<. c #8B694D",
"1. c #886A4D",
"2. c #8C6A4E",
"3. c #926E4E",
"4. c #94704E",
"5. c #99734C",
"6. c #836051",
"7. c #846152",
"8. c #856354",
"9. c #856756",
"0. c #8A6552",
"q. c #896656",
"w. c #836A53",
"e. c #8E6B51",
"r. c #8B6C53",
"t. c #886857",
"y. c #886D56",
"u. c #876858",
"i. c #836E5B",
"p. c #80685E",
"a. c #896A5A",
"s. c #8D6A59",
"d. c #8D6E5D",
"f. c #926D52",
"g. c #906A5A",
"h. c #926D5A",
"j. c #936D5C",
"k. c #8A7157",
"l. c #8E7257",
"z. c #83705F",
"x. c #917154",
"c. c #947254",
"v. c #9A7453",
"b. c #9A7855",
"n. c #927659",
"m. c #9C7758",
"M. c #9C735F",
"N. c #96795B",
"B. c #9C7858",
"V. c #A27C54",
"C. c #A47658",
"Z. c #A17A5A",
"A. c #806860",
"S. c #856C61",
"D. c #857361",
"F. c #8D7060",
"G. c #8A7663",
"H. c #937763",
"J. c #9E7561",
"K. c #A17762",
/* pixels */
"+ 1 c z z z z z 3 5 z N B Z Z N : + 3 z z z l c 0 @ 7 l h l h l l z c c q 8 q t B > : 3 < t q q 4 4 4 4 4 4 4 q q & o 0 w 8 , . ",
"2  .F.a.9.9.9.9.{ q q.J.K.M.g.7.5 @ C S.A.....[ ^ F ^ Q W W Q Q Q ^ / { *.-.-.-.e.t 0 l.1.1.-.*.I L K K K K I -.v.I q | ` t t o ",
"g A.F.a.9.t.t.t.a.q / K.J.J.h.R 5 + v ..p.....^ ! ! Q Q W W W W Q Q ^ R R *.-.*.-.t & ' 1.*.%.#.I K K s K I R R =.x.y.{ { F 8 o ",
"$ ..F.a.9.9.q.q.q./ j.j.j.g.s.7.5 @ v ~ ....( ~ Q Q Q W W W W W W Q ^ R R ' *.*.-.t : t I %.I I I K s s K K R R R ' { { ` q 9 . ",
"@ ^ d.a.u.8.7.7.8.q.q.q.a.q.7.6.V ; v v ~  .( ~ Q W W W W W W W W Q ^ / / R ' *.-.q o q K #.I I L K s s K K Y R ` { { | { t y . ",
"+ G s.a.9.7.6.6.6.7.7.8.7.6.6.$.0.K ; v ~ ( ( Q W W W W W W W W W Q ^ ^ / R ' *.-.t o > S %.I I K s s s K P Y R { { | | w.K S o ",
"3 / a.q.7.6.$.#.#.#.#.$.$.$.$.#.R C E O. . .( Q W W W W W W W W W Q ^ ^ / / ' ' *.B : t ' I I L K s s K K I Y ` { { | | { { U # ",
"z { 9.8.7.$.#.#.#.#.#.#.#.#.$.R 5 b +.O. .( ( Q Q W W W W W W W Q Q ^ ^ / R ' ' ' S o K I L I K K K s K L Y Y ` { | | { { T S @ ",
"5 U 8.8.#.#.#.R R R R R #.#.#.7.C f ~  .( ( ~ Q Q Q W W W W W W Q ^ ^ R R ' ' ' ' D o r K K K K K K K K K Y Y T ` { | { { T D : ",
"1 z Z $.#.R R R R R R R #.$.7.q.N 1 g Q ~ ~ Q W W W W W E E E W Q ^ / R ' *.6.*.*.V & t a a a a a a s s K P U D D ` { T { T A @ ",
": , 3 q q q q q q q 5 5 q q q q < # : , 2 3 7 l l l l l k l l 2 0 z q w N N N w w 8 : 4 8 8 > > < 4 4 8 4 < < < , 8 0 0 0 0 3 : ",
"U D U S S y S K R f.9 3 C C F G [ } { D o c ] [ [ [ X.o.o.i.G.z ! 9.{ w.y.x.x.x.c.1.=.' %.*.p O w A A F S > : c J J J J J U T T ",
"U D D S S a S K K *.w 0 G J ^ } o.o.} T o x [ [ [ } o.o.D.D.G.F 5 { w.y.r.e.f.m.Z.c.1.-.%.-.-.P D S S S K ' A T { | } { ` ` { ` ",
"D S S S a a S S K I 9 l ^ [ } o.o.} [ A o x [ [ [ } o.o.o.o.D.F 1 T { 9.0.0.e.c.B.c.1.*.%.%.I I S S S S S T D J { } { T T T T U ",
"D S S S a a a S K L 4 c } } o.} [ J J A o 0 J [ } o.o.o.o.o.D.A v [ { 6.0.0.f.c.c.f.1.-.%.%.I P S S S S S S S D ` } ` T U U J J ",
"D S S S a a a K K L 8 0 } o.o.[ J J F A O x J [ [ X.o.o.o.o.X.l 5 ^ { 6.0.0.2.e.f.2.-.-.%.%.I P S S D D D S F J T T T J J J J J ",
"S S a a S S S K K K < A o.o.o.[ J D F A # x J ] [ X.o.o.o.} c : l / { 0.0.0.2.2.2.>.-.-.%.I P S S D D D D D D D T T J D D D J J ",
"K K S S S S K K K K 0 F o.o.} ` J F J { : c J ) [ } } } } o.T , n [ { 0.0.e.1.1.2.-.%.%.I P P S S S D D D D U J T T T D J U T T ",
"P P P K K K K s s K 4 F } } } ` J A A ` < 0 ` J ) [ [ [ [ } i.3 z T ' 0.0.1.1.1.-.%.I I P K a y a a S D K T T T T T T T U T T T ",
"L L L L P K s s s s > A } [ ` J A A B B : 7 J J J ) J J ] [ } 3 0 T R *.0.1.1.1.-.%.I L K a y t t t a S K T R R T T T T T T R R ",
"a a a a y r y y y t O c [ J A A A w w w o : x x c m c m A F F , : B S K P I I P K K a t r q q q q q q w t A S S D D D D D D D D ",
"< 8 0 0 8 o o : 4 0 < 0 0 0 0 8 > o : : > < 4 q 4 4 4 4 4 4 < o , 0 8 8 q w q q q q q r w y 9 o o o = < < 4 < < 4 4 8 8 8 8 8 & ",
"c ` { { w.t O A { | i.| | | | w.t . : q V V K I d d K d L &.%.o F { ` ` ' =.=.*.-.-.-.1.1.4.v.%.a P L L L I K K P I I ' _ _ *.q ",
"0 ` ' ' ' { t T } i.i.| | | { { U X 5 V V S K K K K K s s L K X c | { { ' ,.,.1.-.-.-.>.1.-.2.c.4.1.L P P P P P I I I %.*.-.-.w ",
"8 T ` ` ` ` T T [ } } | | | } ` D & t V V K L L L L s s s s y X c | { { w.,.,.,.-.-.-.>.>.>.-.%.%.I L P P P I I I I I ' -.-.-.w ",
"0 D T T T T T T ` ` ` [ } | } { J : S K K K L L L L s i y y t X q { { { ,.,.,.1.-.-.-.>.>.>.-.%._ I L L P I I L L P L I _ *.%.8 ",
": A J D D D D J J J J J ` } } { U X V R L L L L L L s y y y r X 0 ' ' ' { ,.,.-.*.%.%.-.>.>.-.%._ I I L I I P d d d d L I L y & ",
": J J D D D F A A A A A J ` [ { J o S R R I L L L s y y y y e X q ` ` ` ' ' ' %._ _ _ %.-.-.%.%._ I I L L L d d d d P L I @.u % ",
": J J D F F A A A A A A F J T J w : T R R R I L L s y y y y r X w ' ` ` ' ' ' I L L I _ %.I I I L L L L d d d d d L L I I 3.5.& ",
": J T J J D A A A A B B A A J w 4 : U Y R R R I L s y y y y y X < P ` ` ' ' P a a d P I I P K P d d d d d d L L L I I @.I @.%.& ",
": J ` ` ` T F F D D A A A A J T w O S Y Y Y R I L L s y y y y X < D T ` ` D a a a s L L d s s s s d d P L L I @.@.@.@.#.%.d 9 o ",
"X , q w w 0 8 8 0 0 < < < 6 0 0 , X 4 q 8 q q 9 9 9 9 4 4 4 > . O 0 q w w < 8 9 9 q r t r w y t r r 9 w r t y t t t y y r - &   ",
"8 o 8 I I P S S K K a p t t t t B B t B S D U P 4 o z A C B B B A S S S F q o < q q q q q r t N N q 5 5 q q q t K K % 8 K a y a ",
"V.I _ 2.1.-.-.-.-.-.*.' R ' ' ' ' ' ' ' ' -.f.Z.q X l ^ ^ ^ / { { { { { l.N.t V U Y R R -.0.e.e.0.#.Y L R *.>.f.C.C.* t v.4.c.b.",
"4.V.b.1.-.*.*.*.*.*.*.' R R R R R R I I R ' =.e.t X 2 F F G T T T T T T T w.T G G U U U R -.0.0.#.R L L R R #.>.f.I o t v.3.3.3.",
"2.1.-.*.*.%._ %.*.*.' ' R R P I I P P P I ' *.1.y X 3 F F D G T T T T T T G U G Z G G U R -.0.-.R Y L L L L #.>.1.f.4 t v.4.3.3.",
"1.-._ I _ _ I I ' ' ' R R I P P P P P P R ' *.=.q X 0 F F F G T T T T U U G G Z Z G G U U R *.#.I L L K K L R #.>.f.9 t c.3.2.2.",
"-.%.I L I _ I I R R ' ' R I P P P P P P R ' =.' 9 X 5 C F F D G T T T U U G G Z Z Z F G U U R Y L L K K K K R #.-.1.4 q 3.2.>.&.",
"I L L L I I P P I R R R I P I P P I I I R ' *.' 4 X 3 C C F D G T T T U U D Z Z Z C Z G G U Y Y Y Y K K K L R #.*.#.< 9 %.&.%._ ",
"d d L L I I P P P R R R P P R R R R I I R ' ' I * X 3 C C F G T T T T U U G Z Z Z Z C Z G G U U Y U U L L R #.#.#.I * 4 L I I L ",
"s s d d L L P K P P P P P P R R R R S K R R I %.9 X , C C F T T T T D U G Z Z Z Z Z C C Z G U U U U Y R R #.#.I I s & 4 s s d d ",
"a s a s d K d d d K P t S P P I I P 8 8 P I P K s o , C C F T T T / G D G Z Z Z Z Z Z C C Z G U U U Y R R #.I I d y % > a a a a ",
"4 8 8 8 8 9 9 9 9 9 9 * > 8 8 q w q : : 8 0 8 4 q & # 3 0 5 < < < 5 > 3 0 0 5 5 5 5 3 3 5 5 8 < < 4 8 8 9 9 9 9 4 4 * & = = 4 4 ",
"I I I I %.I %.%.&.&.3.5.4 , { k.y.y.y.{ T T K P K K K K ' 0.4 o o S U t.-.#.#.#.*.%.e q ` T { t q T U P I R ' R I P P ' 9 o & & ",
"1.>.>.>.1.>.>.>.-.>.1.v.9 6 k.l.n.n.k.w.' ' ' ' R R R R R %.y * > U e.e.>.*.*.#.#.v.S 0 w.{ ` R =.0.=.1.y.e.e.e.e.1.-.-.1.d 9 P ",
"-.-.%.%.%.*.@.@.@.%.>.3.q 0 y.k.k.w.' ' ' ' R R I P I R R R #.t S R %.>.*.#.@.I I *.K l { ` T R 1.=.=.=.y.e.e.e.e.1.*.%.*.V.5.1.",
"*.%.%.%.*.*.%.@.@.%.>.3.w 0 w.w.w.' ' P P P P P P P P I R R R R %.%.-.#.#.#.@.I I *.K 0 U T T R ' =.=.=.0.y.-.1.-.%.%.%._ %.%.%.",
"*.%.%.%.%.*.*.@.@.@.*.3.q 0 ' w.,.' P K P P K K P P P P R R R %.-.>.*.#.#.#.#.#.#.*.S < K K P R ' =.=.' =.-.*.*.%.%.I I I I I I ",
"%.%.%.%.*.%.*.%.@.@.*.3.q 0 ' =.' ' P P P P P P P P K P R R #.-.>.*.#.#.#.#.#.#.#.*.V < D K P R ' ' ' ' %.-.-.*.%.I I _ _ I I I ",
"-.>.>.*.%.%.%.@.@.@.*.1.w 0 ' ' ' ' T P P K P K K K P I R ' %.-.>.*.-.#.#.#.#.#.*.*.y < S D P T R R R ' ' *.-.%.%.I I I I I I I ",
"*.-.*.@.@.@.@.@.@.%.*.*.< 0 ' ' ' ' T T P T ' ' T P P R R %.%.#.#.*.>.#.#.*.#.*.*.>.S , S S K P P P P R ' %.*.%.%.I I I I I I I ",
"@.%.@.@.I L L I I @.%.I & 0 K P T K P P P T ' ' ' ' T S %.#.@.@.@.#.*.L y %.*.*.*.>.P o 8 V S S K P P R ' %.%.%.%._ _ I L L L I ",
"y y y y y y y y a s d a o : w t p t t t t t S D D S K : t K K K K K L y % y L K K K q . X 0 t t t t S S K P P P P K K a a y y y ",
"0 8 8 q q 8 4 & @ 3 0 3 , 3 0 0 0 0 w : O 0 0 0 0 0 0 5 0 S S > : q t q 4 9 r r r q 4 > > < < % O < 8 q t r 4 < O : w q q q q q ",
"i.w.{ ' y.c.%.: 1 Q ^ ^ ^ ^ ^ ^ ^ [ ..T c [ ! [ [ [ [ { { n.n.0 0 H.r.>.*.#.@.#.#.I I K K K I U S T *.0.0.0.I e o 0 { { w.w.w.w.",
"| | { ` ` w.y.: 1 Q ^ ^ ^ ^ ^ ^ ^ ^ ! } ! J ! ] [ [ [ [ { { y.0 : w.h.*.I @.@.@.I I I I K U U U T R R R R R R t O A ` { { { w.w.",
"| | { { ` ` y.< 1 Q ~ ^ ! ! ! ^ ^ ^ ! J J H H ] [ [ [ [ T [ { w o A 0.I I I I @.@.I I I U U U U T R R R R R R K O A [ { { w.w.w.",
"| | } { { ` y.3 1 Q Q ~ Q Q Q Q ! Q Q J H F H ] [ [ [ [ [ [ { c X o S Y I I I @.@.I I I K U U U R R R R R R Y K & c [ [ { { { | ",
"| | | { [ ` T 3 2 Q Q Q Q Q Q Q Q Q F F H F J ! [ [ [ ! ! ! [ w : : B Y I I R R I I I K S S U U U R R R R R Y I & c T [ ` [ { } ",
"| | } { [ [ D , 2 W Q Q Q Q Q Q Q Q F F H F J ! ] ] ! J ! ! ! 0 < U R Y I R R I K K K K S S K U U U U T T R Y R : 0 T T ` [ { } ",
"| } [ [ } } ^ : 2 E W Q Q Q Q ~ Q Q H H H H J J J J Q J F J J 0 0 w.R I I I I I K K S S V S S K U U U U U R Y 6., 0 T T T ` [ } ",
"{ [ [ [ } o.z., 2 M b Q Q Q ~ ~ ~ Q H H F F J J J J F F F F F , : U R I K K I K K V V S V V K K U U U U U T R { : x J T T T [ { ",
"[ } [ [ [ } } : 1 j j Q Q Q ~ ~ ~ ~ Q F F A F F F F F A A A A : @ c R R I K K K K V t V S K K K U U U U U U T R : 0 D J T ` [ [ ",
"! ! J J J J F @ + g g b Q Q W E b n A m c c c c m m m c c c c : . , K P P K K I I t : q V V V V S G G U U U U U o , c c A F J F "
};
